<?xml version="1.0" encoding="utf-8"?>
<!-- Generator: Adobe Illustrator 19.0.0, SVG Export Plug-In . SVG Version: 6.00 Build 0)  -->
<svg version="1.1" id="Layer_1" xmlns="http://www.w3.org/2000/svg" xmlns:xlink="http://www.w3.org/1999/xlink" x="0px" y="0px"
	 viewBox="0 0 134.7 201.3" style="enable-background:new 0 0 134.7 201.3;" xml:space="preserve">
<style type="text/css">
	.st0{fill:#FCC397;}
	.st1{fill:#E26954;}
	.st2{fill:#EA9F6C;}
	.st3{fill:#963F04;}
	.st4{fill:#E27D39;}
	.st5{fill:#3E5068;}
	.st6{fill:#663412;}
	.st7{fill:#FFFFFF;}
	.st8{fill:#7B9368;}
	.st9{fill:#B7642C;}
	.st10{fill:#FFB18A;}
	.st11{fill:#C6523C;}
	.st12{fill:#FC7365;}
	.st13{fill:#109648;}
	.st14{fill:#0C663B;}
	.st15{fill:#C2C4C2;}
	.st16{fill:#369E3B;}
	.st17{fill:#72DD5B;}
	.st18{fill:#40C140;}
	.st19{fill:#FCEA9D;}
	.st20{fill:#515151;}
	.st21{fill:#3A3A3A;}
	.st22{fill:#DBDBDB;}
	.st23{fill:#752B0B;}
	.st24{fill:#9B5E26;}
	.st25{fill:#D87736;}
	.st26{fill:#E0A43B;}
	.st27{fill:#3C3C3B;}
</style>
<g id="XMLID_1_">
	<path id="XMLID_855_" class="st0" d="M34.4,124.4c0,0.5,0.2,2.2-3.6,0.5c-2.7-1.2-4.1-0.3-5-0.9c-0.8-0.6,0.4-3.7,1.7-3.5
		c1.3,0.2,3.4,1.3,4,1.7C32.2,122.5,34.4,124.4,34.4,124.4z"/>
	<path id="XMLID_854_" class="st1" d="M32.2,124.5c0,0,0.3-0.7,0.5-0.9c0.4,0.1,1.4,0.6,1.6,0.8c0.3,0.2,0.4,0.9-0.3,0.9
		C33.4,125.3,32.2,124.5,32.2,124.5z"/>
	<path id="XMLID_829_" class="st2" d="M32,140.7c0.6,0.2-0.7,0.7-2-0.6c-1.3-1.4-5.4-5.8-5.4-5.8S30.5,140.1,32,140.7z"/>
	<path id="XMLID_896_" class="st3" d="M130.1,107.3c-3.7-2.3-2.9-5.3-1.8-8.9c1-1.9,1.9-4.2,2.4-7.1c2-10.7-4-16.2-8.4-20.2
		c-5.7-5.2-1.2-7.6-0.3-12.8c1.6-9.1-6.1-11.9-5-16.9c1.9-9.1-5.7-19.9-15.1-29.1l0,0c-4.4-6-11.2-8.6-19-9.6
		c-15.4-1.9-25.1,8.8-30.8,23.9c-7.3,19.3,1.6,42.1,21.2,44.6c3.2,0.4,26.2,32.8,27.5,38.5c1.3,5.7,23.2,2.4,19.2,12.4
		c-1.8,4.5,0.8,5.6,2.5,5.4c4-0.6,2-4.1,2-4.1s0.2,3-1.9,2.6c-0.9-0.2-1.8-1.1-0.1-3.2c2.9-3.6,4.4-4.9,1-10.6
		c-2.2-3.6-1.3-5.5,0.6-8c0.1,0.4,0.2,0.8,0.3,1.1c1,3,5.5,4.7,6.2,6.9c0.7,2.1-5.5,3.2-2.8,7.9c-0.2-3.9,2.1-3.3,4-4.4
		C135.2,113.9,134.2,109.9,130.1,107.3z"/>
	<polygon id="XMLID_895_" class="st4" points="54.5,40.5 58.2,42.9 61.8,54 58.2,53.6 55.5,48.5 	"/>
	<path id="XMLID_894_" class="st5" d="M86.9,71.2c0,0-2.2-0.5-3.1-0.4c-1,0.2,0.8,2.3,0.8,2.3S86.7,72,86.9,71.2z"/>
	<path id="XMLID_893_" class="st0" d="M90.1,77.9c-4.3-1.5-6.4-5.9-6.1-8.6c0.1-1.1,1-8.5,1-8.5c-5.4,2.6-9.9,4.6-9.9,4.6
		s-4.2-2.5-9.3-5.2c0,0-0.9,7.7-1,8.3c-1.1,8.1-5.8,8.3-11.5,9.4l6.6,28.5L90.1,77.9z"/>
	<path id="XMLID_892_" class="st2" d="M66.2,57.2L65.6,62c3.1,2.8,5.9,4.6,7.3,5.5c0.6,0.4,1.4,0.5,2.1,0.3c1.7-0.5,5.4-1.6,9.6-3.6
		l0.6-4.8L66.2,57.2z"/>
	<path id="XMLID_891_" class="st0" d="M100.8,36.9c-0.6-0.3-1.3-0.3-2-0.1c1.5-6.4,2.7-12.9,1.9-14.6C96.9,14.4,89.5,9,81.4,7.8
		c0,0,0,0,0,0c0,0,0,0,0,0c-8.1-0.7-16.6,2.7-22.2,9.4c-1.2,1.4-1.6,7.9-1.7,14.4c-0.5-0.2-0.9-0.2-1.4-0.1c-2,0.4-3,3.5-2.4,6.8
		c0.6,2.8,2.1,4.9,3.8,5.3c0,1.9,0.1,3,0.1,3C60.3,57.5,70,63.9,73.2,65.7c0.6,0.4,1.4,0.5,2.1,0.3c3.4-1,14.6-4.8,19.9-14.8
		c0,0,0.3-1.1,0.8-2.9c1.8,0.3,4.1-1.4,5.5-4.1C102.9,41,102.6,37.8,100.8,36.9z"/>
	<path id="XMLID_890_" class="st6" d="M83.9,32.3c0.4-0.2,3.7-1.7,6.8-1.2c1.3,0.2,2.3,0.9,3.6,2.1c-0.9-0.2-2.3-1.2-3.5-1.3
		c-2.8-0.3-5.6,1-6.6,1.5C83.5,33.9,83.1,32.8,83.9,32.3z"/>
	<path id="XMLID_889_" class="st6" d="M73.3,31c-0.4-0.3-4-2.6-6.2-2.6c-1.1,0.1-2.3,0.4-3.5,1.1c-3.2,1.8,1.2-0.7,3.4-0.2
		c2.7,0.6,5,2,5.7,2.7C73.3,32.6,73.9,31.6,73.3,31z"/>
	<path id="XMLID_888_" class="st7" d="M72.9,36.8c-2.5,0.5-3.5,0.9-4.8,0.8c-1.9-0.2-3.3-1.4-3.2-2.6c0.1-1.2,1.8-2,3.7-1.7
		C70.5,33.5,72.7,35.9,72.9,36.8z"/>
	
		<ellipse id="XMLID_887_" transform="matrix(0.9926 0.1216 -0.1216 0.9926 4.8164 -8.0256)" class="st8" cx="68.2" cy="35.5" rx="2" ry="2.1"/>
	<path id="XMLID_886_" d="M69.6,35.4c-0.1,0.8-0.8,1.4-1.5,1.3c-0.8-0.1-1.3-0.8-1.2-1.6c0.1-0.8,0.8-1.4,1.5-1.3
		C69.2,33.9,69.7,34.6,69.6,35.4z"/>
	
		<ellipse id="XMLID_885_" transform="matrix(0.9926 0.1213 -0.1213 0.9926 4.7775 -8.1369)" class="st7" cx="69.2" cy="35.2" rx="0.7" ry="0.5"/>
	<path id="XMLID_884_" d="M72.7,36.3c-1.2-3-4.7-3.5-7.1-3c-2.1,0.5-2.4,0.1-2.5,0c-0.1,0.8,0.8,2.5,2.8,3.6c-0.5-0.4-0.9-0.9-1-1.4
		c0.4-1.2,3.2-1.7,4.9-0.9c2.5,1.1,3.1,2.3,3.1,2.3C72.9,36.6,72.8,36.4,72.7,36.3z"/>
	<path id="XMLID_883_" class="st7" d="M82.9,38c2.3,1.1,3.2,1.7,4.5,1.9c1.9,0.3,3.6-0.6,3.8-1.8c0.1-1.2-1.3-2.4-3.2-2.6
		C86.1,35.4,83.3,37.2,82.9,38z"/>
	
		<ellipse id="XMLID_882_" transform="matrix(-0.9926 -0.1215 0.1215 -0.9926 170.4844 86.1263)" class="st8" cx="87.9" cy="37.9" rx="2.1" ry="2.1"/>
	
		<ellipse id="XMLID_881_" transform="matrix(-0.9925 -0.122 0.122 -0.9925 170.4034 85.7225)" cx="87.8" cy="37.6" rx="1.4" ry="1.4"/>
	
		<ellipse id="XMLID_880_" transform="matrix(-0.9925 -0.1225 0.1225 -0.9925 172.7402 86.0452)" class="st7" cx="89" cy="37.7" rx="0.7" ry="0.5"/>
	<path id="XMLID_879_" d="M93.4,37c-0.1,0.1-0.5,0.4-2.5-0.6c-2.2-1.1-5.8-1.5-7.7,1.1c-0.1,0.2-0.3,0.3-0.3,0.5c0,0,0.8-1,3.6-1.5
		c1.9-0.3,4.6,0.8,4.6,2.1c-0.2,0.5-0.7,0.8-1.3,1.1C91.2,39.4,93.2,38.4,93.4,37z"/>
	<path id="XMLID_878_" class="st9" d="M107.8,29.6c1.7-13.8-9.4-26.5-24.7-28.4C67.7-0.7,53.9,9,52.2,22.8
		c-0.6,4.6-0.2,9.1,1.4,13.1c0.1-2.3,1.1-4.1,2.6-4.4c0.3-0.1,0.7-0.1,1,0c0.4,3,0.9,5.1,1.1,3.5c0.2-1.9,1.1-5.4,1.7-7.9
		c1.3-3.4,1.3-9.4,11.1-8.8c-0.1-8.1,28.8-5.8,27.5,14.3c0,2.5-0.1,5.5-0.3,7.2c-0.2,1.6,0.8-0.3,1.8-3c0.3,0,0.5,0.1,0.8,0.2
		c1.4,0.7,1.9,2.8,1.3,5.2C105.2,38.7,107.2,34.4,107.8,29.6z"/>
	<path id="XMLID_877_" class="st2" d="M77.9,47.6l-2.6-0.3c-0.9-0.1-1.5-0.8-1.7-1.7c-0.1,0.2-0.2,0.5-0.2,0.8
		c-0.2,1.2,1.3,1.8,2.4,2l1.4,0.2c1.1,0.1,2.7-0.1,2.8-1.3c0-0.3,0-0.6,0-0.8C79.5,47.1,78.7,47.7,77.9,47.6z"/>
	<path id="XMLID_876_" class="st2" d="M54.5,33.6c0-0.3,0.7-1.4,1.3-1.1c0.9,0.4,1.3,2.4,1.5,4.3c0.2,1.9-0.2,3.3-0.3,2.8
		c-0.2-0.8-0.2-3.1-1.1-5.4C55.2,32.7,54.4,35.7,54.5,33.6z"/>
	<path id="XMLID_875_" class="st2" d="M101.8,39.4c0.1-0.3-0.3-1.5-1-1.4c-1,0.2-1.8,2-2.5,3.8c-0.6,1.8-0.6,3.2-0.3,2.7
		c0.4-0.7,0.9-2.9,2.4-4.9C101.4,38.4,101.4,41.5,101.8,39.4z"/>
	
		<ellipse id="XMLID_874_" transform="matrix(0.9101 0.4144 -0.4144 0.9101 23.4708 -22.9615)" class="st10" cx="64.7" cy="42.6" rx="4.9" ry="3.1"/>
	
		<ellipse id="XMLID_873_" transform="matrix(-0.9832 0.1825 -0.1825 -0.9832 185.0348 74.2052)" class="st10" cx="89.1" cy="45.6" rx="4.9" ry="3.1"/>
	<path id="XMLID_872_" class="st11" d="M69.6,51.6c-0.7-0.4-0.9-0.3-1-0.2c-0.1,0.1-0.2,0.1,0.2,0.9c0.2,0.4,0.9,1.6,0.9,1.6
		s1.7,4.4,5.8,4.7c4.1,0.3,6.2-2.8,6.6-3.4c0.2-0.4,0.7-0.9,0.9-1.1c0.5-0.7,0.4-0.7,0.3-0.8c-0.2-0.3-0.3-0.2-0.8,0
		c-0.2,0.1-3.4,0.3-6.7-0.2C72.5,52.4,70.1,51.9,69.6,51.6z"/>
	<path id="XMLID_871_" class="st7" d="M79.4,55.2c1-0.2,1.4-1,1.8-2.1c-1.3,0-3.6,0-5.9-0.4c-1.8-0.3-3.7-0.6-5-1
		c0.1,1.3,0.3,1.4,1.3,2.1c-0.8-0.1-1.1,0.7-1.1,1.6c1.1,1.2,3.1,2.5,4.8,2.7c2.6,0.2,4.2-0.3,5.2-1.4
		C80.4,56.1,80.1,55.3,79.4,55.2z"/>
	<path id="XMLID_870_" class="st12" d="M69.8,51.6c0,0,0.1,1.1,5.6,1.8c5.4,0.6,6.6-0.2,6.6-0.2s-4-1-6.2-1.2
		C73.7,51.8,69.8,51.6,69.8,51.6z"/>
	<path id="XMLID_869_" class="st13" d="M92.2,136.6c0.1-0.4,0.1-0.7,0.2-1.1c0.1-0.6,0.2-1.2,0.4-1.8c1.7-8,5.4-18,9.6-25.5
		c0.3-0.4,3.5-28.7,0.2-28.7l-9.9-1.8c-0.1,0-0.1,0.1-0.2,0.1l-4.8-1.1c-6.5,1.6-12.6,1.8-15.6,7c-1.1,1.9-7.7,12.8-7.7,12.8
		S60.3,77,57.9,76.3c0,0-17.8,2.4-19.2,3.3c-1.4,0.9-2.7,1.9-4,4.7c-1.3,2.8-3.9,10.4-5.3,18.2c-1.4,7.8-4.2,19.7-4.2,19.7l12,2.7
		l1.3-6.3c1.5,3.6,4.4,6.5,8.1,8c0.9,3.2,1.6,6.5,2.1,10c0.2,1.2,0.3,2.3,0.4,3.5c0.1,0.9,0.2,1.8,0.3,2.7c0.2,1.8,0.3,3.5,0.4,5.3
		c0,0.6,0.1,1.2,0.1,1.8c0.1,2.1,0.1,4.2,0,6.2c-2.8,2.1-5.2,4.6-7.2,7.3c3,0.9,7.2,2.1,8.6,2.2c3.4,0.3,5.7-3.2,5.7-3.2
		s-1.3,5.1,7.9,5.9c9.3,0.8,27.9-1.3,35.5-2.2c-2.5-4-5.6-7.5-9.3-10.2c0-0.7-0.1-2.3-0.1-3.1c0-0.6,0-0.3,0-0.9
		C91,147.1,91.4,141.9,92.2,136.6z"/>
	<path id="XMLID_868_" class="st12" d="M69.1,52.7c0,0,0.3,5.3,5.7,6.1c5.1,0.8,7.7-4.5,7.7-4.5s-2.3,2.7-7.1,2.3
		C70.8,56.2,69.1,52.7,69.1,52.7z"/>
	<path id="XMLID_867_" class="st14" d="M40.8,98.5c0,0-3,13.2-3.4,17.4c-0.1,1.2-1.6-1.3-1.6-1.3S36.6,104.9,40.8,98.5z"/>
	<path id="XMLID_866_" class="st14" d="M71.4,126.8c-2.3-0.4-6.4-2.1-7.8-4.1c0.8,3.2,3.6,5.2,5.4,5.8c11.9,3.8,18.1-7.2,18.1-7.2
		C83.6,124,77.4,127.7,71.4,126.8z"/>
	<path id="XMLID_865_" class="st14" d="M66.2,94c0,0-7.5,11.7-8.1,21.9c-1.4,16.1-1.2,46.6-1.2,46.6s-0.9-9.8-0.9-17.2
		c-0.1-5.9,0.3-16,0.8-27.2c0.4-8.2,3.4-15,7.6-21.3C64.8,95.7,66.2,94,66.2,94z"/>
	<path id="XMLID_864_" class="st14" d="M62.2,141.4c1-1.6,24.4-4.5,30.2-5.8c0.1-0.6,0.2-1.2,0.4-1.8c-0.2,0-0.4,0.1-0.5,0.1
		c-1.8,0.4-6.2,1.1-10.7,1.8c-13.6,2.1-19-2.4-20.8-1.4C56.7,133.9,57.9,141.1,62.2,141.4z"/>
	<polygon id="XMLID_863_" class="st14" points="64.4,96.8 70.7,82.5 86.8,71.5 94.8,78.7 74.8,94.9 70.9,86.7 	"/>
	<polygon id="XMLID_862_" class="st13" points="86.9,71.2 95.6,78.1 75.2,92.5 70.7,82.5 	"/>
	<path id="XMLID_861_" class="st14" d="M64.5,70.5c0,0-1.3,3.8-1.7,10.3l1.6,15.9L57.6,81l-5.9-3.6L64.5,70.5z"/>
	<polygon id="XMLID_859_" class="st13" points="63.8,70.9 51.7,77.3 58.5,80.2 	"/>
	<polygon id="XMLID_858_" class="st2" points="22.9,131.8 23,131.4 44.8,140.8 40.9,142.1 27,135.3 	"/>
	<path id="XMLID_857_" class="st0" d="M40.4,116.8c-1.3-0.8-2.2-1.6-2.2-1.6s-1.6,1.2-0.4,3.2c-0.3,0.4-0.7,1-1.2,1.8
		c-1,1.6-5.4-6.6-5.4-6.6l-1.5-0.2c-0.5,0.3-2.3,0.7-3.1,2.6c-0.1,0.3-0.4,0.6-0.6,1c-0.2,0.3-1.4,1.4-1.6,2.6
		c-0.2,1.2,0,1.6-0.2,1.9c-0.2,0.3-1,2.8-0.2,5.3c0.3,2,5,5,8.9,2c1-0.1,2.3,0,3.8-2.4c0,0,4.4-7.3,4.4-7.3
		C41.4,118.8,41.7,117.6,40.4,116.8z"/>
	<path id="XMLID_856_" class="st2" d="M34.7,124.8c0,0-2.6-1.9-3.3-2.3c-0.6-0.4-2.7-1.5-4-1.7c-1.3-0.2-1.5,2.5-0.7,3.1
		c0.4,0.3,0.4,0.2,0.9,0.2c-1,0.5-1.9,1.1-1.3,0.9c0.8-0.2,0.9-0.5,2.3-0.7c0.5,0.2,1.1,0.4,2,0.8C34.4,127,34.7,125.3,34.7,124.8z"
		/>
	<path id="XMLID_853_" class="st2" d="M34.4,120.9c0,0-5.2-0.7-6.9-0.6c-0.9-0.1-1.8,0-1.8,0c-0.3-0.2-0.6,0-0.5,0.2
		c0,0.2,0,0.2,0.7,0.1c0.7-0.1,1-0.2,1.6,0c0.1,0,0.3,0.1,0.5,0.1c1.3,0.9,3.8,2.2,4.2,2.4c0.3,0.2,2.5,4.2,5.5,1.2L34.4,120.9z"/>
	<path id="XMLID_852_" class="st2" d="M36,118.1c-0.6-0.6-5.8-1.6-7.2-1.4c-0.3-0.1-0.7-0.1-1.2,0c-0.3,0.1-0.7-0.2-0.8,0.2
		c-0.1,0.3,0.8,0.1,0.9,0c0.2,0,0.7-0.1,1,0c0.5,0.1,3.5,2.4,4.8,3.5c0.6,0.6,2.9,4.1,5.5,1.4C39.1,121.8,36.6,118.7,36,118.1z"/>
	<g id="XMLID_844_">
		<path id="XMLID_851_" class="st15" d="M31.9,107.6c-0.1-0.3-0.1-0.7,0.1-0.8l0.9-0.4c0.2-0.1,0.5,0.1,0.6,0.4l0.6,1.4
			c0.1,0.3,0.1,0.7-0.1,0.8l-0.9,0.4c-0.2,0.1-0.5-0.1-0.6-0.4L31.9,107.6z"/>
		
			<rect id="XMLID_850_" x="27.3" y="115.4" transform="matrix(-0.3982 -0.9173 0.9173 -0.3982 -56.0221 194.9393)" class="st16" width="17.3" height="0.9"/>
		
			<rect id="XMLID_849_" x="28.1" y="115" transform="matrix(-0.3982 -0.9173 0.9173 -0.3982 -54.5292 195.1926)" class="st17" width="17.3" height="0.9"/>
		
			<rect id="XMLID_848_" x="27.7" y="115.2" transform="matrix(-0.3982 -0.9173 0.9173 -0.3982 -55.2254 195.0375)" class="st18" width="17.3" height="0.9"/>
		<polygon id="XMLID_847_" class="st19" points="40.6,123.2 39,124 41.2,126.8 		"/>
		<polygon id="XMLID_846_" class="st20" points="40.4,125.9 41.2,126.8 41,125.6 		"/>
		
			<rect id="XMLID_845_" x="32.2" y="107.6" transform="matrix(-0.9177 0.3973 -0.3973 -0.9177 106.3966 194.2193)" class="st21" width="1.8" height="1"/>
	</g>
	<path id="XMLID_842_" class="st0" d="M35.9,118c-0.6-0.6-3-2.7-3.6-3.3c0-0.1,0-0.5,0.2-0.3c0.7,0.5,1.9,1.5,2.3,1.8
		c1.8,1.4,2.8,0.9,3.8-0.3c-3.6-4.1-5.3-4.8-6-5.2c-0.7-0.4-1.8,0-2.3,1c-0.4,1-0.8,2.1-0.8,2.2c0,0.1,0.5,0,1.2,0.1
		c-0.2,0-0.4,0.2-0.7,0.4c-0.7,0.7-1.4,1.7-1.3,2.2c0,0.2,0.5,0.1,0.8,0.3c0.8,0.6,3,2,4.3,3.2c0.6,0.6,2.7,4,5.1,1.8
		C38.8,121.9,36.5,118.6,35.9,118z"/>
	<path id="XMLID_841_" class="st0" d="M37.4,124.2l-3.2-3.3c0,0-4.2-3.4-4.6-3.6c-0.3-0.2-0.6-0.6-1.4,0.3c-0.6,0.7-1.8,1.7-1.3,2.4
		c0.1,0.2,0.6,0.3,0.9,0.4c1.4,0.6,4.1,2,4.4,2.2C32.6,122.8,34.7,126.4,37.4,124.2z"/>
	<path id="XMLID_840_" class="st1" d="M35.2,115c0,0,0.6-0.8,1-1c0.5,0.2,1.5,1.2,1.7,1.5c0.3,0.4,0.2,1.3-0.7,1.1
		C36.5,116.4,35.2,115,35.2,115z"/>
	<path id="XMLID_839_" class="st1" d="M38.9,121.9l-1.4-2c0,0-0.4,0-0.7,0.2c-0.3,0.2,0.8,1.7,1.1,1.8
		C38.2,122.1,38.9,121.9,38.9,121.9z"/>
	<path id="XMLID_838_" class="st1" d="M37.5,124.2l-1.7-1.7c0,0-0.4,0.1-0.6,0.3c-0.3,0.2,1.1,1.6,1.4,1.6
		C36.9,124.4,37.5,124.2,37.5,124.2z"/>
	<path id="XMLID_837_" class="st7" d="M2.9,120.4c0,0,0.8-1,3.1-1c2.2,0,14.8,7.9,14.8,7.9l20.4-2.7l-0.4,5l-19.4,0.8l-1.9-0.4
		l-1-0.4l-0.2-0.6l-15.6-8.4V120.4z"/>
	<polygon id="XMLID_836_" class="st22" points="41.2,124.6 71,137.4 71,139.3 40.9,127.4 	"/>
	<path id="XMLID_835_" class="st23" d="M2.4,120.2l16.4,8.7c0,0,0.3,1.1,2.8,0.8c2.5-0.3,19.2-2.1,19.2-2.1l30.4,12.3l-20.1,3.9
		l-30.6-13c0,0-1.8-0.4-2.2-1.3c-0.4-1-15.9-8.7-15.9-8.7V120.2z"/>
	<polygon id="XMLID_834_" class="st24" points="71.2,139.2 71.2,139.9 40.8,127.6 21.4,129.7 41,127 	"/>
	<path id="XMLID_833_" class="st0" d="M22.9,131.8c0,0,8.7,4.9,9.8,5.4c2.7,1.2,6.8,3.5,8.6,3.7c0.8,0.1-8.3-3.9-9.4-5.2
		c-0.6-0.7-0.5-1.9,1-2c3.6,0,6.4,2.6,12.1,3.1c6.5,0.6,7,4.9,7,4.9s3.2,4.2-2,5c-6.3,1-15.6-2.2-18.4-4.1c-0.6-0.4-7.5-9.3-9.2-11
		C22.5,131.7,22.7,131.7,22.9,131.8z"/>
	<path id="XMLID_832_" class="st1" d="M34.5,135.3c0,0-0.4,1-0.7,1.3c-0.6-0.1-1.9-0.8-2.2-1.1c-0.4-0.3-0.5-1.3,0.4-1.3
		C32.7,134.2,34.5,135.3,34.5,135.3z"/>
	<path id="XMLID_831_" class="st13" d="M110.5,88.3c-1.9-7-5.8-9.6-11.5-9.1c-10.6,1-8.8,16.9-8.3,19.2c0.9,4.3,2.1,8.5,4.4,11
		c1.3,9,1.9,17.2,1.4,20.4c-0.3,2-0.6,3.9-0.8,5.4c-1.2-0.1-2.3,0-3.1,0.2c-5.4,1.3-29.4,4.2-30.5,5.9c-4.3-0.2-10.5-1.5-10.5-1.5
		s-3.5,2.6-3.3,7.7c4.6,1.8,12.3,3,12.3,3s-0.2,1.7,3.8,2.1c4,0.3,29.2,2.1,44.3-5.7c0.2-0.4,0.3-0.8,0.5-1.3
		C116.6,128.4,112.2,94.7,110.5,88.3z"/>
	<path id="XMLID_830_" class="st14" d="M75,153.1c-5.2,0-9.1-0.3-10.5-0.4c-4-0.3-3.8-2.1-3.8-2.1s-6.3-1-10.9-2.5
		c0,0.6,0.1,1.2,0.1,1.8c3.5,1.1,12.2,4.7,14.4,4.8c1.9,0.1,5.8,0,10.7,0c4.7,0,10.3-1.1,16-1.9c0-0.6,0-0.3,0-0.9
		C85.3,152.8,79.6,153.1,75,153.1z"/>
	<ellipse id="XMLID_828_" class="st14" cx="59.7" cy="97.2" rx="1.1" ry="1.3"/>
	<ellipse id="XMLID_827_" class="st14" cx="55.1" cy="111.9" rx="1.1" ry="1.3"/>
	<ellipse id="XMLID_826_" class="st14" cx="54.6" cy="126.8" rx="1" ry="1.3"/>
	<ellipse id="XMLID_825_" class="st14" cx="54.6" cy="153.9" rx="1" ry="1.3"/>
	<path id="XMLID_824_" class="st25" d="M66.9,15.5c-2.9-0.9-7.9-1.9-10.4,4.1c-2.5,6-4.6,11.8-4.2,21.8c0.4,8.6,4.1,21.3,9.8,25.6
		c-2.6-1.2-10.6-8.8-12.5-20.9c-1.9-12.3,3.6-27.2,6.7-31.4C60.2,9.5,66.9,15.5,66.9,15.5z"/>
	<path id="XMLID_823_" class="st25" d="M60.1,52.9c-2.8-1.9-4.4-5-4.6-8.1c-0.7-10.7,0.9-16.7,3-22.6c2.1-6,5.5-6.2,8.3-6.6
		c0,0-5.1-2.9-8.4,2.3c-2.7,4.2-6.9,18.2-5,28.9c2,10.8,8.2,13,11.5,12.7C63.3,57.6,61.5,55.4,60.1,52.9z"/>
	<path id="XMLID_822_" class="st9" d="M116.8,80.2c0.4,1.8,4,4.2,4.1,7.8c0,3.6-3.3,6.3-5.3,10.1c-1.9,3.6-1.5,6.8,0.9,9.4
		c2.4,2.6,3.2,6.3-0.4,9.5c-2.5,2.3-0.2,6.3,2.3,5c1.4-0.7,1.5-2.4,1.4-2.9c-0.1,1.5-1.2,2.5-2.2,2.2c-1.7-0.5-1.4-2.4-0.9-3.1
		c0.5-0.6,1.9-1.5,2.9-2.9c1.7-2.5,1.7-5.4,0.3-8.4c-1.4-3-2.2-5.4,0.5-9c2.6-3.6,4.4-5.5,4.9-10c0.2-2.5-1.3-3.9-4.9-6.2
		c-2.7-1.8-3-4.1-2.6-4.9C117.2,77.2,116.4,78.6,116.8,80.2z"/>
	<path id="XMLID_821_" class="st26" d="M64.9,15c-1.8,0.1-4.2,1-6.1,3.6c-1.9,2.6-5,14.2-5,19.6c0,5.4,2.1,14.8,4.6,18.4
		c-2.5-2.5-6.2-8.6-6.7-18.3c-1.3-24,8.5-24,9.3-24.1C61.8,14.2,64.9,15,64.9,15z"/>
	<path id="XMLID_820_" class="st25" d="M114.7,68.5c-0.3,2.1-2.2,10.7,6.8,16.3c6,3.7,4.2,8,2.4,11.1c-1.8,3.1,1.4,5.7,4,6.9
		c3.1,1.4,3.1,6.8-2.1,6.6c-6.7-0.2-3.3,9.7,1.9,3.7c-1.1,0.6-2.5,1.2-3.5,0.3c-1-0.9-0.7-2.9,2.3-2.7c3,0.2,7.1-0.3,8-4.3
		c1.1-5-3.3-5.4-5.7-7.9c-2.9-3,3.9-8.4-0.3-16.2c-2.8-5.2-11.1-4.7-9.6-19.8C120.4,47.5,114.7,68.5,114.7,68.5z"/>
	<path id="XMLID_819_" class="st26" d="M70.1,15.8c0.6-4.2,3.2-4.9,7.9-4.5c4.7,0.4,16.9,5,19.3,13c2.3,7.9,6.8,17,9.6,21.8
		c2.8,4.8,7,7.7,8.3,12.8c1.3,5.1-0.6,8.3-0.4,9.6c0.1,1.3,4.4-6.4,4.2-9.6c-0.2-3.3-2.5-5.3-5.3-10.4c-2.8-5-1.7-3-3.3-14.4
		c-1.6-11.4-7.1-16.3-9.8-18.6c-2.7-2.3-9.8-6.3-17.1-7.9C76.6,6.2,66.5,8.5,70.1,15.8z"/>
	<path id="XMLID_818_" class="st25" d="M94,19c12.1,11.7,7.7,23.7,16.1,30.2c7.5,5.9,11.1,15.2,5.2,22.6c-2.6,3.3-6.4,8.4-4.3,10.8
		c3.9,4.6,9.6,3.2,3.8,12.7c0.4-0.5,2.3-5-0.2-6.6c-7.9-3.5-14.2-8.5-11.7-16.8c2.5-8.3,7.9-5-1.8-17.4c-6.1-7.8-3.5-8-2.9-19.9
		C98.7,24.7,94,19,94,19z"/>
	<path id="XMLID_817_" class="st25" d="M98.3,42.7c0.5-2.2-3.7,6-2.4,9.9c1.3,3.9,3.4,3.9,3.5,6.3c0.1,2.4-0.5,4.2-3.2,7.9
		c-2.7,3.7-0.5,5.5,0.4,6.2c0.9,0.7,3,1.1,4.4,2.9c1.4,1.8,1,4,0,5.2c-1,1.3-2.9,2.6-2.6,4.7c0.3,2.1,2.8,2.4,3.5,2.3
		c1.4-0.2,2.2-1.3,2.3-1.7c0,0-1,0.9-2.6,0.8c-1.7-0.1-2.1-1.8-1.5-2.7c0.6-0.9,3.6-3,4.1-4.3c1.1-2.8-0.3-5.3-2-6.6
		c-1.7-1.3-2.9-2.2-1.4-4.8c1.5-2.5,2.8-4.4,2.9-7.6c0.1-3.2-1.6-5.6-3.5-7.8C98.4,51.1,96.9,49.3,98.3,42.7z"/>
	<path id="XMLID_816_" class="st25" d="M84.1,6.2c11.3,3,20.5,10.3,23.7,18.9c2.7,7.4,2.1,10.9,2.4,16.4c0.4,5.5,2.2,7.9,4.8,10.5
		c2.6,2.6,3.8,5.8,1.4,11.9c-2.4,6.2,2.2-0.3,3.6-3.5c1.3-3.2,1.7-8.9-4-13c-3.7-2.7-1.5-7.4-1.5-12.7c0-5.3-1.1-8.6-4.5-13.5
		C104.6,13.2,92.9,6.4,84.1,6.2z"/>
	<path id="XMLID_3_" class="st27" d="M110.5,201.3c-3.8-15-8.4-31.7-9.5-33.7c-0.2-0.4-0.5-0.9-0.8-1.3c-7.6,0.9-26.3,2.9-35.5,2.1
		c-9.2-0.8-7.9-5.9-7.9-5.9s-2.2,3.5-5.7,3.2c-1.4-0.1-5.6-1.3-8.6-2.2c-1,1.4-1.9,2.9-2.8,4.4c-1.1,2-5.2,18.4-8.6,33.4H110.5z"/>
</g>
</svg>
