<?xml version="1.0" encoding="utf-8"?>
<!-- Generator: Adobe Illustrator 19.0.0, SVG Export Plug-In . SVG Version: 6.00 Build 0)  -->
<svg version="1.1" id="Layer_1" xmlns="http://www.w3.org/2000/svg" xmlns:xlink="http://www.w3.org/1999/xlink" x="0px" y="0px"
	 viewBox="0 0 108 88.7" style="enable-background:new 0 0 108 88.7;" xml:space="preserve">
<style type="text/css">
	.st0{fill:#109648;}
	.st1{fill:#4D4D4D;}
	.st2{fill:#FCC397;}
	.st3{fill:#E5E5E5;}
	.st4{fill:#333333;}
	.st5{fill:#161616;}
	.st6{fill:#515151;}
	.st7{fill:#EA9F6C;}
	.st8{fill:#875D41;}
	.st9{fill:#FFFFFF;}
	.st10{fill:#7B9368;}
	.st11{fill:#EA8C63;}
	.st12{fill:#D87350;}
	.st13{opacity:0.4;fill:#FFFFFF;}
	.st14{fill:#212121;}
	.st15{fill:#5FA6B2;}
</style>
<g id="XMLID_692_">
	<rect id="XMLID_689_" x="3.6" y="23.1" class="st0" width="101.7" height="61.7"/>
	<path id="XMLID_686_" class="st1" d="M108,25.9c0-4-3.2-7.2-7.2-7.2H7.2c-4,0-7.2,3.2-7.2,7.2v55.6c0,4,3.2,7.2,7.2,7.2h93.6
		c4,0,7.2-3.2,7.2-7.2V25.9z M104,84.7H4v-60h100V84.7z"/>
</g>
<g id="XMLID_693_">
	<path id="XMLID_683_" class="st2" d="M63.3,34.2c-1.5-0.6-2.9-2.1-3.2-3.2l-0.1-4.2c-0.9,0.7-1.8,1.1-2.8,1.8c-0.5,0.1-2.4,0.2-3,0
		c-1.5-0.9-3.3-1.9-4.9-3.4l-0.2,6c-0.4,1.1-1.8,2.4-3.3,3l8.9,2.3L63.3,34.2z"/>
	<path id="XMLID_583_" class="st3" d="M60.1,58.3c0.4-0.1,0.7,0,1.1,0.3V36.6H47.4v23.6C50.3,59.9,54,59.2,60.1,58.3z"/>
	<path id="XMLID_582_" class="st4" d="M76.7,38.7c-0.8-2.1-2.8-3.5-5.1-3.5l-8.2-1c-0.3-0.1-1.4-0.3-1.7-0.5l-6.5,25.4
		c-0.2,0-0.4,0.1-0.6,0.1l-6.7-26.3c-0.6,0.5-1.3,1-2,1.2l-8.2,1c-2.2,0-4.2,1.3-5,3.3c-1.7,3.3-2.2,15.4-1.5,22
		c0.3,4.1,1.8,8.8,5.9,9.6c0.8,0.2,1.8,0.3,2.8,0.3c-0.2,9.7,0,13.3-0.1,14.3c5.4,0,9.1,0,14.4,0c5.4,0,8.4,0,15.4,0l0-13.5
		c3.2-0.4,5.6-1.1,6.1-2.1C78.3,64.1,78.6,42.5,76.7,38.7z"/>
	<path id="XMLID_581_" class="st5" d="M69.1,47.6c0,0-1.1,7-1.6,11.1c-0.2,0.2-2.3,0.9-2.3,0.9S66.8,55.9,69.1,47.6z"/>
	<path id="XMLID_580_" class="st6" d="M47.1,72.6l-1.4,0c0.1,0.4,0.1,0.9,0.1,1.3c0,1.3-0.4,2.6-1,3.6c-0.8,1.3-2,2.2-3.4,2.7
		c0.4,0.1,1.1,0.4,1.9,0.6c2.4-1.4,4-4,3.9-7C47.3,73.5,47.2,73,47.1,72.6z"/>
	<path id="XMLID_579_" class="st7" d="M54.3,27.5c0,0-2.2-0.6-5.1-2.2V28c0.8,0.5,2.1,1.3,2.9,1.9c0.4,0.3,1.2,0.3,1.2,0.3h3.1
		c0,0,0.8-0.1,1.2-0.3c0.7-0.5,1.5-1.1,2.3-1.7v-3C57,26.8,54.3,27.5,54.3,27.5z"/>
	<path id="XMLID_578_" class="st2" d="M65.1,13.7c-0.3-0.1-0.6-0.1-0.9,0.1c0.1-3.4,0.1-6.4-0.3-7.1c-2.4-3.7-5.2-5.4-9.3-5.5
		c0,0,0,0,0,0h0c-4.1,0.2-6.6,1.8-9,5.5c-0.4,0.7-0.5,3.9-0.5,7.3c-0.4-0.3-0.9-0.5-1.3-0.3c-0.9,0.3-1.2,1.8-0.7,3.3
		c0.4,1.3,1.4,2.2,2.2,2.3c0.1,1.7,0.2,3.1,0.2,4.1c0,0.7,0.6,1.6,0.9,1.8c2.3,1.6,4,2.7,5.4,3.6c0.4,0.2,1,0.3,1,0.3h3.3
		c0,0,0.8-0.1,1.1-0.3c1.4-0.8,3-2,5.3-3.5c0.3-0.2,1-1.1,1-1.8c0.1-1,0.2-2.5,0.3-4.2c0.7-0.2,1.5-1.1,1.9-2.2
		C66.3,15.5,66,14.1,65.1,13.7z"/>
	<path id="XMLID_577_" class="st8" d="M56.9,12.3c0.3-0.1,3.9-1,4.7,0.9c0.7,1.6-0.7-0.1-1.8-0.2c-1.3-0.2-1.7-0.2-2.8-0.1
		C56.6,12.8,56.5,12.4,56.9,12.3z"/>
	<path id="XMLID_576_" class="st8" d="M51.8,12.4c-0.3-0.1-3.8-1-4.6,0.7c-0.8,1.6,0.7-0.1,1.8-0.2c1.3-0.1,2.1,0,2.7,0
		C52.1,12.9,52.2,12.6,51.8,12.4z"/>
	<path id="XMLID_575_" class="st9" d="M52,15.3c-1.1,0.4-1.6,0.4-2.2,0.4c-0.9,0-1.7-0.3-1.7-0.9c0-0.6,0.8-1,1.7-1
		C50.7,13.9,51.9,14.9,52,15.3z"/>
	<ellipse id="XMLID_573_" class="st10" cx="49.8" cy="14.8" rx="0.9" ry="0.9"/>
	<ellipse id="XMLID_572_" cx="49.8" cy="14.8" rx="0.6" ry="0.6"/>
	<ellipse id="XMLID_571_" class="st9" cx="50.4" cy="14.8" rx="0.3" ry="0.2"/>
	<path id="XMLID_570_" class="st7" d="M52,15.3c0,0-0.3-0.5-1.6-0.9c-0.9-0.3-2.2,0.1-2.3,0.8c-0.4-0.3-0.4-0.8,0.6-1.1
		c1.1-0.4,2.4-0.1,3.1,1C51.9,15.1,52,15.2,52,15.3z"/>
	<path id="XMLID_569_" class="st9" d="M56.9,15.3c1.1,0.4,1.5,0.4,2.2,0.4c0.9,0,1.7-0.2,1.7-0.8s-0.8-1-1.7-1
		C58.2,13.9,57,14.9,56.9,15.3z"/>
	<ellipse id="XMLID_568_" class="st10" cx="59" cy="14.8" rx="0.9" ry="0.9"/>
	<ellipse id="XMLID_567_" cx="59" cy="14.8" rx="0.6" ry="0.6"/>
	<ellipse id="XMLID_566_" class="st9" cx="59.6" cy="14.7" rx="0.3" ry="0.2"/>
	<path id="XMLID_565_" class="st7" d="M56.9,15.3c0,0,0.3-0.5,1.6-0.9c0.9-0.3,2.2,0.1,2.3,0.8c0.4-0.3,0.3-0.8-0.6-1.2
		c-1.1-0.4-2.3-0.1-3.1,1C56.9,15.1,56.9,15.2,56.9,15.3z"/>
	<path id="XMLID_564_" class="st7" d="M55.1,20.3h-1.4c-0.5,0-0.9-0.3-1-0.8c0,0.1-0.1,0.3-0.1,0.4c0,0.7,0.8,0.9,1.5,0.9h0.8
		c0.6,0,1.5-0.2,1.5-0.9c0-0.2,0-0.3-0.1-0.4C56,19.9,55.6,20.3,55.1,20.3z"/>
	<path id="XMLID_563_" class="st7" d="M43.2,14.9c0-0.1,0.2-0.7,0.5-0.6c0.5,0.1,0.8,1,0.9,1.9c0.2,0.9,0.1,1.5,0,1.3
		c-0.1-0.3-0.3-1.4-0.8-2.4C43.5,14.4,43.3,15.8,43.2,14.9z"/>
	<path id="XMLID_562_" class="st7" d="M65.7,14.9c0-0.1-0.2-0.7-0.5-0.6c-0.5,0.1-0.8,1-0.9,1.9c-0.2,0.9-0.1,1.5,0,1.3
		c0.1-0.3,0.3-1.4,0.8-2.4C65.4,14.4,65.6,15.8,65.7,14.9z"/>
	<path id="XMLID_561_" class="st8" d="M61.9,1.7C60.4-1,51.6,0.1,48.8,0.9c-2.8,0.8-4.7,2.3-4.6,4.7c0.1,2.1,0.1,6.8,0.1,8
		c0.2,0,0.5,0.1,0.7,0.3l0.5,2.5l0.6-4c0,0-1.2-7.8,6.4-6.4c-1.1,0.6-3,2.6-3,2.6S54,7.7,55.7,7c1.7-0.7,0,1.5,0,1.5
		s3.4-1.3,4.5-1.6c1.1-0.4,2.1-0.1,2.3,1.7c0.2,1.8,0.7,8.8,0.7,8.8l1.2-3.7c0.1,0,0.2,0,0.3,0c0-0.7,0.1-1.7,0.1-2.8
		C65.4-0.1,63.1,3.7,61.9,1.7z"/>
	<g id="XMLID_658_">
		<path id="XMLID_560_" class="st11" d="M51.8,23.4c0.1,0.3,0.6,1.2,0.9,1.2h3.2c0.3,0,0.9-0.8,0.9-1.2H51.8z"/>
		<path id="XMLID_559_" class="st12" d="M55.8,23.6c-0.7-0.1-2.9,0-3.2,0c-0.9,0-1.4-0.5-1.4-0.6c0.1-0.2,0.2-0.1,0.3,0
			c0.1,0.1,0.7,0.1,1,0c1.5-0.3,1.1,0,1.8,0c0.7,0,0.4-0.3,1.7,0c0.4,0.1,1,0.2,1.2,0.1c0.1-0.1,0.3-0.2,0.3,0
			C57.5,23.3,56.9,23.7,55.8,23.6z"/>
	</g>
	<path id="XMLID_558_" class="st13" d="M53.2,15.6c0,0.8-0.7,1.5-1.5,1.5h-3.5c-0.8,0-1.5-0.7-1.5-1.5v-1.4c0-0.8,0.7-1.5,1.5-1.5
		h3.5c0.8,0,1.5,0.7,1.5,1.5V15.6z"/>
	<path id="XMLID_556_" class="st13" d="M61.9,15.6c0,0.8-0.7,1.5-1.5,1.5h-3.5c-0.8,0-1.5-0.7-1.5-1.5v-1.4c0-0.8,0.7-1.5,1.5-1.5
		h3.5c0.8,0,1.5,0.7,1.5,1.5V15.6z"/>
	<path id="XMLID_652_" class="st14" d="M64.7,13.2l-2.8,0.1c-0.3-0.5-0.7-0.8-1.3-0.8h-3.8c-0.8,0-1.5,0.7-1.5,1.5v0.3
		c-0.2-0.1-1.7,0-1.9,0V14c0-0.8-0.7-1.5-1.5-1.5h-3.8c-0.6,0-1.1,0.3-1.3,0.8l-2.4-0.1v0.5l2.3,0.9v1.2c0,0.8,0.7,1.5,1.5,1.5h3.8
		c0.8,0,1.5-0.7,1.5-1.5v-0.9c0.2-0.1,1.7,0,1.9,0v0.9c0,0.8,0.7,1.5,1.5,1.5h3.8c0.8,0,1.5-0.7,1.5-1.5v-1.3l2.6-0.9V13.2z
		 M52.9,15.7c0,0.7-0.6,1.3-1.3,1.3h-3.3c-0.7,0-1.3-0.6-1.3-1.3v-1.6c0-0.7,0.6-1.3,1.3-1.3h3.3c0.7,0,1.3,0.6,1.3,1.3V15.7z
		 M61.6,15.7c0,0.7-0.6,1.3-1.3,1.3H57c-0.7,0-1.3-0.6-1.3-1.3v-0.7c0,0,0,0,0,0c0,0,0,0,0,0v-0.8c0-0.7,0.6-1.3,1.3-1.3h3.3
		c0.7,0,1.3,0.6,1.3,1.3V15.7z"/>
	<path id="XMLID_552_" class="st5" d="M40.9,47.7c0,0,0.5,5.8,0.7,7c0.2,1.2,0.9,5.7,0.9,5.7l3.9-0.2C46.3,60.2,42.8,56.4,40.9,47.7
		z"/>
	<path id="XMLID_551_" class="st15" d="M54.5,59.2c0.2,0,0.3-0.1,0.5-0.1l1.9-7.6L55.6,41l1.6-2.3l-0.9-2.6L53,36l-0.9,2.8l1.5,2.1
		l-1.5,8.9L54.5,59.2z"/>
	<g id="XMLID_647_">
		<path id="XMLID_550_" class="st6" d="M58.5,58.6l5.6-10.5l-0.7-3.6l3.5-0.6l-0.6-9.3l-2.7-0.4c-0.4-0.2-0.8-0.4-1.2-0.6L61,35.5
			l-6,23.6C56,58.9,57.2,58.8,58.5,58.6z"/>
		<path id="XMLID_549_" class="st6" d="M45.6,48l6.1,11.7c0.9-0.1,1.8-0.3,2.8-0.4l-6-23.7l-1.4-2c-0.4,0.3-0.8,0.5-1.2,0.6
			l-2.6,0.3l-0.5,9.3l3.5,0.6L45.6,48z"/>
	</g>
	<path id="XMLID_548_" class="st2" d="M39.5,59l1.6,1.4c3.1,0.2,5.5,0,9.4-0.6c-1.5-1.8-1.7-2.1-2-2.3l-4.8-4.2
		c-0.6-0.5-1.3-0.7-1.7-0.3c-0.3,0.4-0.1,1.1,0.5,1.6l3.8,3.4L46.2,58L42,54.3c-0.6-0.5-1.3-0.7-1.7-0.3c-0.3,0.4-0.1,1.1,0.5,1.6
		l4,3.5l-0.1,0.1l-4-3.5c-0.6-0.5-1.3-0.6-1.6-0.3c-0.3,0.3-0.1,1,0.5,1.5l3.8,3.3l-0.1,0.1l-2.9-2.5c-0.6-0.5-1.3-0.6-1.6-0.3
		C38.7,57.8,39,58.5,39.5,59z"/>
	<path id="XMLID_547_" class="st5" d="M50.4,69.9c-3.8,0.4-7.7,0.6-10.7,0.5V74l8.9-2.1L69.5,74v-2.8C62.5,72,52,71.5,50.4,69.9z"/>
	<path id="XMLID_546_" class="st6" d="M64.5,77.4c-0.7-1-1.1-2.3-1.1-3.6c0-0.2,0-0.3,0-0.4l-1.4-0.1c0,0.2,0,0.4,0,0.6
		c0,3,1.6,5.6,4.1,6.9c0.8-0.2,1.3-0.4,1.9-0.7C66.5,79.6,65.3,78.7,64.5,77.4z"/>
	<path id="XMLID_545_" class="st5" d="M47,70.3c0,0,10.6-0.9,14.9-2.7c0.5-0.2,0.4-2.2,0.4-3.1c0.3,1,0.9,3.5,0.2,4.1
		C60.6,70,51.8,70.7,47,70.3z"/>
	
		<rect id="XMLID_544_" x="61.1" y="58.1" transform="matrix(0.9377 -0.3475 0.3475 0.9377 -17.4161 25.3448)" class="st9" width="1.8" height="6.3"/>
	<path id="XMLID_543_" class="st2" d="M67.5,58.6l-4.9-0.4c-0.3,0-0.5,0-0.7,0.1l2,5.5c1.9-0.8,2.7-1.4,3-2.4
		C67.1,61,67.3,59.9,67.5,58.6C67.5,58.6,67.5,58.6,67.5,58.6z"/>
	<path id="XMLID_542_" class="st5" d="M54.2,72.3v10.2c0.1,0,0.2,0,0.3,0c0,0,0.1,0,0.1,0V72.3H54.2z"/>
	<g id="XMLID_635_">
		<circle id="XMLID_541_" class="st6" cx="56.4" cy="77.6" r="0.9"/>
		<g id="XMLID_636_">
			<circle id="XMLID_540_" class="st4" cx="56.7" cy="77.6" r="0.1"/>
			<circle id="XMLID_539_" class="st4" cx="56.1" cy="77.6" r="0.1"/>
		</g>
	</g>
	<polygon id="XMLID_538_" class="st9" points="48.9,31 54.7,36 50.5,40.2 46.3,33.8 	"/>
	<polygon id="XMLID_536_" class="st9" points="60.5,31 54.7,36 59,40.2 63.1,33.8 	"/>
</g>
</svg>
