<?xml version="1.0" encoding="utf-8"?>
<!-- Generator: Adobe Illustrator 19.0.0, SVG Export Plug-In . SVG Version: 6.00 Build 0)  -->
<svg version="1.1" id="Layer_1" xmlns="http://www.w3.org/2000/svg" xmlns:xlink="http://www.w3.org/1999/xlink" x="0px" y="0px"
	 viewBox="0 0 108 88.5" style="enable-background:new 0 0 108 88.5;" xml:space="preserve">
<style type="text/css">
	.st0{fill:#18A999;}
	.st1{fill:#4D4D4D;}
	.st2{fill:#FCC397;}
	.st3{fill:#E5E5E5;}
	.st4{fill:#515151;}
	.st5{fill:#BB0202;}
	.st6{fill:#333333;}
	.st7{fill:#FFFFFF;}
	.st8{fill:#EA9F6C;}
	.st9{fill:#663412;}
	.st10{fill:#7B9368;}
	.st11{fill:#EA8C63;}
	.st12{fill:#D87350;}
	.st13{fill:#6B3A25;}
	.st14{fill:#663623;}
	.st15{fill:#9B4E34;}
	.st16{fill:#828281;}
	.st17{fill:#B77641;}
	.st18{fill:#A3A3A3;}
	.st19{fill:#212121;}
</style>
<g id="XMLID_690_">
	<rect id="XMLID_648_" x="2.5" y="24.7" class="st0" width="101.7" height="61.7"/>
	<path id="XMLID_630_" class="st1" d="M108,25.7c0-4-3.2-7.2-7.2-7.2H7.2c-4,0-7.2,3.2-7.2,7.2v55.6c0,4,3.2,7.2,7.2,7.2h93.6
		c4,0,7.2-3.2,7.2-7.2V25.7z M104,84.5H4v-60h100V84.5z"/>
</g>
<g id="XMLID_691_">
	<path id="XMLID_732_" class="st2" d="M76.7,39.4c-0.7-2.2-2.8-3.8-5.2-3.8l-8.3-1c-1.5-0.6-2.9-2.1-3.2-3.2l-0.1-4.2
		c-0.9,0.7-7.8,2.7-10.9-0.7l-0.2,5c-0.4,1.1-1.8,2.4-3.3,3l-8.3,1c-2.7,0-5,2-5.4,4.6c0,0.1,0,0.2,0,0.3c0,0.1,0,0.1,0,0.2
		c0,0,0,0.1,0,0.1l8.1,6.6l3,9.6h23.3l3.2-10.4H70L76.7,39.4z"/>
	<rect id="XMLID_628_" x="46.9" y="37.1" class="st3" width="14" height="25.8"/>
	<path id="XMLID_627_" class="st4" d="M66.7,44.4L66.2,35l-2.8-0.3c-0.4-0.2-0.8-0.4-1.2-0.6l-1.5,2l-6.3,24.9l-6.4-25l-1.5-2
		c-0.4,0.3-0.8,0.5-1.2,0.6l-2.6,0.3l-0.5,9.4l3.6,0.6l-0.7,3.7l8.8,16.8l10-16.7L63.2,45L66.7,44.4z"/>
	<polygon id="XMLID_626_" class="st5" points="51.7,50.4 54.4,60.9 56.6,52.1 55.3,41.5 56.9,39.1 55.9,36.5 52.6,36.4 51.8,39.2 
		53.3,41.4 	"/>
	<path id="XMLID_625_" class="st6" d="M69,70.8L69.9,49l1.6-13.4l-8.3-1c-0.3-0.1-1.5-0.3-1.8-0.5L54.4,61l-7.1-27.7
		c-0.6,0.5-1.3,1-2,1.3l-4.6,0.6l-2.2,13.4c0,0,0,0,0-0.1l0.9,22.9l0,0.1l-0.6,14.8c5.3,0.1,10.4,0.3,15.7,0.3
		c5.5,0,9.7,0.4,14.9-0.1L69,70.8z"/>
	<polygon id="XMLID_624_" class="st7" points="48.5,31.4 54.4,36.4 50.1,40.7 45.9,34.2 	"/>
	<path id="XMLID_623_" class="st2" d="M44.4,78.5C44.4,78.5,44.4,78.5,44.4,78.5c-1.1-1.8-0.8-1.3-1.4-2.1c-0.7-1.1-2.2-1.4-3.2-0.7
		c-2.6,1.7-2.2,1.4-2.4,1.6c-0.3,0.7-0.5,1.4-0.5,2.2c1.3,0.6,2.6,1.2,4,1.7C42.4,80.7,43.6,79.8,44.4,78.5z"/>
	<polygon id="XMLID_622_" class="st7" points="60.2,31.4 54.4,36.4 58.7,40.7 62.9,34.2 	"/>
	<path id="XMLID_621_" class="st4" d="M46.7,73.5l-1.4,0c0.1,0.4,0.1,0.9,0.1,1.3c0,1.3-0.4,2.6-1,3.7c-0.8,1.3-2,2.3-3.5,2.8
		c0.4,0.1,1.2,0.4,1.9,0.6c2.4-1.4,4-4.1,4-7.1C46.8,74.4,46.8,73.9,46.7,73.5z"/>
	<path id="XMLID_620_" class="st4" d="M64.2,78.3c-0.7-1-1.1-2.3-1.1-3.6c0-0.5,0-0.9,0.1-1.3h-1.4c-0.1,0.4-0.1,0.9-0.1,1.3
		c0,3,1.7,5.6,4.1,7c0.8-0.3,1.3-0.5,1.9-0.7C66.3,80.6,65.1,79.6,64.2,78.3z"/>
	<path id="XMLID_619_" class="st8" d="M54,27.9c0,0-2.2-0.6-5.1-2.2v2.7c0.8,0.5,2.1,1.3,2.9,1.9c0.4,0.3,1.3,0.4,1.3,0.4h3.2
		c0,0,0.8-0.1,1.3-0.3c0.7-0.5,1.5-1.1,2.4-1.7v-3C56.7,27.1,54,27.9,54,27.9z"/>
	<path id="XMLID_618_" class="st2" d="M64.9,13.9c-0.3-0.1-0.6-0.1-0.9,0.1c0.1-3.4,0.1-6.5-0.3-7.2c-2.4-3.8-5.2-5.4-9.4-5.6
		c0,0,0,0,0,0l0,0c-4.2,0.2-6.7,1.8-9.1,5.6c-0.4,0.7-0.5,3.9-0.5,7.4c-0.4-0.3-0.9-0.5-1.3-0.3c-0.9,0.3-1.2,1.8-0.7,3.4
		c0.5,1.3,1.4,2.3,2.2,2.3c0.1,1.8,0.2,3.4,0.2,4.4c0,0.6,0.6,1.4,0.9,1.6c2.4,1.6,4,2.7,5.5,3.6c0.4,0.2,1,0.3,1,0.3h3.4
		c0,0,0.8-0.1,1.1-0.3c1.5-0.9,3.2-2.1,5.7-3.7c0.2-0.1,0.7-0.8,0.7-1.3c0.1-1,0.2-2.6,0.3-4.5c0.7-0.2,1.5-1.1,1.9-2.2
		C66.1,15.7,65.8,14.2,64.9,13.9z"/>
	<path id="XMLID_617_" class="st9" d="M56.6,12.7c0.3-0.2,3.8-1.5,4.9,0.3c0.9,1.5-0.8,0-1.9,0c-1.4,0-1.7,0.1-2.8,0.2
		C56.4,13.3,56.2,13,56.6,12.7z"/>
	<path id="XMLID_616_" class="st9" d="M51.5,12.8c-0.3-0.2-3.7-1.4-4.7,0.3c-0.9,1.5,0.7,0,1.8,0c1.3,0,2.1,0.2,2.7,0.2
		C51.7,13.3,51.8,13,51.5,12.8z"/>
	<path id="XMLID_615_" class="st7" d="M51.6,15.5c-1.2,0.4-1.7,0.4-2.2,0.4c-0.9,0-1.7-0.3-1.7-0.9c0-0.6,0.8-1,1.7-1
		C50.3,14,51.5,15.1,51.6,15.5z"/>
	<ellipse id="XMLID_614_" class="st10" cx="49.4" cy="15" rx="0.9" ry="0.9"/>
	<ellipse id="XMLID_613_" cx="49.5" cy="15" rx="0.6" ry="0.6"/>
	<ellipse id="XMLID_612_" class="st7" cx="50" cy="15" rx="0.3" ry="0.2"/>
	<path id="XMLID_611_" class="st8" d="M51.6,15.5c0,0-0.3-0.5-1.6-0.9c-0.9-0.3-2.3,0.1-2.3,0.8c-0.4-0.3-0.4-0.8,0.6-1.1
		c1.1-0.4,2.4-0.1,3.2,1C51.6,15.3,51.6,15.4,51.6,15.5z"/>
	<path id="XMLID_610_" class="st7" d="M56.6,15.5c1.2,0.4,1.5,0.4,2.2,0.4c0.9,0,1.7-0.3,1.7-0.8c0-0.6-0.8-1-1.7-1
		C57.9,14,56.7,15.1,56.6,15.5z"/>
	<ellipse id="XMLID_609_" class="st10" cx="58.7" cy="15" rx="0.9" ry="0.9"/>
	<ellipse id="XMLID_608_" cx="58.7" cy="15" rx="0.6" ry="0.6"/>
	<ellipse id="XMLID_607_" class="st7" cx="59.3" cy="14.9" rx="0.3" ry="0.2"/>
	<path id="XMLID_606_" class="st8" d="M56.6,15.5c0,0,0.3-0.5,1.6-0.9c0.9-0.3,2.3,0.1,2.3,0.8c0.4-0.3,0.3-0.8-0.6-1.2
		c-1.1-0.4-2.3-0.1-3.1,1C56.6,15.3,56.6,15.4,56.6,15.5z"/>
	<path id="XMLID_605_" class="st8" d="M54.8,20.5h-1.5c-0.5,0-0.9-0.3-1.1-0.8c0,0.1-0.1,0.3-0.1,0.5c0,0.7,0.8,0.9,1.5,0.9h0.8
		c0.6,0,1.5-0.2,1.5-0.9c0-0.2,0-0.3-0.1-0.5C55.7,20.2,55.2,20.5,54.8,20.5z"/>
	<path id="XMLID_604_" class="st8" d="M42.7,15c0-0.1,0.2-0.7,0.5-0.6c0.5,0.1,0.8,1.1,1,2c0.2,0.9,0.1,1.6,0,1.3
		c-0.1-0.3-0.3-1.4-0.8-2.5C43,14.6,42.8,16,42.7,15z"/>
	<path id="XMLID_603_" class="st8" d="M65.5,15c0-0.1-0.2-0.7-0.5-0.6c-0.5,0.1-0.8,1.1-1,2c-0.2,0.9-0.1,1.6,0,1.3
		c0.1-0.3,0.3-1.4,0.8-2.5C65.2,14.6,65.4,16,65.5,15z"/>
	<path id="XMLID_602_" class="st9" d="M61.7,1.7C60.1-1,51.2,0.1,48.4,0.9c-2.8,0.8-4.7,2.4-4.6,4.8c0.1,2.1,0.1,6.9,0.1,8.1
		c0.2,0,0.5,0.1,0.7,0.3l0.6,2.6l0.6-4c0,0-1.2-7.8,6.5-6.5c-1.1,0.6-3,2.6-3,2.6s4.5-1.1,6.3-1.8c1.8-0.7,0,1.5,0,1.5
		s3.4-1.3,4.5-1.7c1.1-0.4,2.2-0.1,2.4,1.8c0.2,1.9,0.7,8.9,0.7,8.9l1.2-3.7c0.1,0,0.2,0,0.3,0c0-0.7,0.1-1.7,0.1-2.8
		C65.2-0.1,62.9,3.8,61.7,1.7z"/>
	<g id="XMLID_702_">
		<path id="XMLID_601_" class="st11" d="M51.5,23.7c0.1,0.3,0.6,1.2,0.9,1.2h3.2c0.3,0,0.9-0.8,0.9-1.2H51.5z"/>
		<path id="XMLID_600_" class="st12" d="M55.5,23.9c-0.7-0.1-2.9,0-3.3,0c-0.9,0-1.4-0.5-1.4-0.6c0.1-0.2,0.2-0.1,0.3,0
			c0.1,0.1,0.7,0.1,1,0c1.5-0.3,1.1,0,1.8,0c0.7,0,0.4-0.3,1.7,0c0.4,0.1,1,0.2,1.3,0.1c0.1-0.1,0.3-0.2,0.3,0
			C57.3,23.6,56.6,24,55.5,23.9z"/>
	</g>
	
		<rect id="XMLID_599_" x="55.2" y="64.8" transform="matrix(0.9981 -6.098101e-002 6.098101e-002 0.9981 -4.3672 4.138)" class="st13" width="20.9" height="17.7"/>
	<path id="XMLID_698_" class="st14" d="M66.7,67l-3.2,0.2c-2.2,0.1-4.1-1.6-4.3-3.8l0-0.6c-0.1-2.2,1.6-4.1,3.8-4.3l3.2-0.2
		c2.2-0.1,4.1,1.6,4.3,3.8l0,0.6C70.6,65,68.9,66.9,66.7,67z M63.1,60.1c-1.4,0.1-2.4,1.3-2.3,2.7l0,0.6c0.1,1.4,1.3,2.4,2.7,2.3
		l3.2-0.2c1.4-0.1,2.4-1.3,2.3-2.7l0-0.6c-0.1-1.4-1.3-2.4-2.6-2.3L63.1,60.1z"/>
	<path id="XMLID_596_" class="st15" d="M73.7,75.3l-16.1,1c-1.8,0.1-3.4-1.3-3.5-3.1l-0.4-7c-0.1-1.8,1.3-3.4,3.1-3.5l16.1-1
		c1.8-0.1,3.4,1.3,3.5,3.1l0.4,7C76.9,73.6,75.5,75.2,73.7,75.3z"/>
	
		<rect id="XMLID_595_" x="64.1" y="74" transform="matrix(0.9981 -6.102051e-002 6.102051e-002 0.9981 -4.4861 4.1438)" class="st16" width="3" height="3"/>
	<path id="XMLID_594_" class="st2" d="M66.8,75.2c-0.4,0.2-1.4,0.6-3,2.1c-0.5,0.4-2.3,1.6-4.1,1.6c0,0-0.2,1.1,1.3,1.3
		c1.4,0.2,2.7-0.4,2.7-0.4s1.2-0.6,1.8,0c0.5,0.4,0.6,1.1-0.8,2.7L63,82.6c0,0-0.2,0.6,0.3,0.9c0.5,0.3,1.2,0.8,1.2,0.8
		s0.6,0.7,1.4-0.2l0,0c-0.1,0.3,0.2,0.5,0.5,0.7c0.4,0.2,0.9,0.1,1.1-0.3c1-1.8,1.4-2.4,0.3-0.6c-0.2,0.3,0.1,0.4,0.4,0.6
		c0.3,0.2,0.7,0.1,0.9-0.2l0.4-0.7c0.4,0.3,0.7,0.2,0.9-0.1l1.3-2.2c0.2-0.4,0.3-2.2,0.1-4c-0.1-0.8-2.1-2.9-3.5-2.6
		C67.7,74.8,67.1,75,66.8,75.2z"/>
	<polygon id="XMLID_593_" class="st17" points="67.4,81.8 65.9,84.1 67.3,81.7 	"/>
	<polygon id="XMLID_592_" class="st17" points="69.2,81.8 67.8,84 69.1,81.7 	"/>
	<polygon id="XMLID_591_" class="st17" points="70.6,81.9 69.6,83.6 70.5,81.9 	"/>
	<path id="XMLID_590_" class="st17" d="M64.1,82.6c0.2,0.1,0.4,0.1,0.6-0.1L64.1,82.6L64.1,82.6z"/>
	<path id="XMLID_589_" class="st6" d="M73,77.2c2.9-2.6,9.9-13,9.8-18.7c-0.1-4.8-4.1-15.2-6.2-19.3c-0.8-2.1-2.8-3.6-5.2-3.6
		L69.9,49c2.3,4,4.8,9,4.8,11.5c0,1.8-4.4,9.1-6.5,13.2C68.2,73.7,71.7,78.8,73,77.2z"/>
	
		<rect id="XMLID_588_" x="67.1" y="75.3" transform="matrix(-0.8092 -0.5875 0.5875 -0.8092 82.2406 178.7918)" class="st7" width="6" height="1.5"/>
	<path id="XMLID_587_" class="st6" d="M39.6,71.4L39.6,71.4L39.6,71.4c-2.2-3.7-4.8-9.6-5.3-10.9c-1-2.4,1.6-8,4.3-12.1l2.2-13.4
		l-3.7,0.5c-3.9,0.1-4.9,3-5.1,3.4c-2.1,4-5.9,15.2-6,20.1c-0.1,5.7,7.1,16.2,10,18.8l4.9-3.8L39.6,71.4z"/>
	
		<rect id="XMLID_586_" x="35.9" y="75.7" transform="matrix(0.8092 -0.5875 0.5875 0.8092 -37.477 37.4515)" class="st7" width="6" height="1.5"/>
	<g id="XMLID_537_">
		<polygon id="XMLID_639_" class="st18" points="43.7,42.8 42.7,42.8 42.7,44.8 43.1,44.8 43.1,45.6 43.4,45.6 43.4,44.8 43.7,44.8 
					"/>
		<rect id="XMLID_638_" x="40.1" y="45.7" class="st19" width="7.1" height="4.4"/>
		<rect id="XMLID_637_" x="39.9" y="45.4" class="st7" width="7.1" height="4.4"/>
		<path id="XMLID_634_" class="st18" d="M45.5,46.9C45.5,47,45.4,47,45.5,46.9L41.9,47c0,0-0.1,0-0.1-0.1l0,0c0,0,0-0.1,0.1-0.1
			L45.5,46.9C45.4,46.8,45.5,46.9,45.5,46.9L45.5,46.9z"/>
		<path id="XMLID_633_" class="st18" d="M45.5,47.3C45.5,47.4,45.4,47.4,45.5,47.3l-3.6,0.1c0,0-0.1,0-0.1-0.1l0,0
			c0,0,0-0.1,0.1-0.1L45.5,47.3C45.4,47.3,45.5,47.3,45.5,47.3L45.5,47.3z"/>
		<path id="XMLID_631_" class="st18" d="M45.5,47.8C45.5,47.8,45.4,47.8,45.5,47.8l-3.6,0.1c0,0-0.1,0-0.1-0.1l0,0
			c0,0,0-0.1,0.1-0.1L45.5,47.8C45.4,47.7,45.5,47.7,45.5,47.8L45.5,47.8z"/>
	</g>
</g>
</svg>
