<?xml version="1.0" encoding="utf-8"?>
<!-- Generator: Adobe Illustrator 19.0.0, SVG Export Plug-In . SVG Version: 6.00 Build 0)  -->
<svg version="1.1" id="Layer_1" xmlns="http://www.w3.org/2000/svg" xmlns:xlink="http://www.w3.org/1999/xlink" x="0px" y="0px"
	 viewBox="0 0 220.6 173.5" style="enable-background:new 0 0 220.6 173.5;" xml:space="preserve">
<style type="text/css">
	.st0{fill:#F2F2F2;}
	.st1{fill:#4D4D4D;}
	.st2{fill:#FFFFFF;}
	.st3{fill:#757575;}
	.st4{fill:#494646;}
	.st5{fill:#A8A8A8;}
	.st6{fill:#DEDEDE;}
	.st7{fill-rule:evenodd;clip-rule:evenodd;fill:#FFDECC;}
	.st8{fill-rule:evenodd;clip-rule:evenodd;fill:#826C87;}
	.st9{fill-rule:evenodd;clip-rule:evenodd;fill:#FFDBBA;}
	.st10{opacity:0.2;}
	.st11{fill-rule:evenodd;clip-rule:evenodd;fill:#3C3C3B;}
	.st12{opacity:5.000000e-002;}
	.st13{opacity:0.1;fill-rule:evenodd;clip-rule:evenodd;}
	.st14{fill:#3C3C3B;}
	.st15{fill:#1D1D1B;}
	.st16{fill-rule:evenodd;clip-rule:evenodd;fill:#1D1D1B;}
	.st17{fill:#605343;}
	.st18{fill:#80604A;}
	.st19{opacity:0.2;fill:#FFFFFF;}
	.st20{fill:#F1F1F1;}
	.st21{fill:#826C87;}
	.st22{fill:#333333;}
	.st23{fill:#808080;}
	.st24{fill:#C0272D;}
	.st25{fill:#B2B2B2;}
	.st26{font-family:'Roboto-Regular';}
	.st27{font-size:1.6047px;}
	.st28{clip-path:url(#XMLID_585_);fill:#E5E5E5;}
	.st29{clip-path:url(#XMLID_585_);fill:#CBCBCB;}
	.st30{clip-path:url(#XMLID_585_);fill:#808080;}
	.st31{clip-path:url(#XMLID_585_);fill:#4D4D4D;}
	.st32{clip-path:url(#XMLID_585_);}
	.st33{fill:#B06333;}
	.st34{fill:#2E9E7E;}
	.st35{fill:#27866B;}
	.st36{fill:#B17341;}
	.st37{fill:#1A1A1A;}
	.st38{fill:#F4712D;}
	.st39{fill:#FDC4A0;}
	.st40{fill:#FED5B4;}
	.st41{fill:#FF8948;}
	.st42{fill:#A82227;}
	.st43{fill:#E5E5E5;}
	.st44{fill:#FFFFFF;stroke:#FFFFFF;stroke-miterlimit:10;}
	.st45{fill:#FFE1C1;}
	.st46{fill:#EDEDED;}
	.st47{fill:#C6C6C6;}
	.st48{fill-rule:evenodd;clip-rule:evenodd;fill:#80604A;}
	.st49{fill:#878787;}
	.st50{fill:#BF9741;}
	.st51{fill:#374E78;}
	.st52{fill:#634E42;}
</style>
<g id="XMLID_358_">
	<g id="XMLID_359_">
		<path id="XMLID_37_" class="st0" d="M165.8,81.4l-107.2,0c-4.4,0-7.9-3.5-7.9-7.9V7.9c0-4.4,3.5-7.9,7.9-7.9l107.2,0
			c4.4,0,7.9,3.5,7.9,7.9l0,65.5C173.7,77.8,170.1,81.4,165.8,81.4z"/>
	</g>
</g>
<g id="XMLID_355_">
	<g id="XMLID_356_">
		<path id="XMLID_36_" class="st1" d="M51,73.7v-66c0-4,3.3-7.3,7.3-7.3l107.8,0c4,0,7.3,3.3,7.3,7.3v66c0,4-3.3,7.3-7.3,7.3
			l-107.8,0C54.3,80.9,51,77.7,51,73.7z"/>
	</g>
</g>
<g id="XMLID_352_">
	<g id="XMLID_353_">
		<rect id="XMLID_121_" x="56.1" y="6.8" class="st2" width="112.1" height="67.7"/>
	</g>
</g>
<g id="XMLID_349_">
	<g id="XMLID_350_">
		<path id="XMLID_120_" class="st3" d="M193.3,103.2l-162.2,0c-3.2,0-5.1-0.7-4.1-1.5l22.9-20.6c0.5-0.4,2.7-0.8,5-0.8l114.8,0
			c2.3,0,4.5,0.3,5,0.8l22.9,20.6C198.3,102.6,196.5,103.2,193.3,103.2z"/>
	</g>
</g>
<path id="XMLID_119_" class="st4" d="M197.6,102.2c0,0.6-1.7,1.1-4.4,1.1l-162.2,0c-2.6,0-4.3-0.4-4.4-1.1h0v1.8l0,0.7
	c0,0.6,1.7,1.1,4.4,1.1l162.2,0c2.6,0,4.3-0.5,4.4-1.1l0-0.7L197.6,102.2L197.6,102.2z"/>
<path id="XMLID_118_" class="st5" d="M195.6,105.7c-0.7,0.1-1.5,0.2-2.4,0.2l-162.2,0c-0.9,0-1.7-0.1-2.4-0.2l-1.8,1.8
	c-0.9,0.9,0.9,1.7,4.1,1.7l162.2,0c3.2,0,5.1-0.8,4.1-1.7L195.6,105.7z"/>
<g id="XMLID_344_">
	<g id="XMLID_345_">
		<path id="XMLID_117_" class="st6" d="M180,93.7l-135.6,0c-0.9,0-1.5-0.2-1.3-0.4l11.5-11.3c0.2-0.1,0.9-0.3,1.7-0.3h112
			c0.8,0,1.5,0.1,1.7,0.3l11.5,11.3C181.5,93.5,180.9,93.7,180,93.7z"/>
	</g>
</g>
<g id="XMLID_341_">
	<g id="XMLID_342_">
		<path id="XMLID_116_" class="st6" d="M132.5,102l-40.6,0c-1.1,0-1.8-0.2-1.8-0.5l1.8-6.3c0.1-0.2,0.9-0.4,1.8-0.4l36.8,0
			c1,0,1.8,0.2,1.8,0.4l1.8,6.3C134.3,101.8,133.5,102,132.5,102z"/>
	</g>
</g>
<g id="XMLID_165_">
	<g id="XMLID_338_">
		<g id="XMLID_339_">
			<path id="XMLID_115_" class="st1" d="M58.4,88.1h-6.9c-0.4,0-0.9,0.1-1,0.2L49,89.9c-0.1,0.1,0.2,0.2,0.6,0.2h7.2h7.2
				c0.4,0,0.9-0.1,1-0.2l1.2-1.6c0.1-0.1-0.2-0.2-0.6-0.2H58.4z"/>
		</g>
	</g>
	<g id="XMLID_335_">
		<g id="XMLID_336_">
			<path id="XMLID_114_" class="st1" d="M74.2,90.1h-6.4c-0.4,0-0.7-0.1-0.7-0.2l1.1-1.7c0.1-0.1,0.5-0.2,0.9-0.2h6.2
				c0.4,0,0.7,0.1,0.7,0.2l-0.9,1.7C75,90,74.6,90.1,74.2,90.1z"/>
		</g>
	</g>
	<g id="XMLID_332_">
		<g id="XMLID_333_">
			<path id="XMLID_113_" class="st1" d="M84.5,90.1h-6.4c-0.4,0-0.8-0.1-0.7-0.2l0.9-1.7c0-0.1,0.4-0.2,0.9-0.2h6.2
				c0.4,0,0.7,0.1,0.7,0.2l-0.7,1.7C85.3,90,84.9,90.1,84.5,90.1z"/>
		</g>
	</g>
	<g id="XMLID_329_">
		<g id="XMLID_330_">
			<path id="XMLID_112_" class="st1" d="M94.8,90.1h-6.4c-0.4,0-0.8-0.1-0.7-0.2l0.6-1.7c0-0.1,0.4-0.2,0.8-0.2h6.2
				c0.4,0,0.8,0.1,0.7,0.2l-0.4,1.7C95.6,90,95.2,90.1,94.8,90.1z"/>
		</g>
	</g>
	<g id="XMLID_326_">
		<g id="XMLID_327_">
			<path id="XMLID_111_" class="st1" d="M115.4,90.1H109c-0.4,0-0.8-0.1-0.8-0.2l0.1-1.7c0-0.1,0.4-0.2,0.8-0.2h6.2
				c0.4,0,0.8,0.1,0.8,0.2l0.1,1.7C116.2,90,115.8,90.1,115.4,90.1z"/>
		</g>
	</g>
	<g id="XMLID_323_">
		<g id="XMLID_324_">
			<path id="XMLID_110_" class="st1" d="M105.1,90.1h-6.4c-0.4,0-0.8-0.1-0.8-0.2l0.4-1.7c0-0.1,0.4-0.2,0.8-0.2h6.2
				c0.4,0,0.8,0.1,0.8,0.2l-0.2,1.7C105.9,90,105.5,90.1,105.1,90.1z"/>
		</g>
	</g>
	<g id="XMLID_320_">
		<g id="XMLID_321_">
			<path id="XMLID_109_" class="st1" d="M125.6,90.1h-6.4c-0.4,0-0.8-0.1-0.8-0.2l-0.2-1.7c0-0.1,0.3-0.2,0.8-0.2h6.2
				c0.4,0,0.8,0.1,0.8,0.2l0.4,1.7C126.4,90,126.1,90.1,125.6,90.1z"/>
		</g>
	</g>
	<g id="XMLID_317_">
		<g id="XMLID_318_">
			<path id="XMLID_108_" class="st1" d="M135.9,90.1h-6.4c-0.4,0-0.8-0.1-0.8-0.2l-0.4-1.7c0-0.1,0.3-0.2,0.7-0.2h6.2
				c0.4,0,0.8,0.1,0.8,0.2l0.6,1.7C136.7,90,136.4,90.1,135.9,90.1z"/>
		</g>
	</g>
	<g id="XMLID_314_">
		<g id="XMLID_315_">
			<path id="XMLID_107_" class="st1" d="M146.2,90.1l-6.4,0c-0.4,0-0.8-0.1-0.9-0.2l-0.7-1.7c0-0.1,0.3-0.2,0.7-0.2h6.2
				c0.4,0,0.8,0.1,0.9,0.2l0.9,1.7C147,90,146.7,90.1,146.2,90.1z"/>
		</g>
	</g>
	<g id="XMLID_311_">
		<g id="XMLID_312_">
			<path id="XMLID_106_" class="st1" d="M156.5,90.1h-6.4c-0.4,0-0.8-0.1-0.9-0.2l-0.9-1.7c-0.1-0.1,0.3-0.2,0.7-0.2h6.2
				c0.4,0,0.8,0.1,0.9,0.2l1.1,1.7C157.3,90,157,90.1,156.5,90.1z"/>
		</g>
	</g>
	<g id="XMLID_308_">
		<g id="XMLID_309_">
			<path id="XMLID_105_" class="st1" d="M62.7,92.8h-5.8c-0.5,0-0.8-0.1-0.7-0.2l1.5-1.8c0.1-0.1,0.5-0.2,1-0.2h5.6
				c0.4,0,0.8,0.1,0.7,0.2l-1.3,1.8C63.6,92.8,63.1,92.8,62.7,92.8z"/>
		</g>
	</g>
	<g id="XMLID_305_">
		<g id="XMLID_306_">
			<path id="XMLID_104_" class="st1" d="M52.8,92.8h-5.9c-0.5,0-0.8-0.1-0.7-0.2l1.8-1.8c0.1-0.1,0.5-0.2,1-0.2h5.7
				c0.4,0,0.7,0.1,0.7,0.2l-1.6,1.8C53.7,92.8,53.2,92.8,52.8,92.8z"/>
		</g>
	</g>
	<g id="XMLID_302_">
		<g id="XMLID_303_">
			<path id="XMLID_103_" class="st1" d="M72.6,92.8h-5.8c-0.5,0-0.8-0.1-0.7-0.2l1.2-1.8c0.1-0.1,0.5-0.2,0.9-0.2h5.6
				c0.4,0,0.8,0.1,0.7,0.2l-1,1.8C73.5,92.8,73,92.8,72.6,92.8z"/>
		</g>
	</g>
	<g id="XMLID_299_">
		<g id="XMLID_300_">
			<path id="XMLID_102_" class="st1" d="M167.6,92.8h-5.8c-0.5,0-0.9-0.1-1-0.2l-1.3-1.8c-0.1-0.1,0.2-0.2,0.7-0.2h5.6
				c0.4,0,0.9,0.1,1,0.2l1.5,1.8C168.3,92.8,168,92.8,167.6,92.8z"/>
		</g>
	</g>
	<g id="XMLID_296_">
		<g id="XMLID_297_">
			<path id="XMLID_101_" class="st1" d="M157.7,92.8h-5.9c-0.5,0-0.9-0.1-0.9-0.2l-0.4-0.7c-0.1-0.1,0.3-0.2,0.7-0.2h5.8
				c0.5,0,0.9,0.1,1,0.2l0.5,0.7C158.5,92.8,158.1,92.8,157.7,92.8z"/>
		</g>
	</g>
	<g id="XMLID_293_">
		<g id="XMLID_294_">
			<path id="XMLID_100_" class="st1" d="M177.5,92.8h-5.8c-0.5,0-0.9-0.1-1-0.2l-0.6-0.7c-0.1-0.1,0.2-0.2,0.7-0.2h5.7
				c0.5,0,0.9,0.1,1,0.2l0.7,0.7C178.2,92.8,177.9,92.8,177.5,92.8z"/>
		</g>
	</g>
	<g id="XMLID_290_">
		<g id="XMLID_291_">
			<path id="XMLID_99_" class="st1" d="M83.3,92.8h-6.6c-0.5,0-0.8-0.1-0.7-0.2l1-1.8c0.1-0.1,0.5-0.2,0.9-0.2h6.4
				c0.4,0,0.8,0.1,0.7,0.2l-0.7,1.8C84.2,92.8,83.8,92.8,83.3,92.8z"/>
		</g>
	</g>
	<g id="XMLID_287_">
		<g id="XMLID_288_">
			<path id="XMLID_98_" class="st1" d="M147.7,92.8h-6.6c-0.5,0-0.9-0.1-0.9-0.2l-0.7-1.8c0-0.1,0.3-0.2,0.7-0.2h6.4
				c0.4,0,0.9,0.1,0.9,0.2l1,1.8C148.5,92.8,148.2,92.8,147.7,92.8z"/>
		</g>
	</g>
	<g id="XMLID_284_">
		<g id="XMLID_285_">
			<path id="XMLID_97_" class="st1" d="M165.9,88.1H159c-0.4,0-0.7,0.1-0.6,0.2l1.2,1.6c0.1,0.1,0.5,0.2,1,0.2h7.2h7.2
				c0.4,0,0.7-0.1,0.6-0.2l-1.6-1.6c-0.1-0.1-0.5-0.2-1-0.2H165.9z"/>
		</g>
	</g>
	<g id="XMLID_281_">
		<g id="XMLID_282_">
			<path id="XMLID_96_" class="st1" d="M58.3,85.6h-4.5c-0.4,0-0.8,0.1-0.9,0.2l-1.4,1.5c-0.1,0.1,0.2,0.2,0.6,0.2h4.6h4.6
				c0.4,0,0.8-0.1,0.9-0.2l1.2-1.5c0.1-0.1-0.2-0.2-0.6-0.2H58.3z"/>
		</g>
	</g>
	<g id="XMLID_250_">
		<g id="XMLID_278_">
			<g id="XMLID_279_">
				<path id="XMLID_95_" class="st1" d="M81.1,87.5H75c-0.4,0-0.7-0.1-0.7-0.2l0.9-1.5c0.1-0.1,0.4-0.2,0.8-0.2l5.9,0
					c0.4,0,0.7,0.1,0.7,0.2l-0.7,1.5C81.9,87.4,81.5,87.5,81.1,87.5z"/>
			</g>
		</g>
		<g id="XMLID_275_">
			<g id="XMLID_276_">
				<path id="XMLID_94_" class="st1" d="M71.2,87.5h-6.1c-0.4,0-0.7-0.1-0.6-0.2l1.2-1.5c0.1-0.1,0.5-0.2,0.9-0.2h5.9
					c0.4,0,0.7,0.1,0.7,0.2l-1,1.5C72,87.4,71.6,87.5,71.2,87.5z"/>
			</g>
		</g>
		<g id="XMLID_272_">
			<g id="XMLID_273_">
				<path id="XMLID_93_" class="st1" d="M91,87.5h-6.1c-0.4,0-0.7-0.1-0.7-0.2l0.7-1.5c0-0.1,0.4-0.2,0.8-0.2h5.9
					c0.4,0,0.7,0.1,0.7,0.2l-0.5,1.5C91.8,87.4,91.4,87.5,91,87.5z"/>
			</g>
		</g>
		<g id="XMLID_269_">
			<g id="XMLID_270_">
				<path id="XMLID_92_" class="st1" d="M100.9,87.5h-6.1c-0.4,0-0.8-0.1-0.7-0.2l0.4-1.5c0-0.1,0.4-0.2,0.8-0.2h5.9
					c0.4,0,0.7,0.1,0.7,0.2l-0.3,1.5C101.6,87.4,101.3,87.5,100.9,87.5z"/>
			</g>
		</g>
		<g id="XMLID_266_">
			<g id="XMLID_267_">
				<path id="XMLID_91_" class="st1" d="M120.6,87.5h-6.1c-0.4,0-0.8-0.1-0.8-0.2l0-1.5c0-0.1,0.3-0.2,0.7-0.2h5.9
					c0.4,0,0.8,0.1,0.8,0.2l0.2,1.5C121.4,87.4,121.1,87.5,120.6,87.5z"/>
			</g>
		</g>
		<g id="XMLID_263_">
			<g id="XMLID_264_">
				<path id="XMLID_90_" class="st1" d="M110.8,87.5h-6.1c-0.4,0-0.8-0.1-0.8-0.2l0.2-1.5c0-0.1,0.4-0.2,0.8-0.2h5.9
					c0.4,0,0.7,0.1,0.7,0.2l0,1.5C111.5,87.4,111.2,87.5,110.8,87.5z"/>
			</g>
		</g>
		<g id="XMLID_260_">
			<g id="XMLID_261_">
				<path id="XMLID_89_" class="st1" d="M130.5,87.5h-6.1c-0.4,0-0.8-0.1-0.8-0.2l-0.3-1.5c0-0.1,0.3-0.2,0.7-0.2h5.9
					c0.4,0,0.8,0.1,0.8,0.2l0.5,1.5C131.3,87.4,131,87.5,130.5,87.5z"/>
			</g>
		</g>
		<g id="XMLID_257_">
			<g id="XMLID_258_">
				<path id="XMLID_88_" class="st1" d="M140.4,87.5h-6.1c-0.4,0-0.8-0.1-0.8-0.2l-0.5-1.5c0-0.1,0.3-0.2,0.7-0.2h5.9
					c0.4,0,0.8,0.1,0.8,0.2l0.7,1.5C141.2,87.4,140.8,87.5,140.4,87.5z"/>
			</g>
		</g>
		<g id="XMLID_254_">
			<g id="XMLID_255_">
				<path id="XMLID_87_" class="st1" d="M150.3,87.5h-6.1c-0.4,0-0.8-0.1-0.9-0.2l-0.8-1.5c0-0.1,0.3-0.2,0.7-0.2h5.9
					c0.4,0,0.8,0.1,0.8,0.2l1,1.5C151,87.4,150.7,87.5,150.3,87.5z"/>
			</g>
		</g>
		<g id="XMLID_251_">
			<g id="XMLID_252_">
				<path id="XMLID_86_" class="st1" d="M160.2,87.5h-6.1c-0.4,0-0.8-0.1-0.9-0.2l-1-1.5c-0.1-0.1,0.2-0.2,0.6-0.2h5.9
					c0.4,0,0.8,0.1,0.9,0.2l1.2,1.5C160.9,87.4,160.6,87.5,160.2,87.5z"/>
			</g>
		</g>
	</g>
	<g id="XMLID_210_">
		<g id="XMLID_247_">
			<g id="XMLID_248_">
				<path id="XMLID_85_" class="st1" d="M70.7,82.9h-5.4c-0.4,0-0.7-0.1-0.6-0.1l0.4-0.5c0.1-0.1,0.4-0.1,0.8-0.1h5.3
					c0.4,0,0.7,0.1,0.6,0.1l-0.4,0.5C71.4,82.9,71.1,82.9,70.7,82.9z"/>
			</g>
		</g>
		<g id="XMLID_244_">
			<g id="XMLID_245_">
				<path id="XMLID_84_" class="st1" d="M61.8,82.9h-5.4c-0.4,0-0.7-0.1-0.6-0.1l0.5-0.5c0.1-0.1,0.4-0.1,0.8-0.1h5.3
					c0.4,0,0.7,0.1,0.6,0.1l-0.5,0.5C62.6,82.9,62.2,82.9,61.8,82.9z"/>
			</g>
		</g>
		<g id="XMLID_241_">
			<g id="XMLID_242_">
				<path id="XMLID_83_" class="st1" d="M79.5,82.9h-5.4c-0.4,0-0.7-0.1-0.6-0.1l0.4-0.5c0.1-0.1,0.4-0.1,0.8-0.1H80
					c0.4,0,0.7,0.1,0.6,0.1l-0.3,0.5C80.3,82.9,79.9,82.9,79.5,82.9z"/>
			</g>
		</g>
		<g id="XMLID_238_">
			<g id="XMLID_239_">
				<path id="XMLID_82_" class="st1" d="M88.4,82.9h-5.4c-0.4,0-0.7-0.1-0.6-0.1l0.3-0.5c0-0.1,0.4-0.1,0.8-0.1h5.3
					c0.4,0,0.7,0.1,0.7,0.1l-0.2,0.5C89.1,82.9,88.8,82.9,88.4,82.9z"/>
			</g>
		</g>
		<g id="XMLID_235_">
			<g id="XMLID_236_">
				<path id="XMLID_81_" class="st1" d="M106,82.9h-5.4c-0.4,0-0.7-0.1-0.7-0.1l0.1-0.5c0-0.1,0.3-0.1,0.7-0.1h5.3
					c0.4,0,0.7,0.1,0.7,0.1l0,0.5C106.8,82.9,106.4,82.9,106,82.9z"/>
			</g>
		</g>
		<g id="XMLID_232_">
			<g id="XMLID_233_">
				<path id="XMLID_80_" class="st1" d="M97.2,82.9h-5.4c-0.4,0-0.7-0.1-0.7-0.1l0.2-0.5c0-0.1,0.4-0.1,0.8-0.1h5.3
					c0.4,0,0.7,0.1,0.7,0.1l-0.1,0.5C97.9,82.9,97.6,82.9,97.2,82.9z"/>
			</g>
		</g>
		<g id="XMLID_229_">
			<g id="XMLID_230_">
				<path id="XMLID_79_" class="st1" d="M114.9,82.9h-5.4c-0.4,0-0.7-0.1-0.7-0.1l0-0.5c0-0.1,0.3-0.1,0.7-0.1h5.3
					c0.4,0,0.7,0.1,0.7,0.1l0,0.5C115.6,82.9,115.3,82.9,114.9,82.9z"/>
			</g>
		</g>
		<g id="XMLID_226_">
			<g id="XMLID_227_">
				<path id="XMLID_78_" class="st1" d="M123.7,82.9h-5.4c-0.4,0-0.7-0.1-0.7-0.1l0-0.5c0-0.1,0.3-0.1,0.7-0.1h5.3
					c0.4,0,0.7,0.1,0.7,0.1l0.1,0.5C124.4,82.9,124.1,82.9,123.7,82.9z"/>
			</g>
		</g>
		<g id="XMLID_223_">
			<g id="XMLID_224_">
				<path id="XMLID_77_" class="st1" d="M132.6,82.9h-5.4c-0.4,0-0.7-0.1-0.8-0.1l-0.1-0.5c0-0.1,0.3-0.1,0.7-0.1h5.3
					c0.4,0,0.7,0.1,0.8,0.1l0.2,0.5C133.3,82.9,133,82.9,132.6,82.9z"/>
			</g>
		</g>
		<g id="XMLID_220_">
			<g id="XMLID_221_">
				<path id="XMLID_76_" class="st1" d="M141.4,82.9H136c-0.4,0-0.7-0.1-0.8-0.1l-0.2-0.5c0-0.1,0.3-0.1,0.7-0.1h5.3
					c0.4,0,0.7,0.1,0.8,0.1l0.3,0.5C142.1,82.9,141.8,82.9,141.4,82.9z"/>
			</g>
		</g>
		<g id="XMLID_217_">
			<g id="XMLID_218_">
				<path id="XMLID_75_" class="st1" d="M150.3,82.9h-5.4c-0.4,0-0.8-0.1-0.8-0.1l-0.3-0.5c0-0.1,0.2-0.1,0.6-0.1h5.3
					c0.4,0,0.7,0.1,0.8,0.1l0.4,0.5C150.9,82.9,150.6,82.9,150.3,82.9z"/>
			</g>
		</g>
		<g id="XMLID_214_">
			<g id="XMLID_215_">
				<path id="XMLID_74_" class="st1" d="M159.1,82.9h-5.4c-0.4,0-0.8-0.1-0.8-0.1l-0.4-0.5c-0.1-0.1,0.2-0.1,0.6-0.1h5.3
					c0.4,0,0.8,0.1,0.8,0.1l0.4,0.5C159.8,82.9,159.5,82.9,159.1,82.9z"/>
			</g>
		</g>
		<g id="XMLID_211_">
			<g id="XMLID_212_">
				<path id="XMLID_73_" class="st1" d="M167.9,82.9h-5.4c-0.4,0-0.8-0.1-0.8-0.1l-0.5-0.5c-0.1-0.1,0.2-0.1,0.6-0.1h5.3
					c0.4,0,0.8,0.1,0.8,0.1l0.5,0.5C168.6,82.9,168.3,82.9,167.9,82.9z"/>
			</g>
		</g>
	</g>
	<g id="XMLID_207_">
		<g id="XMLID_208_">
			<path id="XMLID_72_" class="st1" d="M166.5,85.6h-4.1c-0.4,0-0.7,0.1-0.6,0.2l1.2,1.5c0.1,0.1,0.5,0.2,0.9,0.2l4.2,0h4.2
				c0.4,0,0.7-0.1,0.6-0.2l-1.4-1.5c-0.1-0.1-0.5-0.2-0.9-0.2H166.5z"/>
		</g>
	</g>
	<g id="XMLID_169_">
		<g id="XMLID_204_">
			<g id="XMLID_205_">
				<path id="XMLID_71_" class="st1" d="M60.3,83.4H56c-0.4,0-0.8,0.1-0.9,0.2l-1.3,1.4c-0.1,0.1,0.2,0.2,0.6,0.2h4.5H61
					c0.4,0,0.8-0.1,0.9-0.2l1.1-1.4c0.1-0.1-0.2-0.2-0.6-0.2H60.3z"/>
			</g>
		</g>
		<g id="XMLID_173_">
			<g id="XMLID_201_">
				<g id="XMLID_202_">
					<path id="XMLID_70_" class="st1" d="M80,85.1h-5.9c-0.4,0-0.7-0.1-0.6-0.2l0.9-1.4c0.1-0.1,0.4-0.1,0.8-0.1h5.7
						c0.4,0,0.7,0.1,0.6,0.1L80.9,85C80.8,85.1,80.4,85.1,80,85.1z"/>
				</g>
			</g>
			<g id="XMLID_198_">
				<g id="XMLID_199_">
					<path id="XMLID_69_" class="st1" d="M70.5,85.1h-5.9c-0.4,0-0.7-0.1-0.6-0.2l1.1-1.4c0.1-0.1,0.4-0.1,0.8-0.1h5.7
						c0.4,0,0.7,0.1,0.6,0.1l-1,1.4C71.3,85.1,70.9,85.1,70.5,85.1z"/>
				</g>
			</g>
			<g id="XMLID_195_">
				<g id="XMLID_196_">
					<path id="XMLID_68_" class="st1" d="M89.5,85.1h-5.9c-0.4,0-0.7-0.1-0.7-0.2l0.7-1.4c0-0.1,0.4-0.1,0.8-0.1h5.7
						c0.4,0,0.7,0.1,0.7,0.1L90.3,85C90.3,85.1,90,85.1,89.5,85.1z"/>
				</g>
			</g>
			<g id="XMLID_192_">
				<g id="XMLID_193_">
					<path id="XMLID_67_" class="st1" d="M99.1,85.1h-5.9c-0.4,0-0.7-0.1-0.7-0.2l0.5-1.4c0-0.1,0.4-0.1,0.8-0.1h5.7
						c0.4,0,0.7,0.1,0.7,0.1L99.8,85C99.8,85.1,99.5,85.1,99.1,85.1z"/>
				</g>
			</g>
			<g id="XMLID_189_">
				<g id="XMLID_190_">
					<path id="XMLID_66_" class="st1" d="M118.1,85.1h-5.9c-0.4,0-0.7-0.1-0.7-0.2l0-1.4c0-0.1,0.3-0.1,0.7-0.1h5.7
						c0.4,0,0.7,0.1,0.7,0.1l0.2,1.4C118.8,85.1,118.5,85.1,118.1,85.1z"/>
				</g>
			</g>
			<g id="XMLID_186_">
				<g id="XMLID_187_">
					<path id="XMLID_65_" class="st1" d="M108.6,85.1h-5.9c-0.4,0-0.7-0.1-0.7-0.2l0.2-1.4c0-0.1,0.3-0.1,0.7-0.1h5.7
						c0.4,0,0.7,0.1,0.7,0.1l-0.1,1.4C109.3,85.1,109,85.1,108.6,85.1z"/>
				</g>
			</g>
			<g id="XMLID_183_">
				<g id="XMLID_184_">
					<path id="XMLID_64_" class="st1" d="M127.6,85.1h-5.9c-0.4,0-0.8-0.1-0.8-0.2l-0.2-1.4c0-0.1,0.3-0.1,0.7-0.1h5.7
						c0.4,0,0.7,0.1,0.8,0.1l0.4,1.4C128.3,85.1,128,85.1,127.6,85.1z"/>
				</g>
			</g>
			<g id="XMLID_180_">
				<g id="XMLID_181_">
					<path id="XMLID_63_" class="st1" d="M137.1,85.1h-5.9c-0.4,0-0.8-0.1-0.8-0.2l-0.4-1.4c0-0.1,0.3-0.1,0.7-0.1h5.7
						c0.4,0,0.7,0.1,0.8,0.1l0.6,1.4C137.8,85.1,137.5,85.1,137.1,85.1z"/>
				</g>
			</g>
			<g id="XMLID_177_">
				<g id="XMLID_178_">
					<path id="XMLID_62_" class="st1" d="M146.6,85.1h-5.9c-0.4,0-0.8-0.1-0.8-0.2l-0.7-1.4c0-0.1,0.3-0.1,0.7-0.1h5.7
						c0.4,0,0.8,0.1,0.8,0.1l0.8,1.4C147.3,85.1,147,85.1,146.6,85.1z"/>
				</g>
			</g>
			<g id="XMLID_174_">
				<g id="XMLID_175_">
					<path id="XMLID_61_" class="st1" d="M156.1,85.1h-5.9c-0.4,0-0.8-0.1-0.8-0.2l-0.9-1.4c0-0.1,0.2-0.1,0.6-0.1h5.7
						c0.4,0,0.8,0.1,0.8,0.1l1.1,1.4C156.8,85.1,156.6,85.1,156.1,85.1z"/>
				</g>
			</g>
		</g>
		<g id="XMLID_170_">
			<g id="XMLID_171_">
				<path id="XMLID_60_" class="st1" d="M162.3,83.4h-3.9c-0.4,0-0.7,0.1-0.6,0.2l1.1,1.4c0.1,0.1,0.5,0.2,0.9,0.2h4h6.2
					c0.4,0,0.7-0.1,0.6-0.2l-1.3-1.4c-0.1-0.1-0.5-0.2-0.9-0.2H162.3z"/>
			</g>
		</g>
	</g>
	<g id="XMLID_166_">
		<g id="XMLID_167_">
			<path id="XMLID_59_" class="st1" d="M137,92.8H87.4c-0.5,0-0.8-0.1-0.8-0.2l0.7-1.8c0-0.1,0.4-0.2,0.9-0.2l48,0
				c0.4,0,0.8,0.1,0.9,0.2l0.7,1.8C137.8,92.8,137.4,92.8,137,92.8z"/>
		</g>
	</g>
</g>
<path id="XMLID_58_" class="st7" d="M114.8,35.4c7.4,3.2,9.6,5,10.5,5.7c1.3,1.2,2.1,12.3,2.9,16h-16.7H94.8
	c0.8-3.8,1.5-14.8,2.9-16c0.9-0.8,3-2.5,10.4-5.7L114.8,35.4z"/>
<path id="XMLID_57_" class="st8" d="M114.8,35.4c7.4,3.2,9.6,5,10.5,5.7c1.3,1.2,2.1,12.3,2.9,16h-16.7H94.8
	c0.8-3.8,1.5-14.8,2.9-16c0.9-0.8,3-2.5,10.4-5.7L114.8,35.4z"/>
<path id="XMLID_56_" class="st9" d="M115.1,28.9v5.5v2.7c-2,2.3-5.2,2.4-7.2,0v-2.7v-5.5C107.9,24.5,115.1,24.5,115.1,28.9z"/>
<ellipse id="XMLID_55_" transform="matrix(0.3128 -0.9498 0.9498 0.3128 56.8299 130.0607)" class="st9" cx="118.3" cy="25.8" rx="2.1" ry="1.2"/>
<ellipse id="XMLID_54_" transform="matrix(-0.3128 -0.9498 0.9498 -0.3128 112.9653 133.2459)" class="st9" cx="104.7" cy="25.8" rx="2.1" ry="1.2"/>
<path id="XMLID_53_" class="st10" d="M115.1,32.9v0.3c0,0-1.8,2.2-3.6,2.3c-1.7,0.1-3.6-2.1-3.6-2.1v-0.4"/>
<path id="XMLID_52_" class="st9" d="M111.5,14.2c11,0,6.8,15.1,6.1,16.3c-0.8,1.3-4.3,4.1-6.1,4.1c-1.8,0-5.3-2.8-6.1-4.1
	C104.7,29.3,100.4,14.2,111.5,14.2z"/>
<path id="XMLID_152_" class="st11" d="M108.4,28c-0.8,0-1.7-0.3-2-0.9c-0.5-0.9-0.7-2.7-0.1-3.1c0.3-0.2,1.1-0.3,2-0.2l0-0.3
	c-1.1-0.1-2.7,0.1-3,0.2c-0.3,0.1-0.4,0.2-0.4,0.4c0,0.3,0,0.5,0.3,0.6c0.3,0.1,0.3,0.5,0.5,1.6c0.2,1,0.6,1.8,2.4,2
	c0.1,0,0.1,0,0.2,0L108.4,28z M108.6,23.5c-0.1,0-0.1,0-0.2,0l0,0.3c0.9,0,1.9,0.3,2.2,0.8c0.6,0.8-0.3,2.8-1.1,3.3
	c-0.3,0.1-0.7,0.2-1.1,0.2l0,0.3c1.6,0,2.1-1.1,2.3-1.5c0.3-0.7,0.2-1.7,1.1-1.6c0.9,0,0.8,1,1.2,1.7c0.2,0.4,0.8,1.5,2.3,1.5l0-0.3
	c-0.4,0-0.7-0.1-1-0.2c-0.9-0.4-1.9-2.5-1.3-3.3c0.3-0.5,1.3-0.7,2.2-0.8l0-0.3c-0.1,0-0.2,0-0.3,0c-1.2,0.1-2.8,0.6-3.2,0.6
	C110.9,24,109.6,23.6,108.6,23.5z M115.2,23.8c0.9,0,1.7,0.1,2,0.2c0.6,0.4,0.5,2.2,0.1,3.1c-0.3,0.6-1.2,0.9-2,0.9l0,0.3
	c0.1,0,0.2,0,0.3,0c1.8-0.1,2.2-0.9,2.3-2c0.2-1.1,0.1-1.5,0.4-1.6c0.2-0.1,0.2-0.3,0.2-0.6c0-0.3,0-0.3-0.4-0.4
	c-0.3-0.1-1.8-0.2-2.9-0.2L115.2,23.8z"/>
<polyline id="XMLID_48_" class="st12" points="115.1,34.4 111.5,38.9 107.9,34.4 107.9,34.3 111.5,38.8 115.1,34.3 115.1,34.4 "/>
<polygon id="XMLID_47_" class="st13" points="112.1,41.9 110.8,41.9 110.8,41.9 112.2,41.9 "/>
<path id="XMLID_147_" class="st14" d="M104.3,25.5c0,0.2,0.1,0.4,0.1,0.6c0,0.1,0,0.2,0,0.4c0,0,0.1,0.1,0.1,0.1c0,0,0.2,0,0.2,0
	c0,0,0,0,0,0c0-0.3,0-0.9,0-0.9c0-0.4-0.1-0.7-0.2-1.1c0.4-2,0.6-3.7,2.1-6c0,0.3,1.2,1.7,2.5,1.7c0.8,0,1.9,0,2.6-0.3
	c1.9-0.8,2.6-2,4.6-1.3c0.1,0.1,0.7,0.8,0.8,1c1.2,2.2,0.9,2.3,1.3,4.5c-0.1,0.5,0,1,0,1.4c0,0,0,0.6,0,0.9c0,0,0,0,0,0
	c0,0,0.2,0.1,0.2,0c0,0,0.1-0.1,0.1-0.1c0,0,0-0.1,0-0.1c0,0,0,0,0,0c0.5-3.5,0.2-6.7,0.9-9.2c-1.8-2.5-9.3-6.8-13.1-3.4
	C102.6,14.7,103.7,23.3,104.3,25.5z M112.2,16.7c0.1,0,0.2,0,0.3-0.1C112.5,16.7,112.4,16.7,112.2,16.7
	C112.3,16.7,112.3,16.7,112.2,16.7z"/>
<g id="XMLID_129_">
	<path id="XMLID_44_" class="st15" d="M93,47.2c-0.1-0.2-0.1-0.4,0-0.6l-1.8,0.6c-0.7,0.3-1.5,0.8-2,1.5c-0.5,0.6-0.8,1.4-0.8,2.2
		l0.2,4.6c0.2-0.1,0.5-0.1,0.7-0.1c0.1,0,0.3,0,0.4,0l-0.2-4.6c0-0.5,0.2-1,0.5-1.4c0.4-0.5,1-0.9,1.5-1.1l1.8-0.6
		C93.2,47.6,93.1,47.4,93,47.2z"/>
	<path id="XMLID_43_" class="st16" d="M88.6,55.5c-1.3,0.3-2.2,1.5-2.2,2.9c0,1.6,1.3,3,3,3c1.6,0,3-1.3,3-3c0-1.5-1.1-2.7-2.5-2.9
		c-0.1,0-0.3,0-0.4,0C89.1,55.4,88.9,55.4,88.6,55.5z"/>
	<path id="XMLID_42_" class="st16" d="M99.7,44.9c-0.2-0.6-0.9-1-1.5-0.7l-4.4,1.6c-0.4,0.1-0.7,0.5-0.8,0.9c0,0.2,0,0.4,0,0.6
		c0.1,0.2,0.2,0.4,0.3,0.5c0.3,0.3,0.8,0.4,1.2,0.2l4.4-1.6C99.6,46.2,100,45.5,99.7,44.9z"/>
</g>
<polygon id="XMLID_41_" class="st17" points="112.2,64.9 111.6,64.9 95.5,64.9 97.3,74.5 111.6,74.5 112.2,74.5 126.8,74.5 
	128.7,64.9 "/>
<polygon id="XMLID_40_" class="st18" points="111.6,58.4 109.9,58.4 84.2,58.4 85.2,71.5 109.9,71.5 111.6,71.5 136.7,71.5 
	137.7,58.4 "/>
<polygon id="XMLID_39_" class="st17" points="112.4,56.9 111.5,56.9 87.3,56.9 87.3,58.4 111.5,58.4 112.4,58.4 136.9,58.4 
	136.9,56.9 "/>
<path id="XMLID_13_" class="st1" d="M69.6,12.8h22.5c0.7,0,1.3,0.6,1.3,1.3v15.2c0,0.7-0.6,1.3-1.3,1.3h-3.3
	c-0.4,1.8-0.5,4.9,2.7,6.8c0,0-5.1-1-7.3-6.8H69.6c-0.7,0-1.3-0.6-1.3-1.3V14.1C68.4,13.3,68.9,12.8,69.6,12.8z"/>
<path id="XMLID_153_" class="st19" d="M80.9,56.9v1.5h1.5l1.1,12.6h8.1l0.1,1.5c0.5-0.4,1.2-0.6,2-0.6c1.9,0,3,1.2,3.3,2.7
	c0.4-0.1,0.8-0.2,1.3-0.2c0.6,0,1.1,0.1,1.5,0.3c4-0.4,7.9-0.2,11.9-0.2c0,0,0.1,0,0.1,0V56.9H80.9z"/>
<g id="XMLID_6_">
	<rect id="XMLID_12_" x="71.6" y="15.6" class="st20" width="18.8" height="0.7"/>
	<rect id="XMLID_11_" x="71.6" y="18" class="st20" width="18.8" height="0.7"/>
	<rect id="XMLID_10_" x="71.6" y="20.3" class="st20" width="18.8" height="0.7"/>
	<rect id="XMLID_9_" x="71.6" y="22.7" class="st20" width="18.8" height="0.7"/>
	<rect id="XMLID_8_" x="71.6" y="25" class="st20" width="18.8" height="0.7"/>
	<rect id="XMLID_7_" x="71.6" y="27.3" class="st20" width="18.8" height="0.7"/>
</g>
<rect id="XMLID_172_" x="135" y="16" class="st21" width="30.9" height="19.4"/>
<rect id="XMLID_168_" x="135" y="35.5" class="st22" width="30.9" height="2.6"/>
<path id="XMLID_162_" class="st23" d="M160.5,36.8c0,0.3-0.3,0.6-0.7,0.6H141c-0.4,0-0.7-0.3-0.7-0.6l0,0c0-0.3,0.3-0.6,0.7-0.6
	h18.9C160.3,36.2,160.5,36.4,160.5,36.8L160.5,36.8z"/>
<path id="XMLID_161_" class="st24" d="M148,36.2h-7c-0.4,0-0.7,0.3-0.7,0.6c0,0.3,0.3,0.6,0.7,0.6h7V36.2z"/>
<g id="XMLID_158_">
	<rect id="XMLID_160_" x="136.2" y="36" class="st25" width="0.6" height="1.6"/>
	<rect id="XMLID_159_" x="137.3" y="36" class="st25" width="0.6" height="1.6"/>
</g>
<text id="XMLID_157_" transform="matrix(1.0906 0 0 1 162.2394 37.366)" class="st23 st26 st27">HD</text>
<g id="XMLID_15_">
	<defs>
		<rect id="XMLID_16_" x="135" y="13.7" width="30.9" height="21.8"/>
	</defs>
	<clipPath id="XMLID_585_">
		<use xlink:href="#XMLID_16_"  style="overflow:visible;"/>
	</clipPath>
	<path id="XMLID_156_" class="st28" d="M155.4,22.7L155.4,22.7c0,0,0.1-0.4,0.5-0.4l0,0v-0.8c-0.3-0.3-0.5-0.6-0.5-0.9
		c0,0-0.2,0.1-0.3-0.3c0,0,0-0.1-0.1-0.2c-0.1-0.1-0.1-0.5,0.1-0.6c0,0-0.3-1.2,0.2-1.9c0.5-0.7,1.8-0.6,1.8-0.6s1.3,0,1.8,0.6
		c0.5,0.7,0.2,1.9,0.2,1.9c0.2,0.1,0.2,0.5,0.1,0.6c-0.1,0.1-0.1,0.2-0.1,0.2c-0.1,0.4-0.3,0.3-0.3,0.3c0,0.3-0.3,0.6-0.5,0.9v0.8
		l0,0c0.4,0.1,0.5,0.4,0.5,0.4l0,0c3,0.3,2.7,5.4,2.7,5.4H157h-4.3C152.7,28.1,152.4,23,155.4,22.7z"/>
	<path id="XMLID_155_" class="st28" d="M148.8,22.7L148.8,22.7c0,0,0.1-0.4,0.5-0.4l0,0v-0.8c-0.3-0.3-0.5-0.6-0.5-0.9
		c0,0-0.2,0.1-0.3-0.3c0,0,0-0.1-0.1-0.2c-0.1-0.1-0.1-0.5,0.1-0.6c0,0-0.3-1.2,0.2-1.9c0.5-0.7,1.8-0.6,1.8-0.6s1.3,0,1.8,0.6
		c0.5,0.7,0.2,1.9,0.2,1.9c0.2,0.1,0.2,0.5,0.1,0.6c-0.1,0.1-0.1,0.2-0.1,0.2c-0.1,0.4-0.3,0.3-0.3,0.3c0,0.3-0.3,0.6-0.5,0.9v0.8
		l0,0c0.4,0.1,0.5,0.4,0.5,0.4l0,0c3,0.3,2.7,5.4,2.7,5.4h-4.3h-4.3C146.1,28.1,145.8,23,148.8,22.7z"/>
	<path id="XMLID_154_" class="st28" d="M142.2,22.7L142.2,22.7c0,0,0.1-0.4,0.5-0.4l0,0v-0.8c-0.3-0.3-0.5-0.6-0.5-0.9
		c0,0-0.2,0.1-0.3-0.3c0,0,0-0.1-0.1-0.2c-0.1-0.1-0.1-0.5,0.1-0.6c0,0-0.3-1.2,0.2-1.9c0.5-0.7,1.8-0.6,1.8-0.6s1.3,0,1.8,0.6
		c0.5,0.7,0.2,1.9,0.2,1.9c0.2,0.1,0.2,0.5,0.1,0.6c-0.1,0.1-0.1,0.2-0.1,0.2c-0.1,0.4-0.3,0.3-0.3,0.3c0,0.3-0.3,0.6-0.5,0.9v0.8
		l0,0c0.4,0.1,0.5,0.4,0.5,0.4l0,0c3,0.3,2.7,5.4,2.7,5.4h-4.3h-4.3C139.5,28.1,139.2,23,142.2,22.7z"/>
	<path id="XMLID_151_" class="st29" d="M159.2,25.5L159.2,25.5c0,0,0.1-0.4,0.5-0.4l0,0v-0.9c-0.3-0.3-0.6-0.6-0.6-0.9
		c0,0-0.2,0.1-0.3-0.3c0,0,0-0.1-0.1-0.3c-0.1-0.1-0.1-0.5,0.1-0.6c0,0-0.3-1.2,0.2-2c0.5-0.7,1.9-0.7,1.9-0.7s1.4-0.1,1.9,0.7
		c0.5,0.7,0.2,2,0.2,2c0.2,0.1,0.2,0.5,0.1,0.6c-0.1,0.1-0.1,0.3-0.1,0.3c-0.1,0.5-0.3,0.3-0.3,0.3c0,0.3-0.3,0.6-0.6,0.9v0.9l0,0
		c0.4,0.1,0.6,0.4,0.6,0.4l0,0c3.2,0.3,2.8,5.7,2.8,5.7h-4.5h-4.5C156.3,31.2,155.9,25.8,159.2,25.5z"/>
	<path id="XMLID_150_" class="st29" d="M152.2,25.5L152.2,25.5c0,0,0.1-0.4,0.5-0.4l0,0v-0.9c-0.3-0.3-0.6-0.6-0.6-0.9
		c0,0-0.2,0.1-0.3-0.3c0,0,0-0.1-0.1-0.3c-0.1-0.1-0.1-0.5,0.1-0.6c0,0-0.3-1.2,0.2-2c0.5-0.7,1.9-0.7,1.9-0.7s1.4-0.1,1.9,0.7
		c0.5,0.7,0.2,2,0.2,2c0.2,0.1,0.2,0.5,0.1,0.6c-0.1,0.1-0.1,0.3-0.1,0.3c-0.1,0.5-0.3,0.3-0.3,0.3c0,0.3-0.3,0.6-0.6,0.9v0.9l0,0
		c0.4,0.1,0.6,0.4,0.6,0.4l0,0c3.2,0.3,2.8,5.7,2.8,5.7h-4.5h-4.5C149.4,31.2,149,25.8,152.2,25.5z"/>
	<path id="XMLID_149_" class="st29" d="M145.3,25.5L145.3,25.5c0,0,0.1-0.4,0.5-0.4l0,0v-0.9c-0.3-0.3-0.6-0.6-0.6-0.9
		c0,0-0.2,0.1-0.3-0.3c0,0,0-0.1-0.1-0.3c-0.1-0.1-0.1-0.5,0.1-0.6c0,0-0.3-1.2,0.2-2c0.5-0.7,1.9-0.7,1.9-0.7s1.4-0.1,1.9,0.7
		c0.5,0.7,0.2,2,0.2,2c0.2,0.1,0.2,0.5,0.1,0.6C149,22.9,149,23,149,23c-0.1,0.5-0.3,0.3-0.3,0.3c0,0.3-0.3,0.6-0.6,0.9v0.9l0,0
		c0.4,0.1,0.6,0.4,0.6,0.4l0,0c3.2,0.3,2.8,5.7,2.8,5.7h-4.5h-4.5C142.4,31.2,142,25.8,145.3,25.5z"/>
	<path id="XMLID_148_" class="st29" d="M138.3,25.5L138.3,25.5c0,0,0.1-0.4,0.5-0.4l0,0v-0.9c-0.3-0.3-0.6-0.6-0.6-0.9
		c0,0-0.2,0.1-0.3-0.3c0,0,0-0.1-0.1-0.3c-0.1-0.1-0.1-0.5,0.1-0.6c0,0-0.3-1.2,0.2-2c0.5-0.7,1.9-0.7,1.9-0.7s1.4-0.1,1.9,0.7
		c0.5,0.7,0.2,2,0.2,2c0.2,0.1,0.2,0.5,0.1,0.6c-0.1,0.1-0.1,0.3-0.1,0.3c-0.1,0.5-0.3,0.3-0.3,0.3c0,0.3-0.3,0.6-0.6,0.9v0.9l0,0
		c0.4,0.1,0.6,0.4,0.6,0.4l0,0c3.2,0.3,2.8,5.7,2.8,5.7H140h-4.5C135.5,31.2,135.1,25.8,138.3,25.5z"/>
	<path id="XMLID_145_" class="st30" d="M156.1,27.5L156.1,27.5c-0.1-0.1,0.1-0.4,0.6-0.5l0,0v-0.9c-0.3-0.3-0.6-0.7-0.6-1
		c0,0-0.3,0.1-0.3-0.4c0,0,0-0.1-0.2-0.3c-0.1-0.1-0.1-0.6,0.1-0.7c0,0-0.4-1.3,0.2-2.1c0.6-0.8,2.1-0.7,2.1-0.7s1.5-0.1,2.1,0.7
		c0.6,0.8,0.2,2.1,0.2,2.1c0.2,0.1,0.2,0.6,0.1,0.7c-0.1,0.1-0.2,0.3-0.2,0.3c-0.1,0.5-0.3,0.4-0.3,0.4c0,0.3-0.3,0.7-0.6,1V27l0,0
		c0.4,0.1,0.6,0.4,0.6,0.4l-0.1,0.1c3.5,0.3,3,6.1,3,6.1h-4.9h-4.9C153.1,33.6,152.6,27.8,156.1,27.5z"/>
	<path id="XMLID_144_" class="st31" d="M148.6,27.5L148.6,27.5c-0.1-0.1,0.1-0.4,0.6-0.5l0,0v-0.9c-0.3-0.3-0.6-0.7-0.6-1
		c0,0-0.3,0.1-0.3-0.4c0,0,0-0.1-0.2-0.3c-0.1-0.1-0.1-0.6,0.1-0.7c0,0-0.4-1.3,0.2-2.1c0.6-0.8,2.1-0.7,2.1-0.7s1.5-0.1,2.1,0.7
		c0.6,0.8,0.2,2.1,0.2,2.1c0.2,0.1,0.2,0.6,0.1,0.7c-0.1,0.1-0.2,0.3-0.2,0.3c-0.1,0.5-0.3,0.4-0.3,0.4c0,0.3-0.3,0.7-0.6,1V27l0,0
		c0.4,0.1,0.6,0.4,0.6,0.4l-0.1,0.1c3.5,0.3,3,6.1,3,6.1h-4.9h-4.9C145.5,33.6,145.1,27.8,148.6,27.5z"/>
	<path id="XMLID_143_" class="st30" d="M141.1,27.5L141.1,27.5c-0.1-0.1,0.1-0.4,0.6-0.5l0,0v-0.9c-0.3-0.3-0.6-0.7-0.6-1
		c0,0-0.3,0.1-0.3-0.4c0,0,0-0.1-0.2-0.3c-0.1-0.1-0.1-0.6,0.1-0.7c0,0-0.4-1.3,0.2-2.1c0.6-0.8,2.1-0.7,2.1-0.7s1.5-0.1,2.1,0.7
		c0.6,0.8,0.2,2.1,0.2,2.1c0.2,0.1,0.2,0.6,0.1,0.7c-0.1,0.1-0.2,0.3-0.2,0.3c-0.1,0.5-0.3,0.4-0.3,0.4c0,0.3-0.3,0.7-0.6,1V27l0,0
		c0.4,0.1,0.6,0.4,0.6,0.4l-0.1,0.1c3.5,0.3,3,6.1,3,6.1h-4.9H138C138,33.6,137.6,27.8,141.1,27.5z"/>
	<path id="XMLID_141_" class="st31" d="M159.9,29.3L159.9,29.3c-0.1,0,0.1-0.4,0.6-0.5l0,0v-0.9c-0.3-0.3-0.6-0.7-0.6-1
		c0,0-0.3,0.1-0.3-0.4c0,0,0-0.1-0.2-0.3c-0.1-0.1-0.1-0.6,0.1-0.7c0,0-0.4-1.3,0.2-2.1c0.6-0.8,2.1-0.7,2.1-0.7s1.5-0.1,2.1,0.7
		c0.6,0.8,0.2,2.1,0.2,2.1c0.2,0.1,0.2,0.6,0.1,0.7c-0.1,0.1-0.2,0.3-0.2,0.3c-0.1,0.5-0.3,0.4-0.3,0.4c0,0.3-0.3,0.7-0.6,1v0.9l0,0
		c0.4,0.1,0.6,0.4,0.6,0.4l-0.1,0c3.5,0.3,3,6.1,3,6.1h-4.9h-4.9C156.8,35.5,156.4,29.7,159.9,29.3z"/>
	<path id="XMLID_140_" class="st31" d="M152.3,29.3L152.3,29.3c-0.1,0,0.1-0.4,0.6-0.5l0,0v-0.9c-0.3-0.3-0.6-0.7-0.6-1
		c0,0-0.3,0.1-0.3-0.4c0,0,0-0.1-0.2-0.3c-0.1-0.1-0.1-0.6,0.1-0.7c0,0-0.4-1.3,0.2-2.1c0.6-0.8,2.1-0.7,2.1-0.7s1.5-0.1,2.1,0.7
		c0.6,0.8,0.2,2.1,0.2,2.1c0.2,0.1,0.2,0.6,0.1,0.7c-0.1,0.1-0.2,0.3-0.2,0.3c-0.1,0.5-0.3,0.4-0.3,0.4c0,0.3-0.3,0.7-0.6,1v0.9l0,0
		c0.4,0.1,0.6,0.4,0.6,0.4l-0.1,0c3.5,0.3,3,6.1,3,6.1h-4.9h-4.9C149.3,35.5,148.9,29.7,152.3,29.3z"/>
	<path id="XMLID_139_" class="st31" d="M144.8,29.3L144.8,29.3c-0.1,0,0.1-0.4,0.6-0.5l0,0v-0.9c-0.3-0.3-0.6-0.7-0.6-1
		c0,0-0.3,0.1-0.3-0.4c0,0,0-0.1-0.2-0.3c-0.1-0.1-0.1-0.6,0.1-0.7c0,0-0.4-1.3,0.2-2.1c0.6-0.8,2.1-0.7,2.1-0.7s1.5-0.1,2.1,0.7
		c0.6,0.8,0.2,2.1,0.2,2.1c0.2,0.1,0.2,0.6,0.1,0.7c-0.1,0.1-0.2,0.3-0.2,0.3c-0.1,0.5-0.3,0.4-0.3,0.4c0,0.3-0.3,0.7-0.6,1v0.9l0,0
		c0.4,0.1,0.6,0.4,0.6,0.4l-0.1,0c3.5,0.3,3,6.1,3,6.1h-4.9h-4.9C141.8,35.5,141.4,29.7,144.8,29.3z"/>
	<path id="XMLID_137_" class="st31" d="M137.3,29.3L137.3,29.3c-0.1,0,0.1-0.4,0.6-0.5l0,0v-0.9c-0.3-0.3-0.6-0.7-0.6-1
		c0,0-0.3,0.1-0.3-0.4c0,0,0-0.1-0.2-0.3c-0.1-0.1-0.1-0.6,0.1-0.7c0,0-0.4-1.3,0.2-2.1c0.6-0.8,2.1-0.7,2.1-0.7s1.5-0.1,2.1,0.7
		c0.6,0.8,0.2,2.1,0.2,2.1c0.2,0.1,0.2,0.6,0.1,0.7c-0.1,0.1-0.2,0.3-0.2,0.3c-0.1,0.5-0.3,0.4-0.3,0.4c0,0.3-0.3,0.7-0.6,1v0.9l0,0
		c0.4,0.1,0.6,0.4,0.6,0.4l-0.1,0c3.5,0.3,3,6.1,3,6.1h-4.9h-4.9C134.3,35.5,133.8,29.7,137.3,29.3z"/>
	<g id="XMLID_31_" class="st32">
		<rect id="XMLID_127_" x="156.5" y="28.4" class="st33" width="2.3" height="2.3"/>
		<polygon id="XMLID_126_" class="st20" points="159.4,33.6 155.9,33.6 155.9,29.8 157.6,30.3 159.4,29.8 		"/>
		<polygon id="XMLID_125_" class="st34" points="157.8,30.9 157.6,30.9 157.4,30.9 157.1,34.8 157.6,35.4 158.2,34.8 		"/>
		<polygon id="XMLID_124_" class="st35" points="157.9,30.1 157.3,30.1 157.1,30.3 157.1,30.6 157.4,30.9 157.9,30.9 158.2,30.7 
			158.2,30.3 		"/>
		<path id="XMLID_123_" class="st36" d="M159.3,26.4c0,0,1-2.4-1.7-2.4c-2.7,0-1.7,2.4-1.7,2.4c-0.6-0.5-0.6,0.4-0.5,0.5
			c0.1,0.1,0.1,0.3,0.1,0.3c0.1,0.5,0.3,0.3,0.3,0.3c0,0.5,0.7,1.1,1,1.3c0.4,0.2,0.7,0.2,0.7,0.2s0.4,0,0.7-0.2
			c0.4-0.2,1-0.9,1-1.3c0,0,0.2,0.1,0.3-0.3c0,0,0-0.1,0.1-0.3C160,26.8,160,25.9,159.3,26.4z"/>
		<path id="XMLID_122_" class="st37" d="M159.6,24.3c-0.5-0.7-1.9-0.7-1.9-0.7s-1.4-0.1-1.9,0.7c-0.5,0.7-0.2,2-0.2,2s0.2,0,0.4,0.1
			l0-0.1c0,0,1-0.8,1.8-0.8c0.8,0,1.3-0.7,1.3-0.7c0.4,0.3,0.3,1.5,0.3,1.5c0.2-0.2,0.4-0.1,0.4-0.1S160.1,25,159.6,24.3z"/>
		<path id="XMLID_35_" class="st22" d="M159.1,29.8l-1.4,3.4l-1.4-3.4c-3.6,0-3.1,5.8-3.1,5.8h4.6h4.6
			C162.2,35.5,162.6,29.8,159.1,29.8z"/>
		<g id="XMLID_32_">
			<path id="XMLID_34_" class="st20" d="M156.4,29.3l1.2,0.8c0,0-0.6,0.4-0.6,0.7l-1.2-1.1C155.9,29.7,156,29.4,156.4,29.3z"/>
			<path id="XMLID_33_" class="st20" d="M158.8,29.3l-1.2,0.8c0,0,0.6,0.4,0.6,0.7l1.2-1.1C159.4,29.7,159.2,29.4,158.8,29.3z"/>
		</g>
	</g>
	<g id="XMLID_19_" class="st32">
		<ellipse id="XMLID_30_" class="st38" cx="143.2" cy="23.3" rx="1.2" ry="1.1"/>
		<rect id="XMLID_29_" x="142.1" y="28.4" class="st39" width="2.3" height="2.3"/>
		<polygon id="XMLID_28_" class="st20" points="141.5,34.7 145,34.7 145,29.8 143.2,30.7 141.5,29.8 		"/>
		<path id="XMLID_27_" class="st40" d="M141.5,26.4c0,0-1-2.4,1.7-2.4c2.7,0,1.7,2.4,1.7,2.4c0.6-0.5,0.6,0.4,0.5,0.5
			c-0.1,0.1-0.1,0.3-0.1,0.3c-0.1,0.5-0.3,0.3-0.3,0.3c0,0.5-0.7,1.1-1,1.3c-0.4,0.2-0.7,0.2-0.7,0.2s-0.4,0-0.7-0.2
			c-0.4-0.2-1-0.9-1-1.3c0,0-0.2,0.1-0.3-0.3c0,0,0-0.1-0.1-0.3C140.9,26.8,140.9,25.9,141.5,26.4z"/>
		<path id="XMLID_26_" class="st41" d="M141.3,24.3c0.5-0.7,1.9-0.7,1.9-0.7s1.4-0.1,1.9,0.7c0.5,0.7,0.2,2,0.2,2s-0.2,0-0.4,0.1
			c0,0-1-0.8-1.8-0.8c-0.8,0-1.3-0.8-1.3-0.8c-0.4,0.3-0.3,1.5-0.3,1.5c-0.2-0.2-0.4-0.1-0.4-0.1S140.8,25,141.3,24.3z"/>
		<path id="XMLID_25_" class="st42" d="M141.8,29.8l1.4,4.8l1.4-4.8c3.6,0,3.1,5.8,3.1,5.8h-4.6h-4.6
			C138.6,35.5,138.2,29.8,141.8,29.8z"/>
		<path id="XMLID_24_" class="st24" d="M144.7,29.8c0,0,0.9,2.1,0.2,3l-0.7,0.2l0.3,0.7l-1.3,1.9v-1
			C143.2,34.5,144.4,30.1,144.7,29.8z"/>
		<path id="XMLID_23_" class="st24" d="M141.7,29.8c0,0-0.9,2.1-0.2,3l0.7,0.2l-0.3,0.7l1.3,1.9v-1C143.2,34.5,142,30.1,141.7,29.8z
			"/>
		<g id="XMLID_20_">
			<path id="XMLID_22_" class="st43" d="M144.4,29.3l-1.2,1.3c0,0,0.6,0.4,0.6,0.7l1.2-1.6C145,29.7,144.8,29.4,144.4,29.3z"/>
			<path id="XMLID_21_" class="st43" d="M142,29.3l1.2,1.3c0,0-0.6,0.4-0.6,0.7l-1.2-1.6C141.5,29.7,141.6,29.4,142,29.3z"/>
		</g>
	</g>
</g>
<ellipse id="XMLID_14_" class="st1" cx="150.4" cy="26.9" rx="4" ry="3.6"/>
<g id="XMLID_197_">
	<path id="XMLID_179_" class="st44" d="M150.6,22.6c-2.2,0-4,1.8-4,4s1.8,4,4,4s4-1.8,4-4S152.9,22.6,150.6,22.6z M150.6,30.4
		c-2.1,0-3.8-1.7-3.8-3.8s1.7-3.8,3.8-3.8s3.8,1.7,3.8,3.8S152.7,30.4,150.6,30.4z"/>
	<g id="XMLID_176_">
		<path id="XMLID_188_" class="st2" d="M152.3,26.6l-3-2c0,0-0.1,0-0.1,0c0,0-0.1,0.1-0.1,0.1v4c0,0,0,0.1,0.1,0.1c0,0,0,0,0.1,0
			c0,0,0.1,0,0.1,0l3-2c0,0,0.1-0.1,0.1-0.1C152.4,26.6,152.4,26.6,152.3,26.6z M149.4,26.7L149.4,26.7c0-0.7,0.8-1.2,1.5-0.8l0,0
			c0.5,0.4,0.5,1.2,0,1.5l0,0C150.3,27.9,149.4,27.4,149.4,26.7z"/>
		<ellipse id="XMLID_5_" class="st2" cx="150.3" cy="26.7" rx="1.1" ry="1.1"/>
	</g>
</g>
<g id="XMLID_17_">
	<g id="XMLID_240_">
		<g id="XMLID_246_">
			<path id="XMLID_256_" class="st45" d="M82.9,138.6V135c1,0.6,2.7,0.7,2.7,0.7s1.7-0.1,2.7-0.7v3.6H82.9z"/>
			<path id="XMLID_253_" class="st2" d="M82.9,139.4v-3.1c1,0.5,2.7,0.6,2.7,0.6s1.7-0.1,2.7-0.6v3.1H82.9z"/>
			<path id="XMLID_249_" class="st46" d="M76.2,139.1c0.8-0.5,3.1-0.3,6.7-1.8c1,0.5,2.7,0.6,2.7,0.6s1.7-0.1,2.7-0.6
				c3.5,1.5,5.9,1.3,6.7,1.8c0.8,0.5,1.6,5.9,1.6,5.9h-11h-11C74.6,145.1,75.5,139.6,76.2,139.1z"/>
		</g>
		<path id="XMLID_243_" class="st17" d="M79.2,131.9c0.5-1.5,0.1-5.9,1.8-5.9c0.1-0.3,0.5-0.7,1-0.7c0.7-0.6,1.5-1,2.2-1
			c0.2,0,0.4,0,0.7,0c0.6-0.1,1.1-0.2,1.6,0.1c0.6,0.1,1.3,0.4,1.8,0.9c0.5,0,0.9,0.4,1,0.7c1.8,0,1.3,4.4,1.8,5.9
			c0.4,1.3,0.1,6.9-1.6,8.5c-0.9,2.2-2.4,3.5-4,3.5c-1.5,0-2.8-1.2-3.8-3.1c0,0,0,0-0.1,0C79.2,140.7,78.7,133.3,79.2,131.9z"/>
	</g>
	<g id="XMLID_225_">
		<path id="XMLID_237_" class="st45" d="M54,137.9v-3.8c1,0.6,2.8,0.7,2.8,0.7s1.8-0.1,2.8-0.7v3.8H54z"/>
		<path id="XMLID_234_" class="st2" d="M54,138.8v-3.3c1,0.6,2.8,0.6,2.8,0.6s1.8-0.1,2.8-0.6v3.3H54z"/>
		<path id="XMLID_231_" class="st14" d="M47,138.4c0.8-0.6,3.3-0.3,7-1.9c1,0.6,2.8,0.6,2.8,0.6s1.8-0.1,2.8-0.6
			c3.7,1.6,6.2,1.3,7,1.9c0.8,0.6,1.7,6.2,1.7,6.2H56.8H45.3C45.3,144.7,46.1,139,47,138.4z"/>
		<path id="XMLID_228_" class="st14" d="M51.7,127.9c-0.1-2,0.2-4.3,1.9-4.7c2.2-1.7,5.5-0.9,6.8,0.4c1.3,0.4,2.4,0.5,2.7,0.1
			c0,0,1.1,2.4-1,3.6c-0.1,0.1-0.3,0.2-0.4,0.2c0.1,0.7,0.2,1.4,0.2,2c0,2.6-1.4,4.8-3.3,5.6c-0.7,0.5-1.4,0.8-1.9,0.8
			c-0.6,0-1.5-0.5-2.3-1.1c-0.5-0.3-0.9-0.7-1.3-1.2c-0.1-0.1-0.2-0.3-0.3-0.4c0,0,0,0,0-0.1c-0.7-1-1.1-2.3-1.1-3.7
			C51.7,129.1,51.7,128.5,51.7,127.9z"/>
	</g>
	<path id="XMLID_222_" class="st15" d="M72.6,159.3v-14.6c0-0.8,1.1-1.4,2.5-1.4h21.1c1.4,0,2.5,0.6,2.5,1.4v14.6H72.6z"/>
	<path id="XMLID_219_" class="st15" d="M43.8,159.3v-14.6c0-0.8,1.1-1.4,2.5-1.4h21.1c1.4,0,2.5,0.6,2.5,1.4v14.6H43.8z"/>
	<g id="XMLID_203_">
		<path id="XMLID_216_" class="st45" d="M39.5,142.4v-3.9c1,0.7,2.9,0.7,2.9,0.7s1.9-0.1,2.9-0.7v3.9H39.5z"/>
		<path id="XMLID_213_" class="st2" d="M39.5,143.2v-3.3c1,0.6,2.9,0.6,2.9,0.6s1.9-0.1,2.9-0.6v3.3H39.5z"/>
		<path id="XMLID_209_" class="st47" d="M32.4,142.9c0.8-0.6,3.3-0.3,7.1-1.9c1,0.6,2.9,0.6,2.9,0.6s1.9-0.1,2.9-0.6
			c3.8,1.6,6.3,1.4,7.1,1.9c0.8,0.6,1.7,6.4,1.7,6.4H42.4H30.7C30.7,149.2,31.5,143.5,32.4,142.9z"/>
		<path id="XMLID_206_" class="st48" d="M36.1,138.9c-0.7-0.2-1.6-3-0.6-4.1c1-1.2,0.1-2.4,1.9-5.7c1.8-3.4,6.1-2.5,6.6-1.6
			c2.3,0,3,1.6,3.3,3.4c0.1,0.2,0.2,0.4,0.2,0.6c0.2,0.7,0.3,1.4,0.3,2c0.1,0.4,0.2,0.7,0.4,1c1.2,1.8-0.1,3.9-0.6,4.5
			c-0.5,0.6-0.3,1.2,0.1,1.6c1.5,1.1,0.3,4.4-5.5,4.5c-5.4,0-7.5-2.9-6.1-4.6C36.5,140,36.8,139.1,36.1,138.9z"/>
	</g>
	<g id="XMLID_136_">
		<path id="XMLID_200_" class="st45" d="M68.3,143.6v-3.9c1,0.7,2.9,0.7,2.9,0.7s1.9-0.1,2.9-0.7v3.9H68.3z"/>
		<path id="XMLID_146_" class="st2" d="M68.3,144.5v-3.3c1,0.6,2.9,0.6,2.9,0.6s1.9-0.1,2.9-0.6v3.3H68.3z"/>
		<path id="XMLID_142_" class="st49" d="M61.2,144.1c0.8-0.6,3.3-0.3,7.1-1.9c1,0.6,2.9,0.6,2.9,0.6s1.9-0.1,2.9-0.6
			c3.8,1.6,6.3,1.4,7.1,1.9c0.8,0.6,1.7,6.4,1.7,6.4H71.2H59.5C59.5,150.5,60.4,144.7,61.2,144.1z"/>
		<path id="XMLID_138_" class="st50" d="M65.5,133.4c-0.1-2.3,0.2-5.1,2.1-5.6c2.7-2.4,8.1,0.7,9.4,2.4c-0.2,0.6-0.3,1.3-0.3,2
			c0.2,0.7,0.4,1.4,0.4,2.2c0,3.4-2.6,6.2-5.8,6.2c-3.2,0-5.8-2.8-5.8-6.2C65.4,134.1,65.4,133.8,65.5,133.4z"/>
	</g>
	<g id="XMLID_131_">
		<path id="XMLID_135_" class="st45" d="M97.1,143.2v-3.9c1,0.7,2.9,0.7,2.9,0.7s1.9-0.1,2.9-0.7v3.9H97.1z"/>
		<path id="XMLID_134_" class="st2" d="M97.1,144.1v-3.4c1,0.6,2.9,0.6,2.9,0.6s1.9-0.1,2.9-0.6v3.4H97.1z"/>
		<path id="XMLID_133_" class="st51" d="M89.9,143.7c0.9-0.6,3.4-0.3,7.2-1.9c1,0.6,2.9,0.6,2.9,0.6s1.9-0.1,2.9-0.6
			c3.8,1.6,6.4,1.4,7.2,1.9c0.9,0.6,1.8,6.4,1.8,6.4H100H88.1C88.1,150.1,89,144.3,89.9,143.7z"/>
		<path id="XMLID_132_" class="st52" d="M94.5,133.8c0,3.6,2.5,6.6,5.5,6.6c3.1,0,5.5-2.9,5.5-6.6c0-2.4-0.9-6.1-3-5.7
			c-1.6-1.6-3.3-1.1-5.8-0.2C94.2,128.8,94.5,131.6,94.5,133.8z"/>
	</g>
	<path id="XMLID_130_" class="st14" d="M87,159.3v-13c0-0.8,1.1-1.4,2.5-1.4h21.1c1.4,0,2.5,0.6,2.5,1.4v13H87z"/>
	<path id="XMLID_128_" class="st14" d="M58.2,159.3v-13c0-0.8,1.1-1.4,2.5-1.4h21.1c1.4,0,2.5,0.6,2.5,1.4v13H58.2z"/>
	<path id="XMLID_38_" class="st14" d="M29.4,159.3v-13c0-0.8,1.1-1.4,2.5-1.4h21.1c1.4,0,2.5,0.6,2.5,1.4v13H29.4z"/>
</g>
<g id="XMLID_259_">
	<g id="XMLID_382_">
		<g id="XMLID_384_">
			<path id="XMLID_387_" class="st45" d="M137.7,139.2v-3.6c-1,0.6-2.7,0.7-2.7,0.7s-1.7-0.1-2.7-0.7v3.6H137.7z"/>
			<path id="XMLID_386_" class="st2" d="M137.7,140.1v-3.1c-1,0.5-2.7,0.6-2.7,0.6s-1.7-0.1-2.7-0.6v3.1H137.7z"/>
			<path id="XMLID_385_" class="st46" d="M144.4,139.7c-0.8-0.5-3.1-0.3-6.7-1.8c-1,0.5-2.7,0.6-2.7,0.6s-1.7-0.1-2.7-0.6
				c-3.5,1.5-5.9,1.3-6.7,1.8c-0.8,0.5-1.6,5.9-1.6,5.9h11h11C146,145.7,145.2,140.2,144.4,139.7z"/>
		</g>
		<path id="XMLID_383_" class="st17" d="M141.4,132.5c-0.5-1.5-0.1-5.9-1.8-5.9c-0.1-0.3-0.5-0.7-1-0.7c-0.7-0.6-1.5-1-2.2-1
			c-0.2,0-0.4,0-0.7,0c-0.6-0.1-1.1-0.2-1.6,0.1c-0.6,0.1-1.3,0.4-1.8,0.9c-0.5,0-0.9,0.4-1,0.7c-1.8,0-1.3,4.4-1.8,5.9
			c-0.4,1.3-0.1,6.9,1.6,8.5c0.9,2.2,2.4,3.5,4,3.5c1.5,0,2.8-1.2,3.8-3.1c0,0,0,0,0.1,0C141.4,141.3,141.9,133.9,141.4,132.5z"/>
	</g>
	<g id="XMLID_377_">
		<path id="XMLID_381_" class="st45" d="M166.7,138.5v-3.8c-1,0.6-2.8,0.7-2.8,0.7s-1.8-0.1-2.8-0.7v3.8H166.7z"/>
		<path id="XMLID_380_" class="st2" d="M166.7,139.4v-3.3c-1,0.6-2.8,0.6-2.8,0.6s-1.8-0.1-2.8-0.6v3.3H166.7z"/>
		<path id="XMLID_379_" class="st14" d="M173.7,139c-0.8-0.6-3.3-0.3-7-1.9c-1,0.6-2.8,0.6-2.8,0.6s-1.8-0.1-2.8-0.6
			c-3.7,1.6-6.2,1.3-7,1.9c-0.8,0.6-1.7,6.2-1.7,6.2h11.5h11.5C175.4,145.3,174.5,139.6,173.7,139z"/>
		<path id="XMLID_378_" class="st14" d="M168.9,128.5c0.1-2-0.2-4.3-1.9-4.7c-2.2-1.7-5.5-0.9-6.8,0.4c-1.3,0.4-2.4,0.5-2.7,0.1
			c0,0-1.1,2.4,1,3.6c0.1,0.1,0.3,0.2,0.4,0.2c-0.1,0.7-0.2,1.4-0.2,2c0,2.6,1.4,4.8,3.3,5.6c0.7,0.5,1.4,0.8,1.9,0.8
			c0.6,0,1.5-0.5,2.3-1.1c0.5-0.3,0.9-0.7,1.3-1.2c0.1-0.1,0.2-0.3,0.3-0.4c0,0,0,0,0-0.1c0.7-1,1.1-2.3,1.1-3.7
			C168.9,129.7,168.9,129.1,168.9,128.5z"/>
	</g>
	<path id="XMLID_376_" class="st15" d="M148.1,159.9v-14.6c0-0.8-1.1-1.4-2.5-1.4h-21.1c-1.4,0-2.5,0.6-2.5,1.4v14.6H148.1z"/>
	<path id="XMLID_375_" class="st15" d="M176.9,159.9v-14.6c0-0.8-1.1-1.4-2.5-1.4h-21.1c-1.4,0-2.5,0.6-2.5,1.4v14.6H176.9z"/>
	<g id="XMLID_370_">
		<path id="XMLID_374_" class="st45" d="M181.1,143v-3.9c-1,0.7-2.9,0.7-2.9,0.7s-1.9-0.1-2.9-0.7v3.9H181.1z"/>
		<path id="XMLID_373_" class="st2" d="M181.1,143.8v-3.3c-1,0.6-2.9,0.6-2.9,0.6s-1.9-0.1-2.9-0.6v3.3H181.1z"/>
		<path id="XMLID_372_" class="st47" d="M188.2,143.5c-0.8-0.6-3.3-0.3-7.1-1.9c-1,0.6-2.9,0.6-2.9,0.6s-1.9-0.1-2.9-0.6
			c-3.8,1.6-6.3,1.4-7.1,1.9c-0.8,0.6-1.7,6.4-1.7,6.4h11.7H190C190,149.8,189.1,144.1,188.2,143.5z"/>
		<path id="XMLID_371_" class="st48" d="M184.5,139.5c0.7-0.2,1.6-3,0.6-4.1c-1-1.2-0.1-2.4-1.9-5.7c-1.8-3.4-6.1-2.5-6.6-1.6
			c-2.3,0-3,1.6-3.3,3.4c-0.1,0.2-0.2,0.4-0.2,0.6c-0.2,0.7-0.3,1.4-0.3,2c-0.1,0.4-0.2,0.7-0.4,1c-1.2,1.8,0.1,3.9,0.6,4.5
			c0.5,0.6,0.3,1.2-0.1,1.6c-1.5,1.1-0.3,4.4,5.5,4.5c5.4,0,7.5-2.9,6.1-4.6C184.1,140.6,183.9,139.7,184.5,139.5z"/>
	</g>
	<g id="XMLID_365_">
		<path id="XMLID_369_" class="st45" d="M152.3,144.2v-3.9c-1,0.7-2.9,0.7-2.9,0.7s-1.9-0.1-2.9-0.7v3.9H152.3z"/>
		<path id="XMLID_368_" class="st2" d="M152.3,145.1v-3.3c-1,0.6-2.9,0.6-2.9,0.6s-1.9-0.1-2.9-0.6v3.3H152.3z"/>
		<path id="XMLID_367_" class="st49" d="M159.4,144.7c-0.8-0.6-3.3-0.3-7.1-1.9c-1,0.6-2.9,0.6-2.9,0.6s-1.9-0.1-2.9-0.6
			c-3.8,1.6-6.3,1.4-7.1,1.9c-0.8,0.6-1.7,6.4-1.7,6.4h11.7h11.7C161.2,151.1,160.3,145.3,159.4,144.7z"/>
		<path id="XMLID_366_" class="st50" d="M155.1,134c0.1-2.3-0.2-5.1-2.1-5.6c-2.7-2.4-8.1,0.7-9.4,2.4c0.2,0.6,0.3,1.3,0.3,2
			c-0.2,0.7-0.4,1.4-0.4,2.2c0,3.4,2.6,6.2,5.8,6.2c3.2,0,5.8-2.8,5.8-6.2C155.2,134.7,155.2,134.4,155.1,134z"/>
	</g>
	<g id="XMLID_271_">
		<path id="XMLID_364_" class="st45" d="M123.5,143.8v-3.9c-1,0.7-2.9,0.7-2.9,0.7s-1.9-0.1-2.9-0.7v3.9H123.5z"/>
		<path id="XMLID_280_" class="st2" d="M123.5,144.7v-3.4c-1,0.6-2.9,0.6-2.9,0.6s-1.9-0.1-2.9-0.6v3.4H123.5z"/>
		<path id="XMLID_277_" class="st51" d="M130.8,144.3c-0.9-0.6-3.4-0.3-7.2-1.9c-1,0.6-2.9,0.6-2.9,0.6s-1.9-0.1-2.9-0.6
			c-3.8,1.6-6.4,1.4-7.2,1.9c-0.9,0.6-1.8,6.4-1.8,6.4h11.9h11.9C132.5,150.7,131.6,144.9,130.8,144.3z"/>
		<path id="XMLID_274_" class="st52" d="M126.2,134.4c0,3.6-2.5,6.6-5.5,6.6c-3.1,0-5.5-2.9-5.5-6.6c0-2.4,0.9-6.1,3-5.7
			c1.6-1.6,3.3-1.1,5.8-0.2C126.4,129.4,126.2,132.2,126.2,134.4z"/>
	</g>
	<path id="XMLID_268_" class="st14" d="M133.7,159.9v-13c0-0.8-1.1-1.4-2.5-1.4h-21.1c-1.4,0-2.5,0.6-2.5,1.4v13H133.7z"/>
	<path id="XMLID_265_" class="st14" d="M162.5,159.9v-13c0-0.8-1.1-1.4-2.5-1.4h-21.1c-1.4,0-2.5,0.6-2.5,1.4v13H162.5z"/>
	<path id="XMLID_262_" class="st14" d="M191.3,159.9v-13c0-0.8-1.1-1.4-2.5-1.4h-21.1c-1.4,0-2.5,0.6-2.5,1.4v13H191.3z"/>
</g>
<g id="XMLID_18_">
	<g id="XMLID_354_">
		<g id="XMLID_360_">
			<path id="XMLID_363_" class="st45" d="M104.4,153v-3.6c-1,0.6-2.7,0.7-2.7,0.7s-1.7-0.1-2.7-0.7v3.6H104.4z"/>
			<path id="XMLID_362_" class="st2" d="M104.4,153.9v-3.1c-1,0.5-2.7,0.6-2.7,0.6s-1.7-0.1-2.7-0.6v3.1H104.4z"/>
			<path id="XMLID_361_" class="st46" d="M111.1,153.5c-0.8-0.5-3.1-0.3-6.7-1.8c-1,0.5-2.7,0.6-2.7,0.6s-1.7-0.1-2.7-0.6
				c-3.5,1.5-5.9,1.3-6.7,1.8c-0.8,0.5-1.6,5.9-1.6,5.9h11h11C112.7,159.5,111.9,154.1,111.1,153.5z"/>
		</g>
		<path id="XMLID_357_" class="st17" d="M108.2,146.3c-0.5-1.5-0.1-5.9-1.8-5.9c-0.1-0.3-0.5-0.7-1-0.7c-0.7-0.6-1.5-1-2.2-1
			c-0.2,0-0.4,0-0.7,0c-0.6-0.1-1.1-0.2-1.6,0.1c-0.6,0.1-1.3,0.4-1.8,0.9c-0.5,0-0.9,0.4-1,0.7c-1.8,0-1.3,4.4-1.8,5.9
			c-0.4,1.3-0.1,6.9,1.6,8.5c0.9,2.2,2.4,3.5,4,3.5c1.5,0,2.8-1.2,3.8-3.1c0,0,0,0,0.1,0C108.1,155.1,108.7,147.8,108.2,146.3z"/>
	</g>
	<g id="XMLID_343_">
		<path id="XMLID_351_" class="st45" d="M133.4,152.3v-3.8c-1,0.6-2.8,0.7-2.8,0.7s-1.8-0.1-2.8-0.7v3.8H133.4z"/>
		<path id="XMLID_348_" class="st2" d="M133.4,153.2v-3.3c-1,0.6-2.8,0.6-2.8,0.6s-1.8-0.1-2.8-0.6v3.3H133.4z"/>
		<path id="XMLID_347_" class="st14" d="M140.4,152.9c-0.8-0.6-3.3-0.3-7-1.9c-1,0.6-2.8,0.6-2.8,0.6s-1.8-0.1-2.8-0.6
			c-3.7,1.6-6.2,1.3-7,1.9c-0.8,0.6-1.7,6.2-1.7,6.2h11.5h11.5C142.1,159.1,141.2,153.4,140.4,152.9z"/>
		<path id="XMLID_346_" class="st14" d="M135.6,142.3c0.1-2-0.2-4.3-1.9-4.7c-2.2-1.7-5.5-0.9-6.8,0.4c-1.3,0.4-2.4,0.5-2.7,0.1
			c0,0-1.1,2.4,1,3.6c0.1,0.1,0.3,0.2,0.4,0.2c-0.1,0.7-0.2,1.4-0.2,2c0,2.6,1.4,4.8,3.3,5.6c0.7,0.5,1.4,0.8,1.9,0.8
			c0.6,0,1.5-0.5,2.3-1.1c0.5-0.3,0.9-0.7,1.3-1.2c0.1-0.1,0.2-0.3,0.3-0.4c0,0,0,0,0-0.1c0.7-1,1.1-2.3,1.1-3.7
			C135.6,143.5,135.6,142.9,135.6,142.3z"/>
	</g>
	<path id="XMLID_340_" class="st15" d="M114.8,173.7v-14.6c0-0.8-1.1-1.4-2.5-1.4H91.2c-1.4,0-2.5,0.6-2.5,1.4v14.6H114.8z"/>
	<path id="XMLID_337_" class="st15" d="M143.6,173.7v-14.6c0-0.8-1.1-1.4-2.5-1.4H120c-1.4,0-2.5,0.6-2.5,1.4v14.6H143.6z"/>
	<g id="XMLID_322_">
		<path id="XMLID_334_" class="st45" d="M147.8,156.8v-3.9c-1,0.7-2.9,0.7-2.9,0.7s-1.9-0.1-2.9-0.7v3.9H147.8z"/>
		<path id="XMLID_331_" class="st2" d="M147.8,157.7v-3.3c-1,0.6-2.9,0.6-2.9,0.6s-1.9-0.1-2.9-0.6v3.3H147.8z"/>
		<path id="XMLID_328_" class="st47" d="M155,157.3c-0.8-0.6-3.3-0.3-7.1-1.9c-1,0.6-2.9,0.6-2.9,0.6s-1.9-0.1-2.9-0.6
			c-3.8,1.6-6.3,1.4-7.1,1.9c-0.8,0.6-1.7,6.4-1.7,6.4H145h11.7C156.7,163.7,155.8,157.9,155,157.3z"/>
		<path id="XMLID_325_" class="st48" d="M151.3,153.3c0.7-0.2,1.6-3,0.6-4.1c-1-1.2-0.1-2.4-1.9-5.7c-1.8-3.4-6.1-2.5-6.6-1.6
			c-2.3,0-3,1.6-3.3,3.4c-0.1,0.2-0.2,0.4-0.2,0.6c-0.2,0.7-0.3,1.4-0.3,2c-0.1,0.4-0.2,0.7-0.4,1c-1.2,1.8,0.1,3.9,0.6,4.5
			c0.5,0.6,0.3,1.2-0.1,1.6c-1.5,1.1-0.3,4.4,5.5,4.5c5.4,0,7.5-2.9,6.1-4.6C150.9,154.5,150.6,153.5,151.3,153.3z"/>
	</g>
	<g id="XMLID_307_">
		<path id="XMLID_319_" class="st45" d="M119,158v-3.9c-1,0.7-2.9,0.7-2.9,0.7s-1.9-0.1-2.9-0.7v3.9H119z"/>
		<path id="XMLID_316_" class="st2" d="M119,158.9v-3.3c-1,0.6-2.9,0.6-2.9,0.6s-1.9-0.1-2.9-0.6v3.3H119z"/>
		<path id="XMLID_313_" class="st49" d="M126.1,158.6c-0.8-0.6-3.3-0.3-7.1-1.9c-1,0.6-2.9,0.6-2.9,0.6s-1.9-0.1-2.9-0.6
			c-3.8,1.6-6.3,1.4-7.1,1.9c-0.8,0.6-1.7,6.4-1.7,6.4h11.7h11.7C127.9,164.9,127,159.1,126.1,158.6z"/>
		<path id="XMLID_310_" class="st50" d="M121.9,147.9c0.1-2.3-0.2-5.1-2.1-5.6c-2.7-2.4-8.1,0.7-9.4,2.4c0.2,0.6,0.3,1.3,0.3,2
			c-0.2,0.7-0.4,1.4-0.4,2.2c0,3.4,2.6,6.2,5.8,6.2c3.2,0,5.8-2.8,5.8-6.2C121.9,148.5,121.9,148.2,121.9,147.9z"/>
	</g>
	<g id="XMLID_292_">
		<path id="XMLID_304_" class="st45" d="M90.3,157.6v-3.9c-1,0.7-2.9,0.7-2.9,0.7s-1.9-0.1-2.9-0.7v3.9H90.3z"/>
		<path id="XMLID_301_" class="st2" d="M90.3,158.5v-3.4c-1,0.6-2.9,0.6-2.9,0.6s-1.9-0.1-2.9-0.6v3.4H90.3z"/>
		<path id="XMLID_298_" class="st51" d="M97.5,158.1c-0.9-0.6-3.4-0.3-7.2-1.9c-1,0.6-2.9,0.6-2.9,0.6s-1.9-0.1-2.9-0.6
			c-3.8,1.6-6.4,1.4-7.2,1.9c-0.9,0.6-1.8,6.4-1.8,6.4h11.9h11.9C99.2,164.6,98.3,158.7,97.5,158.1z"/>
		<path id="XMLID_295_" class="st52" d="M92.9,148.3c0,3.6-2.5,6.6-5.5,6.6c-3.1,0-5.5-2.9-5.5-6.6c0-2.4,0.9-6.1,3-5.7
			c1.6-1.6,3.3-1.1,5.8-0.2C93.1,143.2,92.9,146.1,92.9,148.3z"/>
	</g>
	<path id="XMLID_289_" class="st14" d="M100.4,173.7v-13c0-0.8-1.1-1.4-2.5-1.4H76.8c-1.4,0-2.5,0.6-2.5,1.4v13H100.4z"/>
	<path id="XMLID_286_" class="st14" d="M129.2,173.7v-13c0-0.8-1.1-1.4-2.5-1.4h-21.1c-1.4,0-2.5,0.6-2.5,1.4v13H129.2z"/>
	<path id="XMLID_283_" class="st14" d="M158,173.7v-13c0-0.8-1.1-1.4-2.5-1.4h-21.1c-1.4,0-2.5,0.6-2.5,1.4v13H158z"/>
</g>
<g id="XMLID_429_">
	<g id="XMLID_455_">
		<g id="XMLID_457_">
			<path id="XMLID_460_" class="st45" d="M167.1,152.8v-3.6c-1,0.6-2.7,0.7-2.7,0.7s-1.7-0.1-2.7-0.7v3.6H167.1z"/>
			<path id="XMLID_459_" class="st2" d="M167.1,153.6v-3.1c-1,0.5-2.7,0.6-2.7,0.6s-1.7-0.1-2.7-0.6v3.1H167.1z"/>
			<path id="XMLID_458_" class="st46" d="M173.7,153.3c-0.8-0.5-3.1-0.3-6.7-1.8c-1,0.5-2.7,0.6-2.7,0.6s-1.7-0.1-2.7-0.6
				c-3.5,1.5-5.9,1.3-6.7,1.8c-0.8,0.5-1.6,5.9-1.6,5.9h11h11C175.4,159.3,174.5,153.8,173.7,153.3z"/>
		</g>
		<path id="XMLID_456_" class="st17" d="M170.8,146c-0.5-1.5-0.1-5.9-1.8-5.9c-0.1-0.3-0.5-0.7-1-0.7c-0.7-0.6-1.5-1-2.2-1
			c-0.2,0-0.4,0-0.7,0c-0.6-0.1-1.1-0.2-1.6,0.1c-0.6,0.1-1.3,0.4-1.8,0.9c-0.5,0-0.9,0.4-1,0.7c-1.8,0-1.3,4.4-1.8,5.9
			c-0.4,1.3-0.1,6.9,1.6,8.5c0.9,2.2,2.4,3.5,4,3.5c1.5,0,2.8-1.2,3.8-3.1c0,0,0,0,0.1,0C170.7,154.9,171.3,147.5,170.8,146z"/>
	</g>
	<g id="XMLID_450_">
		<path id="XMLID_454_" class="st45" d="M196,152.1v-3.8c-1,0.6-2.8,0.7-2.8,0.7s-1.8-0.1-2.8-0.7v3.8H196z"/>
		<path id="XMLID_453_" class="st2" d="M196,153v-3.3c-1,0.6-2.8,0.6-2.8,0.6s-1.8-0.1-2.8-0.6v3.3H196z"/>
		<path id="XMLID_452_" class="st14" d="M203,152.6c-0.8-0.6-3.3-0.3-7-1.9c-1,0.6-2.8,0.6-2.8,0.6s-1.8-0.1-2.8-0.6
			c-3.7,1.6-6.2,1.3-7,1.9c-0.8,0.6-1.7,6.2-1.7,6.2h11.5h11.5C204.7,158.9,203.8,153.2,203,152.6z"/>
		<path id="XMLID_451_" class="st14" d="M198.2,142.1c0.1-2-0.2-4.3-1.9-4.7c-2.2-1.7-5.5-0.9-6.8,0.4c-1.3,0.4-2.4,0.5-2.7,0.1
			c0,0-1.1,2.4,1,3.6c0.1,0.1,0.3,0.2,0.4,0.2c-0.1,0.7-0.2,1.4-0.2,2c0,2.6,1.4,4.8,3.3,5.6c0.7,0.5,1.4,0.8,1.9,0.8
			c0.6,0,1.5-0.5,2.3-1.1c0.5-0.3,0.9-0.7,1.3-1.2c0.1-0.1,0.2-0.3,0.3-0.4c0,0,0,0,0-0.1c0.7-1,1.1-2.3,1.1-3.7
			C198.2,143.2,198.2,142.7,198.2,142.1z"/>
	</g>
	<path id="XMLID_449_" class="st15" d="M177.4,173.5v-14.6c0-0.8-1.1-1.4-2.5-1.4h-21.1c-1.4,0-2.5,0.6-2.5,1.4v14.6H177.4z"/>
	<path id="XMLID_448_" class="st15" d="M206.2,173.5v-14.6c0-0.8-1.1-1.4-2.5-1.4h-21.1c-1.4,0-2.5,0.6-2.5,1.4v14.6H206.2z"/>
	<g id="XMLID_443_">
		<path id="XMLID_447_" class="st45" d="M210.5,156.5v-3.9c-1,0.7-2.9,0.7-2.9,0.7s-1.9-0.1-2.9-0.7v3.9H210.5z"/>
		<path id="XMLID_446_" class="st2" d="M210.5,157.4v-3.3c-1,0.6-2.9,0.6-2.9,0.6s-1.9-0.1-2.9-0.6v3.3H210.5z"/>
		<path id="XMLID_445_" class="st47" d="M217.6,157.1c-0.8-0.6-3.3-0.3-7.1-1.9c-1,0.6-2.9,0.6-2.9,0.6s-1.9-0.1-2.9-0.6
			c-3.8,1.6-6.3,1.4-7.1,1.9c-0.8,0.6-1.7,6.4-1.7,6.4h11.7h11.7C219.3,163.4,218.4,157.6,217.6,157.1z"/>
		<path id="XMLID_444_" class="st48" d="M213.9,153.1c0.7-0.2,1.6-3,0.6-4.1c-1-1.2-0.1-2.4-1.9-5.7c-1.8-3.4-6.1-2.5-6.6-1.6
			c-2.3,0-3,1.6-3.3,3.4c-0.1,0.2-0.2,0.4-0.2,0.6c-0.2,0.7-0.3,1.4-0.3,2c-0.1,0.4-0.2,0.7-0.4,1c-1.2,1.8,0.1,3.9,0.6,4.5
			c0.5,0.6,0.3,1.2-0.1,1.6c-1.5,1.1-0.3,4.4,5.5,4.5c5.4,0,7.5-2.9,6.1-4.6C213.5,154.2,213.2,153.3,213.9,153.1z"/>
	</g>
	<g id="XMLID_438_">
		<path id="XMLID_442_" class="st45" d="M181.7,157.8v-3.9c-1,0.7-2.9,0.7-2.9,0.7s-1.9-0.1-2.9-0.7v3.9H181.7z"/>
		<path id="XMLID_441_" class="st2" d="M181.7,158.7v-3.3c-1,0.6-2.9,0.6-2.9,0.6s-1.9-0.1-2.9-0.6v3.3H181.7z"/>
		<path id="XMLID_440_" class="st49" d="M188.8,158.3c-0.8-0.6-3.3-0.3-7.1-1.9c-1,0.6-2.9,0.6-2.9,0.6s-1.9-0.1-2.9-0.6
			c-3.8,1.6-6.3,1.4-7.1,1.9c-0.8,0.6-1.7,6.4-1.7,6.4h11.7h11.7C190.5,164.7,189.6,158.9,188.8,158.3z"/>
		<path id="XMLID_439_" class="st50" d="M184.5,147.6c0.1-2.3-0.2-5.1-2.1-5.6c-2.7-2.4-8.1,0.7-9.4,2.4c0.2,0.6,0.3,1.3,0.3,2
			c-0.2,0.7-0.4,1.4-0.4,2.2c0,3.4,2.6,6.2,5.8,6.2c3.2,0,5.8-2.8,5.8-6.2C184.6,148.3,184.5,148,184.5,147.6z"/>
	</g>
	<g id="XMLID_433_">
		<path id="XMLID_437_" class="st45" d="M152.9,157.3v-3.9c-1,0.7-2.9,0.7-2.9,0.7s-1.9-0.1-2.9-0.7v3.9H152.9z"/>
		<path id="XMLID_436_" class="st2" d="M152.9,158.2v-3.4c-1,0.6-2.9,0.6-2.9,0.6s-1.9-0.1-2.9-0.6v3.4H152.9z"/>
		<path id="XMLID_435_" class="st51" d="M160.1,157.9c-0.9-0.6-3.4-0.3-7.2-1.9c-1,0.6-2.9,0.6-2.9,0.6s-1.9-0.1-2.9-0.6
			c-3.8,1.6-6.4,1.4-7.2,1.9c-0.9,0.6-1.8,6.4-1.8,6.4H150h11.9C161.9,164.3,161,158.5,160.1,157.9z"/>
		<path id="XMLID_434_" class="st52" d="M155.5,148c0,3.6-2.5,6.6-5.5,6.6c-3.1,0-5.5-2.9-5.5-6.6c0-2.4,0.9-6.1,3-5.7
			c1.6-1.6,3.3-1.1,5.8-0.2C155.8,143,155.5,145.8,155.5,148z"/>
	</g>
	<path id="XMLID_432_" class="st14" d="M163,173.5v-13c0-0.8-1.1-1.4-2.5-1.4h-21.1c-1.4,0-2.5,0.6-2.5,1.4v13H163z"/>
	<path id="XMLID_431_" class="st14" d="M191.8,173.5v-13c0-0.8-1.1-1.4-2.5-1.4h-21.1c-1.4,0-2.5,0.6-2.5,1.4v13H191.8z"/>
	<path id="XMLID_430_" class="st14" d="M220.6,173.5v-13c0-0.8-1.1-1.4-2.5-1.4h-21.1c-1.4,0-2.5,0.6-2.5,1.4v13H220.6z"/>
</g>
<g id="XMLID_388_">
	<g id="XMLID_423_">
		<g id="XMLID_425_">
			<path id="XMLID_428_" class="st45" d="M30.1,152.9v-3.6c-1,0.6-2.7,0.7-2.7,0.7s-1.7-0.1-2.7-0.7v3.6H30.1z"/>
			<path id="XMLID_427_" class="st2" d="M30.1,153.8v-3.1c-1,0.5-2.7,0.6-2.7,0.6s-1.7-0.1-2.7-0.6v3.1H30.1z"/>
			<path id="XMLID_426_" class="st46" d="M36.8,153.4c-0.8-0.5-3.1-0.3-6.7-1.8c-1,0.5-2.7,0.6-2.7,0.6s-1.7-0.1-2.7-0.6
				c-3.5,1.5-5.9,1.3-6.7,1.8c-0.8,0.5-1.6,5.9-1.6,5.9h11h11C38.4,159.4,37.6,154,36.8,153.4z"/>
		</g>
		<path id="XMLID_424_" class="st17" d="M33.8,146.2c-0.5-1.5-0.1-5.9-1.8-5.9c-0.1-0.3-0.5-0.7-1-0.7c-0.7-0.6-1.5-1-2.2-1
			c-0.2,0-0.4,0-0.7,0c-0.6-0.1-1.1-0.2-1.6,0.1c-0.6,0.1-1.3,0.4-1.8,0.9c-0.5,0-0.9,0.4-1,0.7c-1.8,0-1.3,4.4-1.8,5.9
			c-0.4,1.3-0.1,6.9,1.6,8.5c0.9,2.2,2.4,3.5,4,3.5c1.5,0,2.8-1.2,3.8-3.1c0,0,0,0,0.1,0C33.8,155,34.4,147.7,33.8,146.2z"/>
	</g>
	<g id="XMLID_418_">
		<path id="XMLID_422_" class="st45" d="M59.1,152.2v-3.8c-1,0.6-2.8,0.7-2.8,0.7s-1.8-0.1-2.8-0.7v3.8H59.1z"/>
		<path id="XMLID_421_" class="st2" d="M59.1,153.1v-3.3c-1,0.6-2.8,0.6-2.8,0.6s-1.8-0.1-2.8-0.6v3.3H59.1z"/>
		<path id="XMLID_420_" class="st14" d="M66.1,152.7c-0.8-0.6-3.3-0.3-7-1.9c-1,0.6-2.8,0.6-2.8,0.6s-1.8-0.1-2.8-0.6
			c-3.7,1.6-6.2,1.3-7,1.9c-0.8,0.6-1.7,6.2-1.7,6.2h11.5h11.5C67.8,159,66.9,153.3,66.1,152.7z"/>
		<path id="XMLID_419_" class="st14" d="M61.3,142.2c0.1-2-0.2-4.3-1.9-4.7c-2.2-1.7-5.5-0.9-6.8,0.4c-1.3,0.4-2.4,0.5-2.7,0.1
			c0,0-1.1,2.4,1,3.6c0.1,0.1,0.3,0.2,0.4,0.2c-0.1,0.7-0.2,1.4-0.2,2c0,2.6,1.4,4.8,3.3,5.6c0.7,0.5,1.4,0.8,1.9,0.8
			c0.6,0,1.5-0.5,2.3-1.1c0.5-0.3,0.9-0.7,1.3-1.2c0.1-0.1,0.2-0.3,0.3-0.4c0,0,0,0,0-0.1c0.7-1,1.1-2.3,1.1-3.7
			C61.3,143.4,61.3,142.8,61.3,142.2z"/>
	</g>
	<path id="XMLID_417_" class="st15" d="M40.5,173.6v-14.6c0-0.8-1.1-1.4-2.5-1.4H16.9c-1.4,0-2.5,0.6-2.5,1.4v14.6H40.5z"/>
	<path id="XMLID_416_" class="st15" d="M69.3,173.6v-14.6c0-0.8-1.1-1.4-2.5-1.4H45.7c-1.4,0-2.5,0.6-2.5,1.4v14.6H69.3z"/>
	<g id="XMLID_411_">
		<path id="XMLID_415_" class="st45" d="M73.5,156.7v-3.9c-1,0.7-2.9,0.7-2.9,0.7s-1.9-0.1-2.9-0.7v3.9H73.5z"/>
		<path id="XMLID_414_" class="st2" d="M73.5,157.5v-3.3c-1,0.6-2.9,0.6-2.9,0.6s-1.9-0.1-2.9-0.6v3.3H73.5z"/>
		<path id="XMLID_413_" class="st47" d="M80.6,157.2c-0.8-0.6-3.3-0.3-7.1-1.9c-1,0.6-2.9,0.6-2.9,0.6s-1.9-0.1-2.9-0.6
			c-3.8,1.6-6.3,1.4-7.1,1.9c-0.8,0.6-1.7,6.4-1.7,6.4h11.7h11.7C82.4,163.6,81.5,157.8,80.6,157.2z"/>
		<path id="XMLID_412_" class="st48" d="M77,153.2c0.7-0.2,1.6-3,0.6-4.1c-1-1.2-0.1-2.4-1.9-5.7c-1.8-3.4-6.1-2.5-6.6-1.6
			c-2.3,0-3,1.6-3.3,3.4c-0.1,0.2-0.2,0.4-0.2,0.6c-0.2,0.7-0.3,1.4-0.3,2c-0.1,0.4-0.2,0.7-0.4,1c-1.2,1.8,0.1,3.9,0.6,4.5
			c0.5,0.6,0.3,1.2-0.1,1.6c-1.5,1.1-0.3,4.4,5.5,4.5c5.4,0,7.5-2.9,6.1-4.6C76.5,154.3,76.3,153.4,77,153.2z"/>
	</g>
	<g id="XMLID_406_">
		<path id="XMLID_410_" class="st45" d="M44.7,157.9V154c-1,0.7-2.9,0.7-2.9,0.7S40,154.7,39,154v3.9H44.7z"/>
		<path id="XMLID_409_" class="st2" d="M44.7,158.8v-3.3c-1,0.6-2.9,0.6-2.9,0.6S40,156,39,155.5v3.3H44.7z"/>
		<path id="XMLID_408_" class="st49" d="M51.8,158.4c-0.8-0.6-3.3-0.3-7.1-1.9c-1,0.6-2.9,0.6-2.9,0.6s-1.9-0.1-2.9-0.6
			c-3.8,1.6-6.3,1.4-7.1,1.9c-0.8,0.6-1.7,6.4-1.7,6.4h11.7h11.7C53.6,164.8,52.7,159,51.8,158.4z"/>
		<path id="XMLID_407_" class="st50" d="M47.5,147.7c0.1-2.3-0.2-5.1-2.1-5.6c-2.7-2.4-8.1,0.7-9.4,2.4c0.2,0.6,0.3,1.3,0.3,2
			c-0.2,0.7-0.4,1.4-0.4,2.2c0,3.4,2.6,6.2,5.8,6.2c3.2,0,5.8-2.8,5.8-6.2C47.6,148.4,47.6,148.1,47.5,147.7z"/>
	</g>
	<g id="XMLID_392_">
		<path id="XMLID_398_" class="st45" d="M15.9,157.5v-3.9c-1,0.7-2.9,0.7-2.9,0.7s-1.9-0.1-2.9-0.7v3.9H15.9z"/>
		<path id="XMLID_395_" class="st2" d="M15.9,158.4V155c-1,0.6-2.9,0.6-2.9,0.6s-1.9-0.1-2.9-0.6v3.4H15.9z"/>
		<path id="XMLID_394_" class="st51" d="M23.2,158c-0.9-0.6-3.4-0.3-7.2-1.9c-1,0.6-2.9,0.6-2.9,0.6s-1.9-0.1-2.9-0.6
			c-3.8,1.6-6.4,1.4-7.2,1.9c-0.9,0.6-1.8,6.4-1.8,6.4H13h11.9C24.9,164.5,24,158.6,23.2,158z"/>
		<path id="XMLID_393_" class="st52" d="M18.6,148.2c0,3.6-2.5,6.6-5.5,6.6c-3.1,0-5.5-2.9-5.5-6.6c0-2.4,0.9-6.1,3-5.7
			c1.6-1.6,3.3-1.1,5.8-0.2C18.8,143.1,18.6,145.9,18.6,148.2z"/>
	</g>
	<path id="XMLID_391_" class="st14" d="M26.1,173.6v-13c0-0.8-1.1-1.4-2.5-1.4H2.5c-1.4,0-2.5,0.6-2.5,1.4v13H26.1z"/>
	<path id="XMLID_390_" class="st14" d="M54.9,173.6v-13c0-0.8-1.1-1.4-2.5-1.4H31.3c-1.4,0-2.5,0.6-2.5,1.4v13H54.9z"/>
	<path id="XMLID_389_" class="st14" d="M83.7,173.6v-13c0-0.8-1.1-1.4-2.5-1.4H60.1c-1.4,0-2.5,0.6-2.5,1.4v13H83.7z"/>
</g>
</svg>
