<?xml version="1.0" encoding="utf-8"?>
<!-- Generator: Adobe Illustrator 19.0.0, SVG Export Plug-In . SVG Version: 6.00 Build 0)  -->
<svg version="1.1" id="Слой_1" xmlns="http://www.w3.org/2000/svg" xmlns:xlink="http://www.w3.org/1999/xlink" x="0px" y="0px"
	 viewBox="0 0 37.3 13.5" style="enable-background:new 0 0 37.3 13.5;" xml:space="preserve">
<style type="text/css">
	.st0{fill:#FFFFFF;stroke:#484349;stroke-width:0.5;stroke-miterlimit:10;}
	.st1{fill:#484349;}
	.st2{font-family:'Cabin-Bold';}
	.st3{font-size:5.2799px;}
	.st4{fill:#109648;}
	.st5{font-family:'Cabin-Regular';}
	.st6{font-size:3.2659px;}
	.st7{fill:none;stroke:#484349;stroke-miterlimit:10;}
	.st8{fill:#109648;stroke:#484349;stroke-miterlimit:10;}
	.st9{fill:#4D4D4D;}
</style>
<rect id="XMLID_136_" x="0.6" y="0.4" class="st0" width="36.4" height="12.7"/>
<text id="XMLID_77_" transform="matrix(1 0 0 1 2.7015 9.8548)" class="st1 st2 st3">STREAM</text>
<g>
	<path id="XMLID_28_" class="st4" d="M31.7,9.9h-4.2c-1.9,0-3.5-1.6-3.5-3.5V6.2c0-1.9,1.6-3.5,3.5-3.5h4.2c1.9,0,3.5,1.6,3.5,3.5
		v0.2C35.1,8.3,33.6,9.9,31.7,9.9z"/>
	<circle id="XMLID_27_" class="st1" cx="31.9" cy="6.4" r="3.5"/>
</g>
<text id="XMLID_26_" transform="matrix(1 0 0 1 2.7015 5.016)" class="st1 st5 st6">CONNECTI</text>
<rect id="XMLID_159_" x="32.5" y="-107.7" class="st7" width="51.6" height="15.4"/>
<text id="XMLID_160_" transform="matrix(1 0 0 1 36.6693 -97.202)" class="st1 st2" style="font-size:8.0833px;">STREAM</text>
<path id="XMLID_91_" class="st8" d="M77.7-95.9h-4.4c-2.1,0-3.9-1.7-3.9-3.9v0c0-2.1,1.7-3.9,3.9-3.9h4.4c2.1,0,3.9,1.7,3.9,3.9v0
	C81.5-97.6,79.8-95.9,77.7-95.9z"/>
<circle id="XMLID_92_" class="st9" cx="73" cy="-99.7" r="3.8"/>
<text id="XMLID_25_" transform="matrix(1 0 0 1 -56.4167 -93.3748)" class="st1 st2" style="font-size:18.0617px;">CONNECTI</text>
</svg>
