<?xml version="1.0" encoding="utf-8"?>
<!-- Generator: Adobe Illustrator 19.0.0, SVG Export Plug-In . SVG Version: 6.00 Build 0)  -->
<svg version="1.1" id="Layer_1" xmlns="http://www.w3.org/2000/svg" xmlns:xlink="http://www.w3.org/1999/xlink" x="0px" y="0px"
	 viewBox="0 0 108 85.9" style="enable-background:new 0 0 108 85.9;" xml:space="preserve">
<style type="text/css">
	.st0{fill:#826C87;}
	.st1{fill:#4D4D4D;}
	.st2{fill:#BB0202;}
	.st3{fill:#EA9F60;}
	.st4{fill:#C47947;}
	.st5{fill:#B2462D;}
	.st6{fill:#FFFFFF;}
	.st7{fill:#C66344;}
	.st8{fill:#E86C46;}
	.st9{fill:#3F1A01;}
	.st10{fill:#3F1E0C;}
	.st11{fill:#E03F3F;}
	.st12{fill:#333333;}
	.st13{fill:#212121;}
	.st14{fill:#E25C52;}
</style>
<rect id="XMLID_759_" x="2.7" y="20.8" class="st0" width="101.7" height="61.7"/>
<path id="XMLID_763_" class="st1" d="M108,23.1c0-4-3.2-7.2-7.2-7.2H7.2c-4,0-7.2,3.2-7.2,7.2v55.6c0,4,3.2,7.2,7.2,7.2h93.6
	c4,0,7.2-3.2,7.2-7.2V23.1z M104,81.9H4v-60h100V81.9z"/>
<g id="XMLID_585_">
	<g id="XMLID_535_">
		<path id="XMLID_534_" class="st2" d="M65.9,19.3c0,14.7,7.1,26.1-11.9,26.4C35.2,41.7,42,34.6,42,19.9C40.1,4.7,47,0.5,54,0.5
			S67.2,4,65.9,19.3z"/>
		<path id="XMLID_533_" class="st3" d="M67.6,34.1l-6.1-0.9c-1.9-0.6-3.6-2.6-3.6-3.8c0,0,0-3.3,0-3.3c-2.3,1.1-4.3,1.7-4.3,1.7
			s-1.7-0.5-3.9-1.7c0,0,0,3.2,0,3.2c0,1.2-2,3.2-4,3.8l-6,0.9c-2.6,0-4.6,2.5-4.6,5.7s2.1,5.7,4.6,5.7h27.9c2.6,0,4.6-2.5,4.6-5.7
			S70.1,34.1,67.6,34.1z"/>
		<path id="XMLID_532_" class="st4" d="M49.7,24.8v2.1c1.5,1,2.7,1.7,3.4,2c0.3,0.1,0.6,0.1,0.9,0c0.7-0.3,2.2-1,3.9-2v-2.1H49.7z"
			/>
		<path id="XMLID_531_" class="st3" d="M63.4,14.4c-0.3-0.1-0.6-0.1-0.8,0.1c0.3-2.8,0.4-5.8,0-6.5c-2-3.2-5.4-4.9-8.9-5
			c0,0,0,0,0,0h0c-3.5,0.1-6.3,2.1-8.3,5.3c-0.4,0.7-1,3.4-0.7,6.2c-0.2-0.1-0.4-0.1-0.6,0c-0.8,0.3-1.1,1.6-0.6,3
			c0.4,1.1,1.2,2,1.9,2.1c0.1,0.8,0.2,1.3,0.2,1.3c1.7,4.5,6.2,6.7,7.7,7.4c0.3,0.1,0.6,0.1,0.9,0c1.4-0.6,6-2.8,7.7-7.4
			c0,0,0.1-0.5,0.2-1.3c0.8,0.1,1.7-0.8,2.1-2.1C64.5,16,64.2,14.7,63.4,14.4z"/>
		<path id="XMLID_530_" class="st4" d="M54.2,20h-1.1c-0.4,0-0.7-0.3-0.8-0.6c0,0.1-0.1,0.2-0.1,0.4c0,0.5,0.7,0.7,1.1,0.7h0.6
			c0.5,0,1.1-0.2,1.1-0.7c0-0.1,0-0.2-0.1-0.4C54.9,19.7,54.6,20,54.2,20z"/>
		<path id="XMLID_529_" class="st4" d="M43.5,15.4c0-0.1,0.2-0.6,0.5-0.5c0.4,0.1,0.7,0.9,0.9,1.8c0.2,0.8,0.1,1.4,0,1.2
			c-0.1-0.3-0.3-1.3-0.7-2.2C43.8,15,43.6,16.3,43.5,15.4z"/>
		<path id="XMLID_528_" class="st4" d="M64,15.4c0-0.1-0.2-0.6-0.5-0.5c-0.4,0.1-0.7,0.9-0.9,1.8c-0.2,0.8-0.1,1.4,0,1.2
			c0.1-0.3,0.3-1.3,0.7-2.2C63.7,15,63.9,16.3,64,15.4z"/>
		<path id="XMLID_527_" class="st5" d="M56.7,22.1c0,0-0.2,0-0.4,0c-0.3,0.1-1.2,0.2-2.6,0.2c0,0,0,0,0,0c0,0,0,0,0,0
			c-1.4,0-2.4-0.1-2.6-0.2c-0.2,0-0.4-0.1-0.4,0c-0.1,0.1,0,0.2,0.1,0.3C50.7,22.6,51,23,51,23s0.9,1.7,2.5,1.7
			c1.7,0,2.5-1.7,2.5-1.7s0.3-0.5,0.4-0.6C56.7,22.3,56.7,22.2,56.7,22.1z"/>
		<path id="XMLID_526_" class="st6" d="M55.3,23.1c0.4-0.1,0.6-0.5,0.7-1c-0.5,0.1-1.5,0.2-2.5,0.1c-0.8,0-1.6-0.1-2.2-0.2
			c0.1,0.5,0.2,0.6,0.6,0.8c-0.3,0-0.4,0.3-0.4,0.7c0.5,0.5,1.5,0.9,2.2,0.9c1.1,0,1.7-0.4,2-0.9C55.6,23.4,55.6,23.1,55.3,23.1z"/>
		<path id="XMLID_525_" class="st7" d="M50.9,22.1c0,0,0.3,0.5,2.7,0.5c2.3,0,2.6-0.5,2.6-0.5s-0.1,0-0.3,0c-0.4-0.1-1-0.4-1.7-0.4
			c-0.2,0-0.4,0.2-0.6,0.2c-0.2,0-0.4-0.2-0.7-0.2c-0.7,0-1.6,0.4-1.9,0.4C51,22.1,50.9,22.1,50.9,22.1z"/>
		<path id="XMLID_524_" class="st8" d="M50.7,22.5c0,0,0.6,2.2,2.9,2.2c2.1,0,2.9-2.2,2.9-2.2s-1.1,1.1-2.9,1.2
			C51.8,23.7,50.7,22.5,50.7,22.5z"/>
		<path id="XMLID_523_" class="st9" d="M51.4,13c-0.2-0.1-1.8-0.9-2.9-1c-0.4,0-1.4,0.7-1.9,1.1c0.4-0.1,1.6-0.7,1.9-0.6
			c1.1,0.3,2.2,0.8,2.6,1C51.4,13.7,51.7,13.2,51.4,13z"/>
		<path id="XMLID_522_" class="st9" d="M56.1,13c0.2-0.1,1.8-0.9,2.9-1c0.4,0,1.4,0.7,1.9,1.1c-0.4-0.1-1.6-0.7-1.9-0.6
			c-1.1,0.3-2.2,0.8-2.6,1C56.1,13.7,55.8,13.2,56.1,13z"/>
		<g id="XMLID_574_">
			<path id="XMLID_521_" class="st6" d="M51.5,15.7c-1.1,0.3-1.6,0.5-2.2,0.5c-0.9,0-1.5-0.5-1.5-1.1c0-0.5,0.7-0.9,1.6-0.8
				C50.3,14.4,51.3,15.3,51.5,15.7z"/>
			<path id="XMLID_520_" class="st10" d="M50.3,15.3c0,0.5-0.5,0.9-1,0.9c-0.5,0-0.9-0.5-0.8-1c0-0.5,0.5-0.8,1-0.7
				C49.9,14.5,50.3,14.7,50.3,15.3z"/>
			
				<ellipse id="XMLID_519_" transform="matrix(0.9982 5.975915e-002 -5.975915e-002 0.9982 0.9925 -2.9258)" cx="49.4" cy="15.1" rx="0.6" ry="0.7"/>
			
				<ellipse id="XMLID_518_" transform="matrix(0.9983 5.831769e-002 -5.831769e-002 0.9983 0.9636 -2.8809)" class="st6" cx="49.8" cy="15.1" rx="0.3" ry="0.2"/>
			<path id="XMLID_517_" d="M47.3,15.1c0,0.3,0.7,1.1,2,1.1c-0.9-0.1-1.3-0.7-1.4-0.9c0.1-0.6,1.4-0.8,2.2-0.5
				c1.2,0.4,1.4,0.9,1.4,0.9c-0.5-1.1-1.7-1.6-2.8-1.5C47.9,14.4,47.8,14.8,47.3,15.1z"/>
		</g>
		<path id="XMLID_516_" class="st6" d="M56,15.7c1.1,0.3,1.6,0.5,2.2,0.5c0.9,0,1.5-0.5,1.5-1.1c0-0.5-0.7-0.9-1.6-0.8
			C57.2,14.4,56.2,15.3,56,15.7z"/>
		<path id="XMLID_515_" class="st10" d="M57.2,15.3c0,0.5,0.5,0.9,1,0.9c0.5,0,0.9-0.5,0.8-1c0-0.5-0.5-0.8-1-0.7
			C57.6,14.5,57.2,14.7,57.2,15.3z"/>
		
			<ellipse id="XMLID_514_" transform="matrix(-0.9982 5.974456e-002 -5.974456e-002 -0.9982 116.9499 26.7641)" cx="58.1" cy="15.1" rx="0.6" ry="0.7"/>
		
			<ellipse id="XMLID_513_" transform="matrix(-0.9983 5.834768e-002 -5.834768e-002 -0.9983 117.8696 26.6954)" class="st6" cx="58.5" cy="15.1" rx="0.3" ry="0.2"/>
		<path id="XMLID_512_" d="M60.2,15.1c0,0.3-0.7,1.1-2,1.1c0.9-0.1,1.3-0.7,1.4-0.9c-0.1-0.6-1.4-0.8-2.2-0.5
			c-1.2,0.4-1.4,0.9-1.4,0.9c0.5-1.1,1.7-1.6,2.8-1.5C59.6,14.4,59.7,14.8,60.2,15.1z"/>
		<path id="XMLID_511_" class="st11" d="M66.1,16c0,0-1.9,9.8,2.6,17.3C65.8,27,66.1,16,66.1,16z"/>
		<path id="XMLID_510_" class="st11" d="M65.7,20c0,0-1.9,9.8,2.6,17.3C66.5,31.1,65.7,20,65.7,20z"/>
		<path id="XMLID_509_" class="st11" d="M41.7,16c0,0,1.9,9.8-2.6,17.3C42,27,41.7,16,41.7,16z"/>
		<path id="XMLID_508_" class="st11" d="M42.1,20c0,0,1.9,9.8-2.6,17.3C41.3,31.1,42.1,20,42.1,20z"/>
		<path id="XMLID_507_" class="st2" d="M65.5,11.2C65.5,5.2,60.6,0,54,0c-6.6,0-11.8,5.4-11.8,11.3c0,2,0.2,3.4,1.1,5
			c-0.1-1,0.2-1.8,0.9-2c0.1,0,0.3-0.1,0.4,0c0.3,1.3,0.7,2.1,0.7,1.4c0-0.8,0-2.3,0.1-3.5c0-10.7,17.8-9.5,17.1,0.3
			c0.1,1.1,0.1,2.4,0.1,3.1c0,0.7,0.3-0.1,0.6-1.4c0.1,0,0.2,0,0.4,0c0.6,0.2,1,1.1,0.8,2.1C65.4,14.8,65.5,13.3,65.5,11.2z"/>
	</g>
	<rect id="XMLID_506_" x="43.5" y="44.9" class="st6" width="21.9" height="15.5"/>
	<path id="XMLID_505_" class="st12" d="M71.4,36.6C70.5,34.8,69,34,67.6,34l-4.3-0.6c0.6,5.4-6.8,22.1-9.1,23.7
		c-2-1.4-10.9-18.4-10.3-23.7L39.7,34c-1.7,0-3.1,1.1-3.9,2.6c-2.2,3.6-3.4,18.6-1.9,24.6c0.7,2.7,7.7,1.5,7.7,0.6
		c0-2.6-4.4-12.2-2.1-16.1c0.1,0.2,0.3,0.4,0.4,0.6c-0.3,0.7-0.4,1.4-0.4,2.2c0,2.7,1.6,4.9,3.9,5.9c0.4,1.4,0.7,2.8,0.9,4.3
		c0.4,2.9,0.6,5.8,0.5,8.4c-1.8,1.3-3.2,3-4.3,5c-0.8,1.5-3.2,8.8-3.5,10.5c5.3,0.1,11.2,0,16.4,0c5.4,0,9.8,0,16.5,0
		c-0.3-1.7-2.3-9.2-3.1-10.7c-1.1-1.9-2.6-3.6-4.3-4.9l0,0c-0.1-2.6,0.1-5.4,0.5-8.3c0.2-1.5,0.5-2.9,0.9-4.2c2.3-1,3.9-3.2,3.9-5.8
		c0-0.8-0.1-1.5-0.4-2.2c0.1-0.2,0.2-0.4,0.4-0.5c1.7,3.5-1.5,12.6-1.5,15.1c0,0.9,6-1.2,6.7-6.1C73.8,49.9,73.6,40.1,71.4,36.6z"/>
	<path id="XMLID_504_" class="st13" d="M39.6,48.5c0-0.8,0.1-1.5,0.4-2.2c-0.1-0.2-0.3-0.4-0.4-0.6c-1.7,2.9,0.2,8.8,1.4,12.8
		l3.4-0.7c-0.2-1.2-0.4-2.3-0.8-3.4C41.2,53.4,39.6,51.1,39.6,48.5z"/>
	<path id="XMLID_503_" class="st13" d="M67.9,45.9c-0.1,0.2-0.2,0.4-0.4,0.5c0.2,0.7,0.4,1.4,0.4,2.2c0,2.6-1.6,4.9-3.9,5.8
		c-0.4,1.3-0.7,2.7-0.9,4.2c-0.1,0.6-0.2,1.2-0.2,1.8h3.5C66.7,57.3,69.5,49.2,67.9,45.9z"/>
	<g id="XMLID_557_">
		<path id="XMLID_502_" class="st13" d="M64,54.4C64,54.5,64,54.5,64,54.4C64.8,54.3,65,54,64,54.4z"/>
		<path id="XMLID_501_" class="st13" d="M64,54.4c-0.3,0.1-0.5,0.2-0.8,0.2c-1.1,0.1-2.9,0-4.9-1c-0.4-0.3-0.7-0.6-1-0.9
			c-0.7,1.2-2.5,3.9-3.1,4.3c-0.5-0.3-2.5-3.2-3.3-4.3c-1.2,1.3-2.9,2.2-4.8,2.2c-0.9,0-1.8-0.2-2.6-0.6c0.2,0.6,0.3,1.2,0.5,1.9
			c0.2,0.8,0.3,1.6,0.4,2.4c0.3,1.9,0.5,3.8,0.5,5.5c0,0.3,11.8,2.4,17.7,1.4c0-2.5,0.2-4.6,0.5-7C63.4,57.2,63.6,55.8,64,54.4
			C64,54.5,64,54.5,64,54.4C64,54.5,64,54.5,64,54.4z"/>
	</g>
	<path id="XMLID_499_" class="st3" d="M68.1,58.7c0,0-0.1,0.6-1.2,0.5c-1.1-0.1-1.5,0-1.5,0l-1.1,0.4c0,0-1.8,0.1-1.6-0.4
		c0.1-0.6,1.8-0.9,1.8-0.9s0.3-0.1,0.7-0.1c0.4,0,1.4,0.1,1.7,0.2C67.1,58.3,68.1,58.7,68.1,58.7z"/>
	<path id="XMLID_498_" class="st3" d="M70,58.2c0,0-0.4,0.9-1.6,0.4c-1.2-0.5-2-0.6-2.3-0.6c-0.3,0-1.5,0.2-2.2,0.4
		c-0.7,0.3-1.6-0.7-0.7-1.1c0.9-0.4,1.7-0.5,2-0.6c0.3-0.1,0.8-0.1,1.1,0C66.6,56.8,70,58.2,70,58.2z"/>
	<path id="XMLID_497_" class="st3" d="M63.3,55.8c0,0,1.6-0.7,1.9-0.8c0.3-0.1,0.7-0.1,1.3,0c0.6,0.1,1.1,0.3,1.9,0.8
		c0.6,0.4,1.7,1,1.7,1s-0.5,0.8-1.5,0.4c-1-0.5-2.3-0.9-2.7-0.8c-0.4,0.1-1.9,0.7-1.9,0.7S63.4,56.8,63.3,55.8z"/>
	<path id="XMLID_496_" class="st3" d="M64.4,55.6c0.1-0.1,0.7-0.7,0.8-1c0.1-0.2,0.9-0.4,1.2-0.4c0.3,0,1.2,0.1,1.5,0.1
		c0.4,0,0.8-0.5,0.8-0.8c-0.5-0.1-2-0.4-2.7-0.4c-0.7,0-1.2,0.1-1.4,0.1c-0.2,0-0.4,0.3-0.6,0.5c-0.2,0.2-0.7,1-1,1.4
		c-0.1,0.1-0.1,0.2-0.2,0.2C62.5,55.6,63.2,56.5,64.4,55.6z"/>
	<path id="XMLID_495_" class="st3" d="M63,55.1c0,0-0.3,0.1-0.8,0.6c-0.6,0.4-2.6,2.3-3.2,2.6c-0.6,0.2-1.1,0.8-0.6,1
		c0.6,0.2,4.6,0.5,5,0.2c0.5-0.3,0.9-1.7,0.9-1.7l-0.1-1.6C64.3,56.2,64.1,55.2,63,55.1z"/>
	<path id="XMLID_494_" class="st14" d="M68.7,53.4l-1.1-0.1c0,0-0.1,0.1,0,0.2c0,0.1,0.8,0.2,0.9,0.2C68.7,53.6,68.7,53.4,68.7,53.4
		z"/>
	<path id="XMLID_493_" class="st14" d="M70.1,56.8l-0.9-0.5c0,0-0.1,0.1-0.1,0.2c0,0.1,0.7,0.5,0.8,0.5S70.1,56.8,70.1,56.8z"/>
	<path id="XMLID_492_" class="st14" d="M70,58.2l-1-0.4c0,0-0.1,0.1-0.1,0.2c0,0.1,0.8,0.4,0.9,0.4C69.9,58.4,70,58.2,70,58.2z"/>
	<path id="XMLID_491_" class="st14" d="M68.1,58.7l-0.8-0.3c0,0-0.1,0.1-0.1,0.2c0,0.1,0.7,0.3,0.7,0.3
		C68.1,58.8,68.1,58.7,68.1,58.7z"/>
	<path id="XMLID_490_" class="st12" d="M35.1,62.3c1.3,0.5,5.4,1.4,12.7,1c-0.1-2,0.2-4.2,0.7-5.5c-1.9-0.6-8.9-2.9-8.9-2.9
		S33.6,61.7,35.1,62.3z"/>
	<path id="XMLID_489_" class="st3" d="M37.2,53.2c-0.8,0.1-1.1-0.5-1-0.6c0.6-0.2,1.7-0.5,2.6-0.7c0.3,0,0.8-0.1,1.1,0.1
		c0.3,0.2,2.1,1.3,2.8,1.8c0.7,0.6,2.3,2.9,3.7,3.3c1.4,0.4,2.9,0.8,2.9,0.8l-0.8,2.5c0,0-2.5,0-2.9,0c-0.4,0-1.5,0.4-2.4,0.1
		c-0.9-0.3-1.6-0.8-2.5-1.4c-0.8-0.5-0.9-0.7-1.3-0.8c-0.4-0.1-1.1-0.2-1.6-0.2c-0.6,0-0.7-0.1-1-0.1c-0.8-0.1-1.1-0.5-1-0.8
		c0.1-0.1,3.3,0,3.6-0.1c0.2-0.1,0.6-0.3,0.1-0.5c-0.6-0.2-1-0.5-1.5-0.5c-0.5,0-1.2,0.2-1.3,0.2c-0.3,0.1-0.8-0.2-0.9-0.6
		c0.7-0.2,1.4-0.4,1.8-0.5c0.4-0.1,0.9-0.1,1.6,0.2c0.7,0.2,0.9,0.3,1,0.3c0.1-0.3-1.3-1-1.8-1c-0.4-0.1-0.9,0.2-1.7,0.2
		c-0.6-0.1-0.9-0.5-0.7-0.7c0.6-0.1,1.8-0.7,2.3-0.6c0.5,0.1,1.5,0.4,2,0.6c0.3,0.2,1,0.5,0.9,0.3c0-0.2-1.1-0.9-1.6-1.3
		C39,52.7,37.2,53.2,37.2,53.2z"/>
	<path id="XMLID_486_" class="st12" d="M47.3,61c0.1,2.4,0,3,0,3s11.2,1.2,14.3,1.2c3.2,0,8,0.2,9.8-1.4c1.7-1.6,2-9.7,2.1-13.1
		c-1,10.4-6.8,8.6-7.7,8.5c-0.6,0-1.3-0.1-7-0.7c-5.7-0.6-10.4-1.5-10.4-1.5S47.2,58.6,47.3,61z"/>
	<path id="XMLID_485_" class="st14" d="M36.1,52.5l1-0.3c0,0,0.1,0.1,0.1,0.2c0,0.1-0.8,0.3-0.9,0.3C36.1,52.7,36.1,52.5,36.1,52.5z
		"/>
	<path id="XMLID_484_" class="st14" d="M35.7,54l1-0.3c0,0,0.1,0.1,0.1,0.2c0,0.1-0.8,0.3-0.9,0.3C35.8,54.2,35.7,54,35.7,54z"/>
	<path id="XMLID_483_" class="st14" d="M35.6,55.6l1-0.3c0,0,0.1,0.1,0.1,0.2c0,0.1-0.7,0.3-0.8,0.3C35.7,55.8,35.6,55.6,35.6,55.6z
		"/>
	<path id="XMLID_482_" class="st14" d="M35.7,57.2l0.8,0c0,0,0,0.1,0,0.2c0,0.1-0.7,0.1-0.7,0C35.8,57.3,35.7,57.2,35.7,57.2z"/>
</g>
</svg>
